<mxfile host="app.diagrams.net" modified="2024-05-21T07:56:57.121Z" agent="Mozilla/5.0 (Windows NT 10.0; Win64; x64) AppleWebKit/537.36 (KHTML, like Gecko) Chrome/125.0.0.0 Safari/537.36" etag="ZGBZpc2czknckPL3iyD5" version="24.4.4" type="github">
  <diagram name="Page-1" id="2YBvvXClWsGukQMizWep">
    <mxGraphModel dx="1232" dy="1131" grid="1" gridSize="10" guides="1" tooltips="1" connect="1" arrows="1" fold="1" page="1" pageScale="1" pageWidth="1700" pageHeight="1100" math="0" shadow="0">
      <root>
        <mxCell id="0" />
        <mxCell id="1" parent="0" />
        <mxCell id="cxao4V9BfdAUneyTuSwW-18" value="&lt;font size=&quot;1&quot; style=&quot;&quot;&gt;&lt;b style=&quot;font-size: 12px;&quot;&gt;AWS Cloud&lt;/b&gt;&lt;/font&gt;" style="points=[[0,0],[0.25,0],[0.5,0],[0.75,0],[1,0],[1,0.25],[1,0.5],[1,0.75],[1,1],[0.75,1],[0.5,1],[0.25,1],[0,1],[0,0.75],[0,0.5],[0,0.25]];outlineConnect=0;gradientColor=none;html=1;whiteSpace=wrap;fontSize=12;fontStyle=0;container=1;pointerEvents=0;collapsible=0;recursiveResize=0;shape=mxgraph.aws4.group;grIcon=mxgraph.aws4.group_aws_cloud_alt;strokeColor=#232F3E;fillColor=none;verticalAlign=top;align=left;spacingLeft=30;fontColor=#232F3E;dashed=0;labelBackgroundColor=none;" parent="1" vertex="1">
          <mxGeometry x="10" y="10" width="1070" height="598" as="geometry" />
        </mxCell>
        <mxCell id="cxao4V9BfdAUneyTuSwW-15" value="&lt;b&gt;&lt;font style=&quot;font-size: 12px;&quot;&gt;Seoul Region (ap-northeast-2)&lt;/font&gt;&lt;/b&gt;" style="points=[[0,0],[0.25,0],[0.5,0],[0.75,0],[1,0],[1,0.25],[1,0.5],[1,0.75],[1,1],[0.75,1],[0.5,1],[0.25,1],[0,1],[0,0.75],[0,0.5],[0,0.25]];outlineConnect=0;gradientColor=none;html=1;whiteSpace=wrap;fontSize=12;fontStyle=0;container=1;pointerEvents=0;collapsible=0;recursiveResize=0;shape=mxgraph.aws4.group;grIcon=mxgraph.aws4.group_region;strokeColor=#00A4A6;fillColor=none;verticalAlign=top;align=left;spacingLeft=30;fontColor=#147EBA;dashed=1;" parent="cxao4V9BfdAUneyTuSwW-18" vertex="1">
          <mxGeometry x="20" y="38" width="1030" height="542" as="geometry" />
        </mxCell>
        <mxCell id="aJSuJoHOSdvCvk8-8lIr-13" style="edgeStyle=orthogonalEdgeStyle;rounded=0;orthogonalLoop=1;jettySize=auto;html=1;startArrow=classic;startFill=1;strokeWidth=3;strokeColor=#545B64;" parent="cxao4V9BfdAUneyTuSwW-15" source="cxao4V9BfdAUneyTuSwW-7" target="cxao4V9BfdAUneyTuSwW-3" edge="1">
          <mxGeometry relative="1" as="geometry" />
        </mxCell>
        <mxCell id="cxao4V9BfdAUneyTuSwW-3" value="&lt;b&gt;&lt;font style=&quot;font-size: 20px; background-color: rgb(255, 255, 255);&quot;&gt;S3&lt;/font&gt;&lt;/b&gt;" style="sketch=0;points=[[0,0,0],[0.25,0,0],[0.5,0,0],[0.75,0,0],[1,0,0],[0,1,0],[0.25,1,0],[0.5,1,0],[0.75,1,0],[1,1,0],[0,0.25,0],[0,0.5,0],[0,0.75,0],[1,0.25,0],[1,0.5,0],[1,0.75,0]];outlineConnect=0;fontColor=#232F3E;fillColor=#7AA116;strokeColor=#ffffff;dashed=0;verticalLabelPosition=bottom;verticalAlign=top;align=center;html=1;fontSize=12;fontStyle=0;aspect=fixed;shape=mxgraph.aws4.resourceIcon;resIcon=mxgraph.aws4.s3;" parent="cxao4V9BfdAUneyTuSwW-15" vertex="1">
          <mxGeometry x="149.99999999999994" y="102" width="78" height="78" as="geometry" />
        </mxCell>
        <mxCell id="aJSuJoHOSdvCvk8-8lIr-12" style="edgeStyle=orthogonalEdgeStyle;rounded=0;orthogonalLoop=1;jettySize=auto;html=1;startArrow=classic;startFill=1;strokeWidth=3;strokeColor=#545B64;" parent="cxao4V9BfdAUneyTuSwW-15" source="cxao4V9BfdAUneyTuSwW-8" target="cxao4V9BfdAUneyTuSwW-7" edge="1">
          <mxGeometry relative="1" as="geometry" />
        </mxCell>
        <mxCell id="aJSuJoHOSdvCvk8-8lIr-11" style="edgeStyle=orthogonalEdgeStyle;rounded=0;orthogonalLoop=1;jettySize=auto;html=1;startArrow=none;startFill=0;strokeWidth=3;strokeColor=#545B64;" parent="cxao4V9BfdAUneyTuSwW-15" source="cxao4V9BfdAUneyTuSwW-4" target="cxao4V9BfdAUneyTuSwW-8" edge="1">
          <mxGeometry relative="1" as="geometry" />
        </mxCell>
        <mxCell id="cxao4V9BfdAUneyTuSwW-7" value="&lt;font style=&quot;font-size: 20px;&quot;&gt;CloudFront&lt;/font&gt;" style="sketch=0;points=[[0,0,0],[0.25,0,0],[0.5,0,0],[0.75,0,0],[1,0,0],[0,1,0],[0.25,1,0],[0.5,1,0],[0.75,1,0],[1,1,0],[0,0.25,0],[0,0.5,0],[0,0.75,0],[1,0.25,0],[1,0.5,0],[1,0.75,0]];outlineConnect=0;fontColor=#232F3E;fillColor=#8C4FFF;strokeColor=#ffffff;dashed=0;verticalLabelPosition=bottom;verticalAlign=top;align=center;html=1;fontSize=12;fontStyle=1;aspect=fixed;shape=mxgraph.aws4.resourceIcon;resIcon=mxgraph.aws4.cloudfront;labelBackgroundColor=#FFFFFF;" parent="cxao4V9BfdAUneyTuSwW-15" vertex="1">
          <mxGeometry x="150" y="252" width="78" height="78" as="geometry" />
        </mxCell>
        <mxCell id="cxao4V9BfdAUneyTuSwW-4" value="&lt;span style=&quot;background-color: rgb(255, 255, 255);&quot;&gt;Certificate&lt;/span&gt;&lt;div style=&quot;font-size: 20px;&quot;&gt;&lt;span style=&quot;background-color: rgb(255, 255, 255);&quot;&gt;Manager&lt;/span&gt;&lt;/div&gt;" style="sketch=0;points=[[0,0,0],[0.25,0,0],[0.5,0,0],[0.75,0,0],[1,0,0],[0,1,0],[0.25,1,0],[0.5,1,0],[0.75,1,0],[1,1,0],[0,0.25,0],[0,0.5,0],[0,0.75,0],[1,0.25,0],[1,0.5,0],[1,0.75,0]];outlineConnect=0;fontColor=#232F3E;fillColor=#DD344C;strokeColor=#ffffff;dashed=0;verticalLabelPosition=bottom;verticalAlign=top;align=center;html=1;fontSize=20;fontStyle=1;aspect=fixed;shape=mxgraph.aws4.resourceIcon;resIcon=mxgraph.aws4.certificate_manager_3;" parent="cxao4V9BfdAUneyTuSwW-15" vertex="1">
          <mxGeometry x="19.99999999999997" y="396" width="78" height="78" as="geometry" />
        </mxCell>
        <mxCell id="cxao4V9BfdAUneyTuSwW-8" value="&lt;font style=&quot;font-size: 20px; background-color: rgb(255, 255, 255);&quot;&gt;Route 53&lt;/font&gt;" style="sketch=0;points=[[0,0,0],[0.25,0,0],[0.5,0,0],[0.75,0,0],[1,0,0],[0,1,0],[0.25,1,0],[0.5,1,0],[0.75,1,0],[1,1,0],[0,0.25,0],[0,0.5,0],[0,0.75,0],[1,0.25,0],[1,0.5,0],[1,0.75,0]];outlineConnect=0;fontColor=#232F3E;fillColor=#8C4FFF;strokeColor=#ffffff;dashed=0;verticalLabelPosition=bottom;verticalAlign=top;align=center;html=1;fontSize=12;fontStyle=1;aspect=fixed;shape=mxgraph.aws4.resourceIcon;resIcon=mxgraph.aws4.route_53;labelBackgroundColor=#FFFFFF;" parent="cxao4V9BfdAUneyTuSwW-15" vertex="1">
          <mxGeometry x="151" y="396" width="78" height="78" as="geometry" />
        </mxCell>
        <mxCell id="cxao4V9BfdAUneyTuSwW-36" value="&lt;font style=&quot;font-size: 20px;&quot; color=&quot;#007070&quot;&gt;&lt;b&gt;VPC&lt;/b&gt;&lt;/font&gt;" style="points=[[0,0],[0.25,0],[0.5,0],[0.75,0],[1,0],[1,0.25],[1,0.5],[1,0.75],[1,1],[0.75,1],[0.5,1],[0.25,1],[0,1],[0,0.75],[0,0.5],[0,0.25]];outlineConnect=0;gradientColor=none;html=1;whiteSpace=wrap;fontSize=12;fontStyle=0;container=1;pointerEvents=0;collapsible=0;recursiveResize=0;shape=mxgraph.aws4.group;grIcon=mxgraph.aws4.group_vpc2;strokeColor=#8C4FFF;fillColor=#ccffcc;verticalAlign=top;align=left;spacingLeft=30;fontColor=#AAB7B8;dashed=0;" parent="cxao4V9BfdAUneyTuSwW-18" vertex="1">
          <mxGeometry x="340" y="68" width="695" height="448" as="geometry" />
        </mxCell>
        <mxCell id="cxao4V9BfdAUneyTuSwW-33" value="" style="fillColor=none;strokeColor=#147EBA;dashed=1;verticalAlign=top;fontStyle=0;fontColor=#147EBA;whiteSpace=wrap;html=1;" parent="cxao4V9BfdAUneyTuSwW-36" vertex="1">
          <mxGeometry x="22" y="48" width="310" height="272" as="geometry" />
        </mxCell>
        <mxCell id="afPDVhEbnItVDCZ8cqZr-18" value="" style="rounded=1;whiteSpace=wrap;html=1;strokeWidth=3;strokeColor=#008787;" parent="cxao4V9BfdAUneyTuSwW-36" vertex="1">
          <mxGeometry x="32" y="101.46000000000001" width="290" height="202" as="geometry" />
        </mxCell>
        <mxCell id="afPDVhEbnItVDCZ8cqZr-24" value="&lt;font&gt;OpenVidu&lt;/font&gt;" style="text;strokeColor=none;fillColor=none;html=1;fontSize=24;fontStyle=1;verticalAlign=middle;align=center;fontColor=#008787;" parent="cxao4V9BfdAUneyTuSwW-36" vertex="1">
          <mxGeometry x="22" y="48.00000000000001" width="130" height="40" as="geometry" />
        </mxCell>
        <mxCell id="cxao4V9BfdAUneyTuSwW-2" value="&lt;b&gt;&lt;font style=&quot;font-size: 20px;&quot;&gt;EC2&lt;/font&gt;&lt;/b&gt;" style="sketch=0;points=[[0,0,0],[0.25,0,0],[0.5,0,0],[0.75,0,0],[1,0,0],[0,1,0],[0.25,1,0],[0.5,1,0],[0.75,1,0],[1,1,0],[0,0.25,0],[0,0.5,0],[0,0.75,0],[1,0.25,0],[1,0.5,0],[1,0.75,0]];outlineConnect=0;fontColor=#232F3E;fillColor=#ED7100;strokeColor=#ffffff;dashed=0;verticalLabelPosition=bottom;verticalAlign=top;align=center;html=1;fontSize=12;fontStyle=0;aspect=fixed;shape=mxgraph.aws4.resourceIcon;resIcon=mxgraph.aws4.ec2;" parent="cxao4V9BfdAUneyTuSwW-36" vertex="1">
          <mxGeometry x="48" y="120.38999999999999" width="78" height="78" as="geometry" />
        </mxCell>
        <mxCell id="afPDVhEbnItVDCZ8cqZr-29" value="&lt;h5 style=&quot;font-size: 12px;&quot;&gt;&lt;font style=&quot;font-size: 12px;&quot;&gt;&lt;font style=&quot;font-size: 12px;&quot;&gt;Availability Zone&lt;br style=&quot;font-size: 12px;&quot;&gt;&lt;/font&gt;&lt;font style=&quot;font-size: 12px;&quot;&gt;(ap-northeast-2a)&lt;/font&gt;&lt;/font&gt;&lt;/h5&gt;" style="text;strokeColor=none;fillColor=none;html=1;fontSize=12;fontStyle=1;verticalAlign=middle;align=right;fontColor=#147EBA;" parent="cxao4V9BfdAUneyTuSwW-36" vertex="1">
          <mxGeometry x="185" y="50.00000000000001" width="137" height="40" as="geometry" />
        </mxCell>
        <mxCell id="aJSuJoHOSdvCvk8-8lIr-3" value="" style="fillColor=none;strokeColor=#147EBA;dashed=1;verticalAlign=top;fontStyle=0;fontColor=#147EBA;whiteSpace=wrap;html=1;" parent="cxao4V9BfdAUneyTuSwW-36" vertex="1">
          <mxGeometry x="370" y="50" width="310" height="266.73" as="geometry" />
        </mxCell>
        <mxCell id="afPDVhEbnItVDCZ8cqZr-30" value="&lt;h5 style=&quot;font-size: 12px;&quot;&gt;&lt;font color=&quot;#147eba&quot; style=&quot;font-size: 12px;&quot;&gt;&lt;font style=&quot;font-size: 12px;&quot;&gt;Availability Zone&lt;br style=&quot;font-size: 12px;&quot;&gt;&lt;/font&gt;&lt;font style=&quot;font-size: 12px;&quot;&gt;(ap-northeast-2c)&lt;/font&gt;&lt;/font&gt;&lt;/h5&gt;" style="text;strokeColor=none;fillColor=none;html=1;fontSize=12;fontStyle=1;verticalAlign=middle;align=right;" parent="cxao4V9BfdAUneyTuSwW-36" vertex="1">
          <mxGeometry x="530" y="50" width="140" height="40" as="geometry" />
        </mxCell>
        <mxCell id="afPDVhEbnItVDCZ8cqZr-26" value="&lt;font color=&quot;#cc0066&quot; style=&quot;font-size: 25px;&quot;&gt;WAS&lt;/font&gt;" style="text;strokeColor=none;fillColor=none;html=1;fontSize=24;fontStyle=1;verticalAlign=middle;align=center;" parent="cxao4V9BfdAUneyTuSwW-36" vertex="1">
          <mxGeometry x="370" y="50" width="100" height="40" as="geometry" />
        </mxCell>
        <mxCell id="cxao4V9BfdAUneyTuSwW-11" value="&lt;font style=&quot;font-size: 20px;&quot;&gt;&lt;b&gt;Application&lt;/b&gt;&lt;/font&gt;&lt;div style=&quot;font-size: 20px;&quot;&gt;&lt;font style=&quot;font-size: 20px;&quot;&gt;&lt;b&gt;Load Balancer&lt;/b&gt;&lt;/font&gt;&lt;/div&gt;" style="sketch=0;outlineConnect=0;fontColor=#232F3E;gradientColor=none;fillColor=#8C4FFF;strokeColor=none;dashed=0;verticalLabelPosition=bottom;verticalAlign=top;align=center;html=1;fontSize=12;fontStyle=0;aspect=fixed;pointerEvents=1;shape=mxgraph.aws4.application_load_balancer;" parent="cxao4V9BfdAUneyTuSwW-36" vertex="1">
          <mxGeometry x="322" y="370" width="70" height="70" as="geometry" />
        </mxCell>
        <mxCell id="afPDVhEbnItVDCZ8cqZr-19" value="" style="rounded=1;whiteSpace=wrap;html=1;strokeColor=#E02DE0;strokeWidth=3;" parent="cxao4V9BfdAUneyTuSwW-36" vertex="1">
          <mxGeometry x="381.5" y="101.46000000000001" width="290" height="202" as="geometry" />
        </mxCell>
        <mxCell id="cxao4V9BfdAUneyTuSwW-12" value="&lt;font style=&quot;font-size: 20px;&quot;&gt;&lt;b style=&quot;&quot;&gt;Internet&lt;/b&gt;&lt;/font&gt;&lt;div style=&quot;font-size: 20px;&quot;&gt;&lt;font style=&quot;font-size: 20px;&quot;&gt;&lt;b style=&quot;&quot;&gt;Gateway&lt;/b&gt;&lt;/font&gt;&lt;/div&gt;" style="sketch=0;outlineConnect=0;fontColor=#232F3E;gradientColor=none;fillColor=#8C4FFF;strokeColor=none;dashed=0;verticalLabelPosition=bottom;verticalAlign=top;align=center;html=1;fontSize=12;fontStyle=0;aspect=fixed;pointerEvents=1;shape=mxgraph.aws4.internet_gateway;" parent="cxao4V9BfdAUneyTuSwW-36" vertex="1">
          <mxGeometry x="-22" y="370" width="70" height="70" as="geometry" />
        </mxCell>
        <mxCell id="aJSuJoHOSdvCvk8-8lIr-14" value="" style="edgeStyle=orthogonalEdgeStyle;html=1;endArrow=block;elbow=vertical;startArrow=block;startFill=1;endFill=1;strokeColor=#545B64;rounded=0;strokeWidth=3;" parent="cxao4V9BfdAUneyTuSwW-36" source="afPDVhEbnItVDCZ8cqZr-18" target="cxao4V9BfdAUneyTuSwW-11" edge="1">
          <mxGeometry width="100" relative="1" as="geometry">
            <mxPoint x="-130" y="520" as="sourcePoint" />
            <mxPoint x="-30" y="520" as="targetPoint" />
          </mxGeometry>
        </mxCell>
        <mxCell id="aJSuJoHOSdvCvk8-8lIr-15" value="" style="edgeStyle=orthogonalEdgeStyle;html=1;endArrow=block;elbow=vertical;startArrow=block;startFill=1;endFill=1;strokeColor=#545B64;rounded=0;strokeWidth=3;" parent="cxao4V9BfdAUneyTuSwW-36" source="afPDVhEbnItVDCZ8cqZr-19" target="cxao4V9BfdAUneyTuSwW-11" edge="1">
          <mxGeometry width="100" relative="1" as="geometry">
            <mxPoint x="187" y="313" as="sourcePoint" />
            <mxPoint x="362" y="380" as="targetPoint" />
          </mxGeometry>
        </mxCell>
        <mxCell id="afPDVhEbnItVDCZ8cqZr-2" value="Socket.io" style="shape=image;verticalLabelPosition=bottom;labelBackgroundColor=none;verticalAlign=top;aspect=fixed;imageAspect=0;image=https://socket.io/images/logo.svg;fontStyle=1;fontSize=20;" parent="cxao4V9BfdAUneyTuSwW-36" vertex="1">
          <mxGeometry x="501.5" y="220" width="50" height="50" as="geometry" />
        </mxCell>
        <mxCell id="aJSuJoHOSdvCvk8-8lIr-17" value="" style="edgeStyle=orthogonalEdgeStyle;html=1;endArrow=block;elbow=vertical;startArrow=block;startFill=1;endFill=1;strokeColor=#545B64;rounded=0;fontSize=11;strokeWidth=3;" parent="cxao4V9BfdAUneyTuSwW-36" source="cxao4V9BfdAUneyTuSwW-12" target="cxao4V9BfdAUneyTuSwW-11" edge="1">
          <mxGeometry width="100" relative="1" as="geometry">
            <mxPoint x="-90" y="520" as="sourcePoint" />
            <mxPoint x="10" y="520" as="targetPoint" />
          </mxGeometry>
        </mxCell>
        <mxCell id="hLQwI2Z10zFJn12-wHvc-1" value="openvidu&#xa;deployment" style="shape=image;verticalLabelPosition=bottom;labelBackgroundColor=default;verticalAlign=top;aspect=fixed;imageAspect=0;image=https://canada1.discourse-cdn.com/free1/uploads/openvidu/original/1X/ee7880b148202978d80991820064f9c39ada3530.png;fontSize=20;fontStyle=1" vertex="1" parent="cxao4V9BfdAUneyTuSwW-36">
          <mxGeometry x="220.12" y="123.85999999999999" width="66.75" height="58.81" as="geometry" />
        </mxCell>
        <mxCell id="hLQwI2Z10zFJn12-wHvc-2" value="" style="edgeStyle=orthogonalEdgeStyle;html=1;endArrow=block;elbow=vertical;startArrow=block;startFill=1;endFill=1;strokeColor=#545B64;rounded=0;strokeWidth=3;" edge="1" parent="cxao4V9BfdAUneyTuSwW-36" source="hLQwI2Z10zFJn12-wHvc-1">
          <mxGeometry width="100" relative="1" as="geometry">
            <mxPoint x="322" y="220" as="sourcePoint" />
            <mxPoint x="400" y="153.25" as="targetPoint" />
          </mxGeometry>
        </mxCell>
        <mxCell id="cxao4V9BfdAUneyTuSwW-1" value="&lt;font size=&quot;1&quot; style=&quot;&quot;&gt;&lt;b style=&quot;font-size: 20px;&quot;&gt;EC2&lt;/b&gt;&lt;/font&gt;" style="sketch=0;points=[[0,0,0],[0.25,0,0],[0.5,0,0],[0.75,0,0],[1,0,0],[0,1,0],[0.25,1,0],[0.5,1,0],[0.75,1,0],[1,1,0],[0,0.25,0],[0,0.5,0],[0,0.75,0],[1,0.25,0],[1,0.5,0],[1,0.75,0]];outlineConnect=0;fontColor=#232F3E;fillColor=#ED7100;strokeColor=#ffffff;dashed=0;verticalLabelPosition=bottom;verticalAlign=top;align=center;html=1;fontSize=12;fontStyle=0;aspect=fixed;shape=mxgraph.aws4.resourceIcon;resIcon=mxgraph.aws4.ec2;" parent="cxao4V9BfdAUneyTuSwW-36" vertex="1">
          <mxGeometry x="580" y="114.25999999999999" width="78" height="78" as="geometry" />
        </mxCell>
        <mxCell id="afPDVhEbnItVDCZ8cqZr-27" value="WebRTC" style="shape=image;verticalLabelPosition=bottom;labelBackgroundColor=default;verticalAlign=top;aspect=fixed;imageAspect=0;image=data:image/png,iVBORw0KGgoAAAANSUhEUgAAAg4AAAIACAMAAADdbxR7AAAABGdBTUEAALGPC/xhBQAAAAFzUkdCAK7OHOkAAAMAUExURUdwTL4AAACZOACIy+FOAACVYwCZOIOoRgCUmOtuAAiaN78AAL4AAPrLAACIy/1lAPzLAOI+APJTAACJzP3LAACIzL8AAPxkAACZOACYNwCYOQCIzACYOACYOACMzfxlAL8AAP/MAP3LAPxkAL4AAPzLAACIywCXN/9lAP/MAP/LAACJzACZOL4AAL0AAACJzL8AAACIy74AAACJzP1mAACIy78AAP9mAPzLAP3LAP7MAP9lAPxkAACZOf9mAACYOP9lAP/MAP/MAPxlAACYOP5mAP1lAACYOACJy//MAACHy78AAP/MAPxkAP/KAL8AAACHywCJzACJzP9mAP7MAP5lAL4AAP3LAACYOP9mAL4AAL0AAL4AAACZOP/MAP/MAP3MAP/MAACXOP9lAP3LAACJzf9lAACIzP5lAACIzL8AAACJzL8AAL4AAKtpNwx/Fb8AAP9mAACZOf/MAACJzP///w91BBzTBmsAAfwABwxeh/D4/N58fP/icCurW4Dmc7N8ffL3+P18gP/27A96C/+AK/7+/P9sCgWNJhvGEQGGxxrMCw20IQR+uiB9En3D5v/699oAAnIBAgqAFP95HvMCBf/EnQ93CLUAAAGVMv+6i//hzP+MPv9xEgWeOf/u4AiGHckAAcQAAAipKzLDEv+dXP+we/+UTAxgi//Nrt3IBf/s1vgABv/XvO4ABUJ7EApkkY8AAS9khp8AAPBrArfdwM3n0Q1tn1O6eez27j5Nc/JjBG3Gjf/RF5YAAP/sn/+EMv/VKocAAWB5D75vCMbGCOQABAt0q30AAfpmATaLLEw+XN/v4J/T7P+pcP+laIrBD9Xs9yKZ02O34KTDDF2iVagAAEqr26fUrZvFlmrAEnt2De4cBLFqNIl1DFFrcfR/AVTBEhZmjHEQGfaVAHKua4W5gP/eWO9FA4trTedoCvq0AE2ZRF8pPtJsBRijTIvRpf/le3ZrWf1PVP14fLXd8OFrBPweJP1wdMx8fP7icHvWhv/AX45xIf/SkymdR1dP9d0AAABwdFJOUwD5J90HC1gBBAMXiOr9+b72DBNevnF4+5fpSbbbpxH1ZiDu0N7Z1PkZMwucebkaGFe/rESgykUs58yEQuU5ZvR0P3fctbCTh4xo5z1a7E6a8FB+I6SMI5nDWcTUy2kUGrEozzePLEsigTMtrzk13P2y033CAAAboklEQVR42uyd3Utc6R3H56ByRuYFXXVuBFEZBZXRGUVR7/QqvuCoSASVxAGDmGzggXOCI9vS0oVALcuSQCB3JaE37UogTWFhy3bZQNNACXSTJULpRZddaGHpRdiWvlx14svM0Z1xzjlznuf5nfN8P3/COR9+z+/tOScUAgV0Hc9AZRoH59KJSHZ4bT0ZjWoaY5oWjSbX14azkUR6bhB2qELzu53ZVLIgwEVoyVS282YznlaQqZ9LDCeZA5LDibl6PLcgBoV0ZENjLtDWImmEiUAlijcTa6wWtLXEdaQTwUgax7JR5gHR7FgjniZcsBoxhxjhXy5HPHThxIjIZTxXX5YR6RTjQiqNYsNvDHofGKwhYhBP2Edcz2qMK1r2Op6yT8rKsRQTQGoOj9oHzK0xQaTexdMmzs0UE0jqJp445cpymAlmGHUnVZojGhOOFsFAgyKNnVEmhWgnWpX0koYNJo0NVJ20qI8wmWgRNCopFZdJJpl1dCHIpJBZRgAECBpcX2ckWEcGIR89oTEiaCgxZDOYYoRIvYM3IrW8jDJSJNG1lnhQdGqMGFonXousZkOWESSLCkNO2rDBSLKGBEJGfZlkREliyim+ERllZIliL0YwaY0RRkvjDYmkkxEHBYZAEozBB3Dal2Y+IIEXJcaGCPMFEbwqEfjEBsQH5A3IH1BTwAfYYA/0H7gy5i8bmDaGd8aP65rPdGBRbMxxYzDKfEcSn4LgRPM68yEbuLTHp/00zHzJMBZqFW84oB2FoqJyeYEbWp5zOepbHVgU6aTH1G8wH7OGdVpviTBfg+kmEgcr2J70kHeiftchie6D8h2HM90HvEavbEizAJDGi1R3VFGm2sTlLG8YZoEgizeJqsICdh88oDkZFB2SaEYp34DCLMvbWYUWHB00zC6QR6L5gDwSvWoeNK4HS4cNbEbVQicLGOhN1kB9Mmg6rONPvQgOCA8IDhV6UQgPLtEDGBxwjRfBAeHBC9IskCB7cHdWbARThzW8WjQk0ZqskVRQdcDkwgWXWWDBN6udEwmuDriE47zKjAZXhyhqTVSZFrA1iUQSySQSyQpgS84ZiWDrgMGFMzaCrQM6kzgrcFrgrKgArlw4YT3oOmzgHeOswGnhhmCuQaG2QA8KnSgP5hVa8HWI4jq3XcaYAuBTtHZTh4gKOmDKjZYkGpPOaVbBBqYheUDqgOTBceqQUEMH9KnRdUDnwSmNUTV0iOLTHxhYYGzhkLQqOmCB1g4JVXRALmmHYVV0wEeq7ZBURYd1vGsb40xVbGAaLmOhsEBpgRY12tRu6VRHhzTedlUi6uigcKUZ3h5Zalm+NHCjPZMZ7e0dHc1k2m8MXGprWdoZ0pWsM9WsNMPbS8sDmbp9szLx3vaBtpETK9bU0SGlmAk7bQOjcdMus5lLLdv6ujo6lGs86P1Xrnblcn19ua6rV/oDU4p2jCxnFk3nzD5+fV8VHZIlCa70zU+vbrb2jMcMK7HxntbN1cn5qS4fi6Ffa8vETZfczeefP36tRh/q7bO6ujC90tNkVCPWszk5n/OfFOGlgVnTPR/kj7j79IkCQWJhsrXbcELTxNb8VR+5MDKwaNbEx/kizwNtxIM7jw6+NdzQszLjCyV2anWhwK/zVp4+CaQKD+88O9gr8I3hlp6tKdqb2B1to6YHfJI/y93H94MXFvZOcK/D24NjZaGfqgzXBuKmyUOHo0MjSHGh6EKBvxq1UTCCYIzQR9pNryijQyFE/C4YIeKMCwV+Y9RM91aOWPrY0mt6xx/z5fH/mfHgOF/wWIcCrfP9hGSoM00BOhTSyvtBCgxH/Nbwhu5JGqWG7rEMF+ngYyEe3rm3t8dRB8OIrfTJl2Gp1zQF6uDTI+PhnYO9Pc46vD0zpiRXE+2mKViHQlIZHBm8yh1KQkiMEB2X4hxsKF9ZnBHidVBk8FwHw9jsk5U0LJqmFB18lUJUyBm86juUYaVLgg3bGdOUpkM+75MT48HFMnDRwWiaFF12htvivGw4N7OoxHMfBIgHz/aq8Y3Bg/F5oXfDr42a/Pg4bw/yAeLCpOGEbw0+tIo7MXSOoaG07+D3AFH1nDjC4EXTtKBFmaF2ky952xCebD2zI8PegcGPCSE1xsgsZxveLsfZhWqJYS808NXBiPEPEPryvklIB6I9iDt7NrlncIV3BtHRbvLn67wT6B0YDx7ZtWHvL3x1MLrnuVYUdSY5HfKPfVhQiNLBMFb49SCW4iJsMP/hTAdiFcazPQf8nbsOxkQXr/pyX4gN1WZYZRIIOj48fOTEBm8HmpUOjAUujchLpiA+yTv24bXPKgqePWohFUbDDVE2mH/IO+eJvyoK3k3J8wmE1+u1HaOmOO761AfHNhwYgmi94l8bXOlAYITxzKkNvNsO1ks6XiaUQ70ibXBaadIoOB0mkYLqzNKQ07uW9VCdUBscV5oUfHBjg4g6szTTmvKpDS5KC+k+PLznwgYxhUXRB28Kzo5ewTa4Ki3k+uDOBlGFhZc+iM0ia8glJeaTLm24Z4glVvsEo0GCDS5zSWk+uLRBZCZ54kOt8SHcLsEGt7mkpP6DWxuEZpKe5JP6gAwbbG7Plue1b2zgtDfL0Yc2KTaY+3dr8EH0POuRWxsODAk01dB/WDIl8XUNOgieb7q2QXzqcNyPct2f3InL0qGG5CGff067My0xdTjuV7tciOmok2VDTclDPv+U8NRKbupwPM9yNe8OZwS+/5eHr159aOHHNfHfH4jiJ27453++++7fwrsOJVbd3NEStu5y+OKL27eU4/1fvvlclg8zZNPIwxfv3VJQhmN+/uZTKTrEHJebQ4siZHj1xS21uf2ZlBAx7vBLUrqIxOFQdRmOhZARIVrrqfWfXr6AC8dZxN8k+LBFrONw+B5EOOUzCT44mGaF+a84vFI3gSzDR+IPjHHb27T6MncbPoQCZxKI98VnlJt2uw/X4rBBeALxOdXuQ3gUNkiID8LPi6YuGlXFId5+GR8+El9t6hQaUC9RUxCpL+zsTnJfgELzqQLC+w/d1auLHSQO0tJJ4enDStUicxRHhULHRbVZVgvv4IDWdOVs8rbwanPi4lWYMO8NqJdoRpIKDzNyi0wEhwvjg/DsYfyizckG7t8QReZwIW+Eh4dJdKAIz7LEX7y4KjE4/Atv/GLEjy62JC694Kyowg/Fh4cuWWWF+RLvm1xtYazK6jmYr/C+q3UmJexVd8lpSKJBbYNPqYSHEf7rssgkCeaSRlPZSZaA78pimElvrFlgutyewz50UFSH8TK3Lvjvy6LOJFlplp1c6HXQQVkdJnQJiSR0oKqD0SchkYQOZHU4X2t2xKGDwjo09YvuSEIHwjqcTybboYPSOkxIOCugA1kdjC7xZwV0oKvDtPizAjrQ1cF6WjTEoYPiOhg5wT0o6EBah2nx35CEDnR1sJwWddBBeR1ixa2HbRM6KK9D6Xp/C3SADqXr3APQAToY46fXd3uhA3QoTrmHTOgAHYql5hJ0gA4FNgX/uQI6kNZhXBc5sIAOxHU4mWrOQgfoUOw8iMskoQNtHVZFzq+gA3UdWgX/Shc6kNahWxfZk4QOxHU4yiUz0AE6HLMgcLoNHcjrMB0KhePQAToUh5rbJnSADsXSYgQ6QIfTNrXA3RfoQF6HWL3ItgN0IK6DkRM4z4QO5HWYEtmFgg7UdZgX850P6OAPHaZFNiWhA3UdJsXtzUIH+jqsiuxRQwfqOmxCB+hgbUvOQgfoULq3uwgdoMMpPdABOlh1iEMH6FCaYSE6QAfoAB3KLs+isoAOJZrQd4AO1sMCOkAHiw6YWUAHS6GJiSZ0sOiAfQfoYGlSYxsKOlh0wK4kdLAMuLFJDR0s17BwzwI6FNnCLSzoYF2dxR1N6FBkBje4ocOZDzzg+w7Q4ZQ+fP0FOpTox7ehoINl3QFfjoMOlqYkvisJHSxNSXx1FjpYrmjim9TQwXKfH1+shw5FcvifBXQoLc424m830OFMYYF/YUGH4nhb6E92oQNtHWbwH03ocGZiUUDHX3ahQzGTxD+4ocMRrad/Xa6DDtDhuCcpsvMAHSjrMHVigz4CHaBDU/9pdGiIQwflddgMFWmHDsrrMFPSoQU6KK9DrqRDRxw6KK5DTygk+rSADnR12LLq0AIdFNdhyqqDmNMCOpDVYbzRqoOYr35AB7I6nDkrBO1TQweyOvSd1SFcBx0U1qFHP6tDaBk6KKzD5Dkb9KF96KCsDrGu0HnaoYOyOmx+zwYRySR0IKrDwvd10Eehg6I6nGs6iOpMQgeaOkyWsSEUnoUOSurQdKWcDvy/9AAdSOqwWtaGUMMsdFBRh1x5HbiHB+hAUYfNCjZwDw/QgaIOU5V04B0eoANBHVor2sB7kAUdCOpQOTjw7j1AB3o6bF5gA+fWJHSoyv8kLzqcYwc6SOVHX/2KTnDg/LEH6FBdh93dX/xe4GQ7d7EN+tAidJCrQ0GIL6VOK0QVm9DBng67uz/9k5hRZn9VHcKj0EG6DgUhRESImVB1rsWhg3wdRBwZE402dNCXoQMFHbgnlbG+kB3CvdCBhA67u1/FpOaRJ82HOHSgocPuz/jllD39NnXgVV1AB8c6cDwxpuzaENIz0IGKDru7fxa5A1UWLs2oD/7P3tmFRnmlcfwwnZl3ZkDTRMskY2KoQSd1A7I0EtdMJlnztS4b2W42qBdpt0lNc7XwDuwM5EKQfG0SDUJDwkYTC2lMsiKKdGOLvRB0WbKIXgm2orJCC0pZSy/2eidGYz7m4z3nPc/5eOf5X3k1c8j783n+z8d55xQ+bhYcEkP/lJkqgF5jf70HcWDDITHynaSqgkC9a/LM1R7EgRWHpIPgPNk6REcD8fG1D//q6UEcbOCQGOHalNrup8SB7OO4ODl8vQdxsIdDIvEfjrOKjwi1+HUflhMF4mAXB34JY8uvCYN42ckz8z2IAwccEiOcKozDLDQQ3zv8bAPiwAEHTj3KPxpMOBDjF9xsA+LAAwcuBuJXewmjfLbfATJ8tQdx4IhD4ostEmzk6r2s/RxpQBw44GCXh10fExvauYeLiUQcuOGQGPq78KJiTfthDzcaEAcuONji4TCxqX3MF/XO9PQgDgA42Cg4DxHb+vQtTjQgDpxwYObhIOEgtnyxmQbEgRcOjDx8YvDAgezcz4UGxIEbDkw8HOVDAwsPqWhAHPjhwOAnP/ETXvLssFdTIA68caDm4aBB+MlHtQ4znJIGxIEnDomhLYJrinXzi3eGGXuRiAMMDjT9yS2HCW99sNUmDYgDXxysz7PePkL464TFBsT1HsRBCA5WV+4PvEcgtHMH3X4D4gCMQ8LS/sPudwmMjD8Ms5WYiAMMDlbaD9s/JFAy3v8tU4mJOMDgYKG8OOgngNq3g81GIg4gOCS+kGAi11ecW1lsJOIAg0NmO7n7YwKuE/sZbCTiAIRDpvs4R/cSAfKlCxBnehAH0Tiktw+7jhBB+vSX1MYBcQDCIZ192P4RESZj2+8pjQPiAIVDyu7D24f9RKR2/mYrXapAHKBwGNk83PzTu0S0TuygShWIAxQOm9LFgd8ZRLyMD/ZQpArEAQyH9eliy9EPiRz5tr1lOVUgDnA4rE0X298j8rQKxFXEQR4Ob9LF7iMGkSrftj1ZG1CIAzAOiZVm1IFDe4l0Ge/vGJ5HHKTisNyM2qUCDMvy//naPOIgE4fEd7sOKgIDIVHTfP7kKeIgMTrMBFSBgeS3mMt6lCVEIA5AOIwMzcRizcrg0G2+0tKza7j+IhqHkdPTsaTCLkVoKC813+hGeiIQBwAclgPDikoUwaHN3KBHqX0E4sAbh6GVwPBKLvWCw2s9f/bk6TziAInDehaUCQ9NZhrdePTk2lPEAQSHTSyoEh7Kg2YmLT36OQnFPOLAD4eR0zMpWFAkPLSZVnTj0bOfEQf7OAylQ0GR8JBfalpVLz5uGziMDJ0+PRPLrELpONSZiAMsDiNDyyBMxywoLLs16Y8gDhz1zczMzOnXSv7bGgVvVCEZh+Mm4sATh5g9FXnk4pCHOKiEQ8wrlYZWE3FQCodjGlSZiIMwHKTWmu4WGhwu4OPOpq9s49CsiZE0zXP4uOFxKPLJw6GRCocFfNzZdNI2DrGQNBoKglQ4TOLjzqKBafs4yBtcRKloMGfxeWfRHfs0xGo9OjQdkhrD551FDzjgIK31QJkrsLQQ4CQlZgvKXIHmIat1eBHTOFs00uJwHp94Rv0jxkVyagt3KS0O5iV85OC5QtbWQzU1DeZdfOQZ9PU0HxyK1Z9XrGgQxxagAwuZc4syehzMi/jQwYNDLNYuY4OagQZzEGvNtGUFt+AQa1B+fPVac/jc02iRGw2xIkML67CscXzwKXXqJD8cZJiHMjYcBrHYhCwyZZmH/CAbDmY/Vhcp9BNPGiR0HqpNVp0/i08fqB8pr/NQx4yDOYc8bKRhmi8OMeFji0p2HMzzmC9gaYjVaOIkX/kHbD+A+QYpXtIdtIODOYV7k6vNyK/40yDcS1aZNjWLCWMlUbwAoEH47ZvjdnEwpybRUf5lESI0LK/ACO5Ldpv2NTbZizAAKaBPYbGmRTm7kLMh4s5PJ2NwElxa5JmcNDg3efnCQI65x8UH30CyIH6dut7kqqmx/s1SIpUs3j/JWS+mY/AS+94Pf9AE100VfP+P8fjfYhpKbKXZCk+DAptTyzDE43/VEQexGzCdAnA4pwQMmuLQIRSHLngaxtSAIR7/XEccijXrQqm9hP/g3/G41jjU6jLetqrLUmGYeIPDZzriIHbE3Q1Ow5SsXsTA2sigLw5C25JN4DjMSoLh2w0w6IqD0O3ZSnAcFhSBIR7v0xKHGkfhMHhWERgQB4i7/Opfzzn17Wg87hwcQo7CYVwCDBOIg+yBphpvqD31Q5rIoC8OXifhIPQ9MV//kDYyIA5K4DApFoaMQhyke4dLysCAOMjHoV8UDN9nhQGtpHwcxKw63Pm+Lx5HHNRvQ51TBwZsQ0nHYUwEDBNxi/oMcQB69YtF3QOH4b5lGHCEJX3ADbzqsJiEwfE4CB1wRyFpgB1fLd6nYUHXbaiY0B+9AV2Om4WFgVa4HAf4KiCZ46uBxR/j9NJyk1rs6mwVJA5Q46vLycgwkSM4iL3RX6Df+OryeXM0ziItb2GJ/Y0ToxQOh0kgGEzzSu7gIPjnNMvgcAB4b9TCzZeffIsJBy0LC8Evh4IbWtyEgsE0H7PQgCMLqZv1vMdXC/2rH32bBQdsSkq9hsV1fDUw3r/mo5dYcNCzCyX4PaNgd3bHuMIwtv7D+7DtAKNyKBzuwsFgMlWa+HoHK5Vmi+Ljq4HJsc0ffgXrTL2WZznd1D2bCgbTfEhPwwRuSkosLWb5wDCV+tNvY2Gh14h7ARCGpCZyo7AI+0TjADPEsr/q0HtxKsPnj+IAC0Z+EC85BwoDi5dEJymxTT1uE4bBLJ//GFvUOvUl7aw69N4dzPr5z3PDSQbE4wCxEGVj1eHCvUEr39CXC9ahQzwNxA2w8jAJDAO9ecA3EEtsRDHe1L0wa/kbHqN10MY8sN3UvTRL8RVf5kLXwSMDB/6vKb8IDQN15wG7DtanWPW8caBfdTg3R/sdt5y/GFchBQfuY4sxeBgoxxY4sJBYat6Dh4Gy1NRz9cWQgwPvPjXVqsPLTXkWXcEOtRbZgmZ8xQwDVbbAXCExW8yJgIEqW2CuoMsWERnjq9VrE+DZAnOFxGzRKwQGimyBuULiDoyl8dVCP4dvGsUelPpXNS2Mr8b7uXzTQycvzbbLxIHjxmS2m7oprk0w6ssJ584raj0yccjnNuW+KQoGy2YSZ9v04vaCyYsM1yZAzSS+TlKmmTwnDAaLZhKNpMQlmDGmaxOseuzUxRevbBw4dSbvCoTBUmdSz46kTzYOBp9a8zLTtQlm3cIqE0hc3jia8qYuGAymeaPPiVVmkUc+Dm4eS1GzLHdoAMPDhJZVZgVRQDxaUQssd2hstaL6MDgAzTXth4eNqw6Wr00AhQcMDlLdw5xoGLJ0qjE42AkPtouLcbY7NFDhAcsKW7Wm7dfI9TJfm2DXUp/Deg6KBIckDzZbk+fFw5CpNYkNSbuTiyCPVQfGTXnukws9pxWGOjjY3JK7JAOGtINN3ImzrQI7Vy76pcCQdu8B9xzk9qIu2tyUZ9bzPscUmQG1cPDbcJOTcmBIvTWJPlIFNylJow55BbWhGg7Av7QKpP9OOMFH1rqUo4G4y3TkYUNvsg+HFbx6UU5IF3q2HHxERdVpny4+x1ShRnUhTw+xqgBSeYuOPFzBH1AFCg9dOuKwuhiFg0zeatORh9sTWGOifdhgH9A4QNiHiKb2YQInVxDq1LH7sDSKHQeVr+GI1v+07DgUB4j60nF4UekqQhsJ1K2u1I6GPDepCetGQzhEtJBbt/KiviB5ai8WFVCrcnoNNyOtL09dgWNMqHKzXiMaWqpenVorHpoNgjwAqLRz1fQ0a9Rw0IkGQlp1aUeVVq8xwYXazK30ooGQqoh2NOjDQ4mP6CYt4sN6GoihBw+F+tGQ5EF9/9DSualp0oy+AcpPlulSU6zloQJritzsP9S3pjx1O/YboPqTjQrTUFae5tTeWoU7016isfzqrkc15qc9dY2y86yiGqK3ooruP7T5MxzaVazoRNtFdFeXiuvVwWjmQ3saVKShIUD0V6t6hjLSmW1Ir2KB0ewjTpBbtQWIvAILpw4pZihrQ8QhMtQyEBltwxoD0aESDR0u4hxVqZMwItVWD+1TqENZ6CFOkluVirOxgOLUIUUqzqIQcZq6VBhplUbpOryBEqwooFrW8h1lXiu17fFKDxBFXoM4UtVyZ5wtx1n+rgHJM++SAHGq8tsklhiVBYynDknsURaHiJNVJWvpvqya/dCeCkk9iHCzhzhbRpeMjNES9ds6tBxLWeIizpe7rlQwDMG2AtunrjkmvPFUQ3JDBW0igQhWtvI4tC8ktEvZ4dR6IpXKhQGxxAeGlaJTmKcs9vpITqm8qVRIZKjieWiftwNhgEoZddB9ytK2cu5OOAS+CXEsZJCclDsKOdmK1OWDlEauEsC7/+GSGpK7MjorYXJGsLHLD3VmEqgAMhHFFQGS48oHCBH1deXAGNfwDxHJwGAQFCFV3TxbU5G2ThF/Vo+3gSMR4QavB0FY/d/Gi4hIU6df2Kl5ERFuaA8QjAzr1RpttOcjgnl1VUL/qIZBPKFCmz6iuDCEcSFNqVHdnceGRLCsqStf0qld7SWMSxFFJe0ujAoZbbu7s66RLnFE8rqr8yWfO+At7KBKHOGOQi+iYLXc6Iw25UWWsg4qyyrrqgtUoHj5wfpc3uaG4qyz8HBxQ7PX5cOHTJ07Wquj3ZWNeWWRtVszwZb6vMbKtmhXVb6S8S1Q460oLGn4/5JQE4a9TJKLrIQOmy3XaJFAOeBkEdTQCNbQEBLkHDqOZudg5eJiYuLiYuUYGmkAAEXdk5PAuNc0AAAAAElFTkSuQmCC;fontStyle=1;fontSize=20;strokeWidth=0;" parent="cxao4V9BfdAUneyTuSwW-36" vertex="1">
          <mxGeometry x="126" y="208" width="63.7" height="62" as="geometry" />
        </mxCell>
        <mxCell id="hLQwI2Z10zFJn12-wHvc-3" value="Express.js" style="shape=image;verticalLabelPosition=bottom;labelBackgroundColor=default;verticalAlign=top;aspect=fixed;imageAspect=0;image=https://velog.velcdn.com/images/jwo0o0/post/696078b2-a690-4e62-885d-91a736b8a522/image.png;fontSize=20;fontStyle=1;imageBorder=default;" vertex="1" parent="cxao4V9BfdAUneyTuSwW-36">
          <mxGeometry x="384.35" y="129.42999999999998" width="147.5" height="53.24" as="geometry" />
        </mxCell>
        <mxCell id="aJSuJoHOSdvCvk8-8lIr-22" style="edgeStyle=orthogonalEdgeStyle;rounded=0;orthogonalLoop=1;jettySize=auto;html=1;startArrow=classic;startFill=1;strokeWidth=3;" parent="cxao4V9BfdAUneyTuSwW-18" source="cxao4V9BfdAUneyTuSwW-8" target="cxao4V9BfdAUneyTuSwW-12" edge="1">
          <mxGeometry relative="1" as="geometry" />
        </mxCell>
        <mxCell id="afPDVhEbnItVDCZ8cqZr-46" value="" style="shape=image;verticalLabelPosition=bottom;labelBackgroundColor=default;verticalAlign=top;aspect=fixed;imageAspect=0;image=https://raw.githubusercontent.com/jaenam615/jaenam615.github.io/main/assets/img/mongo/atlas.png;labelBorderColor=default;imageBorder=default;" parent="1" vertex="1">
          <mxGeometry x="687.72" y="638" width="240.76" height="126.14" as="geometry" />
        </mxCell>
        <mxCell id="afPDVhEbnItVDCZ8cqZr-48" style="edgeStyle=orthogonalEdgeStyle;rounded=0;orthogonalLoop=1;jettySize=auto;html=1;startArrow=classic;startFill=1;strokeWidth=3;strokeColor=#545B64;" parent="1" source="hLQwI2Z10zFJn12-wHvc-3" target="afPDVhEbnItVDCZ8cqZr-46" edge="1">
          <mxGeometry relative="1" as="geometry">
            <mxPoint x="961.0950000000003" y="50.2874800000001" as="targetPoint" />
            <mxPoint x="808.1049999999996" y="266.79999999999995" as="sourcePoint" />
            <Array as="points" />
          </mxGeometry>
        </mxCell>
        <mxCell id="aJSuJoHOSdvCvk8-8lIr-7" value="" style="strokeWidth=1;shadow=0;dashed=0;align=center;html=1;shape=mxgraph.mockup.containers.browserWindow;rSize=0;strokeColor=#666666;strokeColor2=#008cff;strokeColor3=#c4c4c4;mainText=,;recursiveResize=0;" parent="1" vertex="1">
          <mxGeometry x="10" y="638" width="420" height="210" as="geometry" />
        </mxCell>
        <mxCell id="aJSuJoHOSdvCvk8-8lIr-8" value="Motion Beat" style="strokeWidth=1;shadow=0;dashed=0;align=center;html=1;shape=mxgraph.mockup.containers.anchor;fontSize=17;fontColor=#666666;align=left;whiteSpace=wrap;" parent="aJSuJoHOSdvCvk8-8lIr-7" vertex="1">
          <mxGeometry x="60" y="12" width="110" height="26" as="geometry" />
        </mxCell>
        <mxCell id="aJSuJoHOSdvCvk8-8lIr-9" value="https://www.motionbe.at" style="strokeWidth=1;shadow=0;dashed=0;align=center;html=1;shape=mxgraph.mockup.containers.anchor;rSize=0;fontSize=17;fontColor=#666666;align=left;" parent="aJSuJoHOSdvCvk8-8lIr-7" vertex="1">
          <mxGeometry x="130" y="60" width="250" height="26" as="geometry" />
        </mxCell>
        <mxCell id="aJSuJoHOSdvCvk8-8lIr-18" value="openvidu-browser.js" style="shape=image;verticalLabelPosition=bottom;labelBackgroundColor=default;verticalAlign=top;aspect=fixed;imageAspect=0;image=https://canada1.discourse-cdn.com/free1/uploads/openvidu/original/1X/ee7880b148202978d80991820064f9c39ada3530.png;fontSize=16;fontStyle=1" parent="aJSuJoHOSdvCvk8-8lIr-7" vertex="1">
          <mxGeometry x="60" y="121.43" width="56.75" height="50" as="geometry" />
        </mxCell>
        <mxCell id="afPDVhEbnItVDCZ8cqZr-12" value="React" style="shape=image;verticalLabelPosition=bottom;labelBackgroundColor=default;verticalAlign=top;aspect=fixed;imageAspect=0;image=data:image/png,iVBORw0KGgoAAAANSUhEUgAAAcYAAAGWCAYAAADi7CPeAAAAGXRFWHRTb2Z0d2FyZQBBZG9iZSBJbWFnZVJlYWR5ccllPAAAAyJpVFh0WE1MOmNvbS5hZG9iZS54bXAAAAAAADw/eHBhY2tldCBiZWdpbj0i77u/IiBpZD0iVzVNME1wQ2VoaUh6cmVTek5UY3prYzlkIj8+IDx4OnhtcG1ldGEgeG1sbnM6eD0iYWRvYmU6bnM6bWV0YS8iIHg6eG1wdGs9IkFkb2JlIFhNUCBDb3JlIDUuMy1jMDExIDY2LjE0NTY2MSwgMjAxMi8wMi8wNi0xNDo1NjoyNyAgICAgICAgIj4gPHJkZjpSREYgeG1sbnM6cmRmPSJodHRwOi8vd3d3LnczLm9yZy8xOTk5LzAyLzIyLXJkZi1zeW50YXgtbnMjIj4gPHJkZjpEZXNjcmlwdGlvbiByZGY6YWJvdXQ9IiIgeG1sbnM6eG1wPSJodHRwOi8vbnMuYWRvYmUuY29tL3hhcC8xLjAvIiB4bWxuczp4bXBNTT0iaHR0cDovL25zLmFkb2JlLmNvbS94YXAvMS4wL21tLyIgeG1sbnM6c3RSZWY9Imh0dHA6Ly9ucy5hZG9iZS5jb20veGFwLzEuMC9zVHlwZS9SZXNvdXJjZVJlZiMiIHhtcDpDcmVhdG9yVG9vbD0iQWRvYmUgUGhvdG9zaG9wIENTNiAoV2luZG93cykiIHhtcE1NOkluc3RhbmNlSUQ9InhtcC5paWQ6REVCMEVERTY5MkYzMTFFNzlBQ0Q5ODhEOTY5QzMyQzIiIHhtcE1NOkRvY3VtZW50SUQ9InhtcC5kaWQ6REVCMEVERTc5MkYzMTFFNzlBQ0Q5ODhEOTY5QzMyQzIiPiA8eG1wTU06RGVyaXZlZEZyb20gc3RSZWY6aW5zdGFuY2VJRD0ieG1wLmlpZDpERUIwRURFNDkyRjMxMUU3OUFDRDk4OEQ5NjlDMzJDMiIgc3RSZWY6ZG9jdW1lbnRJRD0ieG1wLmRpZDpERUIwRURFNTkyRjMxMUU3OUFDRDk4OEQ5NjlDMzJDMiIvPiA8L3JkZjpEZXNjcmlwdGlvbj4gPC9yZGY6UkRGPiA8L3g6eG1wbWV0YT4gPD94cGFja2V0IGVuZD0iciI/PjIj8RQAAZzgSURBVHja7L0JnFzXVSd87vKW2qv3brVau2RJtmTJshw7jmM7ie2EbIQkkIUkkI8sMzCB7/tggCwDmfBBGJYAAX5AZiB8wwBJYIIJwSRxnDhx8CbvtiTLspbW1vtS29vuMue+qpYVx7HV1VWtXt61S11dXfXqvfvOPf/zP/cspOv1H4FkrJyhpAA3W4DN+18Nhb4heOLOL4JXnoY1l+1zujdevoum8z+lCL1WAeSFhnwgIRcq5UZSU6kBtNag9A8/PiUAhBBg+JPhT3wrHkqDRYlyGPUdRs7h81FO4BCn5H7O2EOc0iOcWzXf90AogZ9jYHELLNuOv69UqwHBw1iM4fEpfguJXw+kiL8DPw/csoAxC4SIwA8DsDk374JKJPEzBFKcxT8lfibEk7LxWKAJ+Pi7Ob8MfhenDAK/Bhrfa76D4Psir4I/NWQ7e0ErBV61AkpJYPH5OcDxexS+HoVhfL4UzyUMAoiiKH5u/m6GmROcErw+hfOngDbmi5D6M42vccuOn8efxfdH+L3m2iT+tJ00nHzkbnjq7i+Dk861TT56N+yA2fEz4JWmgZo5et6IAg82Xnk99G26HEaOHYThJ++L56IuWygsXf3moqA8ce4HPm8+O7hjP3QMboaDd30RmOWACHzYddu7YHZ0GI49+E0o9K6FoV3XQXFgPTyJslmdmYhl1nzfpv2vAcI4UG7DY1/9PJTGTkHflt2wdud+yHX3g18twyP/8nlIF7vxe65OFfrXbyOWvR9ne48EsgsfvaHSvYHUWfzJjRzTWEo0FSil6iVkGy8rfj/eEpRnlCEay3MJ5bjKKXg2o/c5lH2OM36AMip8vF5zH438mIdZPxLMZ2k8NxLlFAUE/7fi+x9JBey8ZNS/UKM8KxnGc2xnskZQjLhe9Pi7N3cmSq8NgydTsAIGLjCjgIxyfk5ZaaKiMLvlmlv6hBQbiZXaHXHnBiH0NQJUDy7iWHEI81A6Vs5wEWvSfMYoAcQcVAIaYt2DA9c8Kh+VjRTZikplyCKwEQFyl6XUDagoDnAhDiLyTKLiKeFHp/EjZTxfSZK7l4wXG0YuEdi0FHnbcTuveM2PF1Hkupmb3hkQth+xeofUqldo0oMPW+D7Y3lWdVkmdRm9KLzRsZWH4GlAFB+SKheP6RrwQ0NPuUx3SKZTtpJ3cUmeRiNxBIV/HD9mZFolspwAYzKW0JChD0NXXAshsp+Tj37XWOpEE7YxBPJm0jFws1RkuxdFfaHUea3Mwm8oi7mHnqeueoHPGGvcKKUIoY4Q7aLCGKSUDCDj28OpfD0nZMJmZMpmMOZQfYBp9WVkYYc8iZCMnzPKJxnJOM8+/SoEXtV4DpBkWTtDTX9MELYbutb1I/PqqQjRFUU6jwyNx4BmjDUDak3I8/NlGxrMT6H1GOFaMb4ABEFaJTDAiXwrZ+TVKMsTaU6Ppxi5z2H8b9AoPBEZT0MixwkwJmPpAGOuq49lOnYXmZPu59niFp3pfGtZO7cFvuwNJcSgdaHCIDBnUbduqNgqx//U+RcofqmLusJFkOzmiJYOPlIcXpXR4nKbyC8KrQ6jMqmh4vHwgboHfJ1Y36sD/AIvds9eAEkoAigvoNNDu69Ld9V2FTNdg7sjN/dWT9JbQ03SxqWNhh7U3f7fzwJbLdN6zkMChoWef82mQvcySnprTO9MW+TGvE3XMgJ/Rwg5jhcwa2QY3xrCvJyiyUiAMRktcTFJEcVqgNouCQL/ykLXml/sv27oNk+ITs8PwMfVbPa8jAIxhuzzFUarwWfueN9nNJO6dkBiGCsXoy18IfM1od7pUPJOi5EKAzhqUTjpgL7XZvob+KEn0FKPkpu8ogUYejddASNHHq3vMyptIze7Smh6AxKv/cWd12/KAbvMD8NsBcEwFHV3v9INRGzI82LL9Bz4CpTnqjL74CTrReGHUhb9ELLHxy1C7nGY/ndL628ioI4kyJgAYzIWDRMVUMog29VPNeWOlckPQaHvF8e96J3loBa7Si+0ni+1d4c0/pk7jRDPLww0lOuvZTkhe2xO9mQt9bqcxfYxqn8vlOoRZJfGTlfwnNc3GSsCEs0GoCZbrnst0Uqy0ZNHHKvYuzcg/BOB5jd4grhhqQaGTJo9P/ICsrQU5NkMs59ZkvUgMJvR3WlOd2cscktGw4AF5PMEyFRDhpORAGMy2qpYkAW6hW57x6vedpXizvt8Td9cljDge9H3KZKl6o58vnKLAyYifEhiewLenrb069D6Poo65wCC+rcREZ/Atx3RoP0EHVfAINTBf7d55ekdg/tufmXvvltu9oTaNiskDxFCIqXOm0HLwaVOGwIdGK+IluBLujWw4FM5m70lRch/w4u5A+rOkmQkwJiM1jNFCVJISBW6ePemXXs9zX7DF3R/VUJWNgJqlvPenGGSUSihGskso7DbZXR7zqI3p7h+BLXPZ5UQ3wsiIdEyT4RheSEhaClQdhEbLMtxcl03+sR6v9TWVV6gBz0Zuci8KNHLm1qZtWcw3TfpPUq5vlTXdGn1Ccu1TiFzfDiRgwQYk9HioVCpdAxuJl3rt6+z8t3vk27hR8tgXR4KbYsVRKPmIl6VjNM/3EjBZtSag2mpN6cYvR8x8SG00B9BJXQU3zqbSMbSHiaXL/JKmTU79m8vrN22X9ruy6NUfl+o6YZQkHQ9Vei5e79irhsBshoqEzG7Fy/xz5A9/v+M0NvxIk9Dsi2QAGMyWrDIEBQjrwZ2rmN9es3WjwVW+r3VQNqhVHEi/Io1BjTEAUSRBLcW6b0WJXtdi9ayFnkwbal/REb5P9ASryUSspRoE7JDtGqCGpptjoT+y/bkrVzX22Uq/36d6tzjRzIdRSLem1N6ZeODkd9apNDA0/s9oS/vcK2taNz9Jhp8o7RRECIZCTAmY970qR5Omu8ZYnauczOC4i9WwHp/LRDUVNGI9dBK1rFzhkGjCIGP1+xJnUawvDEr6aacxQv457sYIWdwmsbwuZcIzSUUVwREGfjgZoupzS+7tU8zZ0Nu7dbXIkN8R9mP1ptKRpGqF4gAAiseGEzQm1mlCIp43TKNz9/f5YBvMfhDhMVzCXNMgDEZzVicqGgI5bRz484rskM7Pu2x1GurxtpGgFhtecT1dBMSh+xXUbuGUg/VQv0pl5NPpS16EC3wP7Mp/C2+ZzLRN4vt0YjiPURuOcAct9vKd75nYP9t7/Uk2VMLQvAiUQ+oUboeqLKKZHcuKtzEAMwGMquU/s+dLt+b5vTnUE6PJJKaAGMyLt72NpF7YKWyzC50b7A6+j9WJdattVDGwLCai2uQxr9xyoeUUIo0pCO6s+joX89bTFnUhMhDSOrV7hK902Y5NZWUMoUutEeolers780MbntHWZJPVcue60X1HNrz7HA1yy2pez1mQmHsg1t60uQXbU4/SkBPkkROE2BMxkWoG7SueSrFujZesa1z69V/VWPOvpoEaopTt1O3NKW8LhH6kAv+8aQG5clOX+g/ztr0l1Oc3o3n9Cf4xwehXt0rGe0w3kyhXG6xzdfedrnbs/bnfEXeWol05wwComiUPyJLKOfwYi/rgh+tPxdNoGz8yV70ge6UtSVN4GfQ1D2WyFMCjMl4iZVpug3Y6UJfemDzz1eps8+PNFdtVh7GxTVXr7TR3+L5uuJ5Z1l/ryL1UnPqUtIz/OIAFXEYKKgIGMxw+qZOl3emLevXkcoc0KATi7yF0hKnDUUh8FwHX7/vVa9QqY5fmArUq9F4y5qKMEthsuvyXHe/k+fJ8w96IOryrBsvxIXE9bwbXVy8uJqOMr6x1/QNvSnrJ7Ku+xlNmJ+IaQKMyXjBBaPifZrOocv6Chsv/wjkut7t40utpDxm6ZmWUcS0xqEsbnvETIiAEkCUjENgceGGMW29QM9c8NzoDG42P4EyrinHA1A0hFlMD+IalnEZunr7JbWINWvM15guVBWt8lLL12SEXpe26N0uI98khHwLVeRMImUL8WRICKoz0Lv5iszGa259Q6jZzSpVuKEMbEucNrTISYjmfpsWUfVWUSjPKIPEVPvGv5iiSXV5RnqmpK+NQOqYxj4/CbbRncr0B6NxzyuN66Iu0zSWZ9N2TMftxFoH+qY7TSVS3GXyZ11GR2yLfBHPoUoawJmMBBiTAfVAG7P40n29+cL6HW9jXUMfqiqaVVK1TIlA3D6HgE0V0MgXQWniaGV2/GnlV0dwNZZRgVTwJAwwRs/rUfB8Z5SFmiiNSqRAmNUBjBeAsDQeP8PcbN7OFvt5OlcE7lBhwNIUH3ieUmmnh80o6EokbU+oK5yQXFFw6I91EPo7hOnPGX2kk0D5eY+wVoZ0oRu61m3rKazb8VOka+0vRqHq9aIo3jtrtzJ/vuyQuE+nkWcNTEYgq5WJsDxzOqzOntEinAUtZ9DIK+OjAqZiUr1txgvVwNCxHiTEQhnOorFXQJuvAzgvUO50sHS+18519FAnk5aMURED5cIlyHzelLwrhWrQpuJXiwTKXOl/QsAUDIGZJF06EmBMvFMEUtkCVEsz1Mp17qOF3g/6wIpxnmILFIpZYzazwOIMLBUBCSoPVc8c/3Jl9MQj/uzEWRUGVeONNDEt8ao33iTyImt6zromxMGnLmEshaZ6CsEyz53sYJgp7Ej1DF7r9qzdbVvptOK8bsObjxnLG40ApVVbPUfmKmQcoBMXUh/AH7+ctVi/TcnteOLPoiofTQTvpTwYOnaZGqK1Zuf+zmzfhj1258C7w1T+HdVqkA4vAMR2qfE5+WWk7uGImWEsTRqtMwlMhCeDmXPfnD1x6C7hlceiWmVGiaiK5xzgpwMwRl79JF8MzWhMNYHYphMMinaKMJ4n3Oqz0vktUb5nT7p36Bpe7N3ILDdO3hdSLFh+zemYPN2ZALZyCj+dt/UBpckJ5vAYGBPmmADjalY/8RLJda+hPJPvt4r9b4p4arffguT92G1KDUPE59WJM2Fp4mEpgyeiyvRd5TPHHg6qMxVjuDa6zNeTy7T8QRP9B9QIbWzAaKNPkBKa1DSFyoWxyK9lo/LkICqpJ6RXeQVLZdcRbheBWSlNWYrZqQJzM0XKbVpvHdSeHcDniqebGpYAk77sq0b6P6cs+p+LIL/icPph/Pu5+CLiSF+y6kMDzd628VpQxoHGQEQgU+xhbmdv38Demz8hU8UPl/3QdEeJu0sQaD/3jpsEo7gxhTBc88ajWmmUKFkjSkxGUfAsBNX7vKlzD5TOPHsKQVMhoOk4ylM1wrdJ7Nu/CJmuE8p4W9J4byKfaTT6wqD2IK6Xh2RQfdatzlxHU7l11M11WdliUSiysCIFpL6MagiO5ZBck+Ls9ZzAn+F9wLtAdN09nMhlAoyr0iqPgwQIaqNc95Y9byYdQ2/xDbtSC3OhxgE1eOAUahUnqh2cGn7yL8aefvgOXGujWogy/knFgQmWHaeGPNeb6iKWIamH58TvpbSObCKKN3TwGAEwXg5nRkfD0uRDiJXdeG1ZQmmOUNZjF3p3Zvs3Xmt1Dmyh3HFVjKtzOqt9YTJRI73DdEEQUr2xM235LiOfxHM6gqcgpOmLtcot9FSuA7zyNNRKU/hzhqQK3fmBK67bkRnc8omKtl5bLddM/ugLtjBrpUEDjaowhsNZKGq2isZEaeze2dNH7i6PnT4GUpS0FBMqCka0jGaIVhFjrA5sRjZji0g9J6MXc7KxTMdroN5QVEQmWThCw62K3zVTGzl+0ps4cw+x3Cvd7sGbO7Zc9UqwXFcaHF2A3MY5jjreb+xOheo/Fhx2SIX+PWighLbtArMdSIJyEmBcdSPeS+AWq5Sm+9Kb9r5FOtn1pmTWQsxEs8Q5JcoGUbN9/1A0dfr3wqlzX8clXKLUUsB064PSn9sTMY0iA1BiDO38CU0IQ1BE6xtljVp5Pww2ggxPZZS4zcp1DiE4Zii3jPvKRurKlSZtKSR9YfutUqjAV+HbOxz2uqKT+jSn9E/9wJ82gUirMqWsYRStv/IVMHL0cTjzzGNEM3v9uv23/BeiyDtLAtxQ1INPaBspYl1uDZapkGgZMhlWuYhOa790h3f22S/PHH/yCGMoIvGGvJbUODWRJZ6Pp2nluc1VIlDmwlXJ7L8jQJ5G2++kqEzLYPxUwero22jZqaJkKLsGIHXzsmkMjklfbrcY+c000a9BYA41t+pCmwBjAoyrSx/FFi5J5buKxfU73y7d/JVmT0zp5lxUugG0xsp2cOlGE6c+f/roo38ZTI8cN6SJcQcWr38BMRY3PqiI62dGAWiqKqhgZoOpkemoWjpILGcDMtY1Vrq4MdU1sN0u9qzTdjotdSNgp01nZookeKFpnKyzqPb+U6fL0half4lzfgKe6/+4KuSvvvVWlzYR+qRz7Wara9MV++2utb+MgHhLWWi3nffiORwyckvAln4pqkweqo0O31ObPPugrJUPIiANaxGWqfHzxnSV1m+TJot0q4jZMzA5KjWtxLGoNHHHTBRM03PH9rhdA/vSfeu3owwXo0ZgTjPDCF0gJZ0JYJ+btm6kJPoaXpqoW3NJIE4CjKsFFNHo5bYL2d6hdG7N5tda3Wt/3GdWt5TNJ/GbsHUXTe4MFaO6Ovtn554+8Bf+zNgogpGsxxZAfX/w0lDjuvWtZUXJ8IgKvWHCeAYo6xDlmY3KL78c/36b0zmwi9lpW1k8BjDZMBRaPv/EpHZomPFFX6TUh7MWe0WK07sczv8GFHl2pesipQTkOgbAdtMwfvKwcdkhX7c2ZHo3vTtk7jtrwLf5ArhUuo0iQYAzioDIwCK4HoR/Utam/qVy6um/r44Nn4i8aknLyEMEF/Etu1SyW2eOc4mNgfYrR6QMx5VfebIWVJ/llv0213KvRvZoR/Hanr8hETt/tamrqjg+fj5rpabwKA+FtUo4Z8C88OhIlGkCjCsIGPHBnJSV7lqzy+kZ+g+hld0u4rBN3dSxjJJxGVrd1YnvzJw58unq+On7g5mxaQSiCxTKEiBC9VUemj5aqPTKeObjOgpPBzI8rQL/mDdx5ipqp9ZTNzuI1vgmK1XIS8ZiBtksk/5hisgME1kpAtlZi9Qr0xa7tjPFtqQo+xjO2GmcU2XmdUWFzpsN1dCPo00pzmu+Zw24uU4HuLWFFft/3rPy764pSEdCtXS+v09WjewjIDom59CvTFVHj397ZnrkHiKjRxFsDgWlqUk8xzoYLpW5f844MxU4Qh36Y/izJEVUqpw5gk8j5fau34Pymg0XQGTNXvh0IG6mrlVNM/hlPPCR2ICwkr3GBBhXPFuMI06JpqwTLPc10s5cEyizv9b8MU3z3gxTJ8PZ0c+OP/3wnSKoRYxxaEScLjXtPDcROnYXgS4rLzoU+LXT/uzodwmzBnkqd6UOKjdlBjZfZ2WKvZRZ54sHtJpBxt07hHGtShuP/ZN5WzvIIG8HKf5JKlldSQ2CTORp76bLYXL4aZgdGQY335lZu+em91Yl/KjPndf4kaaReqnshuYA0TgtuKkBbFgikcpW0dHq2LE/LR97/Bu16dGzBHQVb25kgsZiuY0DapaIQfeDixh5LLJZqp8Np8e+qoUQhDCaXuNew5nLTUm8Zs7axNyVQ8Udpt7Elfx9rtUR7rgIjHYCjAkwrmRU1HUhp5RxJ7sO3OxNEVAuF1BVwyQ6p5kOrbDyuUpp4muhV4ksE8229OlLHSN1TAeRwsAkEWoaKc0wAtJJb0QOI7U5w7OdV7BMcT0++uJIQEIaJbt0q86iER2ooRRI4856e+jqt+ct+i6L6C9TSgOKGnAusXz5iZyOXfcmDcMYFj3rLgPbSbHR44c7EBl/xHdyf1oNVRy1G2/jteE+szgZXwGPvBldmn3MK49/1w9r95bPHrsnqsyUGWM6rlTDKSyPPbVGUIwSJlfyRFSZ/qY3NtzF3WyP1b12s8m1MPmO85VQ837zOU9qmgHVbxGVJDQmwLgacFGDnc6Clc6nrWL/bivftc9XzRuDxgpPcVApHX4jmDjzhdLYmTI3lvayGhfsfyJEIhj6iJXDQonZslc+CszaZOU692cHNt3k9q67gtjp/Pk0jxbXszTH8iKD02a3iH+maLPL8ORuxzM7IuPQfbms9JQ5V8YtsJw8+JVZQKMJvNJ0urh225W5jbs/4BHnPdO+gEi2p0A9bVRbsphWlohORTNnvzx59LEv1CbOPI23eRb/rqjlADFl2LSCZRdoEsuCDPH/k+Hs2F3VEXdNPpXJs0xHlybG4G3OUDOJ/9K2bmUWfA+/46xp7ZUkNCbAuKKB0RQqdfKda52ugRs0d4sLUbQWgokd1R5R/uwfTZ9+5uT02RNIqlLLd4LmgvC0FDoUU0D4LOFiOJodO1GjZIIQWkVjYgsq0wJxUnlFOW/GMn+xwWi9rNxkTfYhSP5a0eVvztnsv0ZhgACpFZmrNr0MhpIRZLsHYHD71XD0/q+R2YkRq2PT7tdaqcKnqoruNMnlUrUHFHmch6hDFlZHWa16FILq7d748O2V0ROnkEEqzi3dyB1c5otamfpung79g1F54k5//NSgS+jVNF3oVoTRea/vhvfCl/qWiLN7mNZf8sul2gu/uSdRqgkwLv9h6lgoJV2ezl9pdfa9xkeTsNl6qMY9lbGICs+c+uTZww/eXZ0ajSzHXUmzpRsAOYuT9HQwPVYRtfJRZIw7qZO+Ir/2suusjr71lNtcaN3yguXmmJV6D8wrlFa/nrXYZsTMf8CvOIN/jpbLLCphnPXc2XLtbaZqy7tkpviu2Uhv8Q37bcdda+wlulQIWpt9YOzQA39emzxzL1FyRIdBjZmiECtsVZtFrGU4g/L5QHXkeJeIIiu3Yed13Mlmo3kmAMURqipuyD3kMvK+nEWfprZzPzQqYGhIEjgSYFxpg1lESJGXhF2p7exAFMmm3KjGhYqLRrkgv6W0eFginTGBFcxyVt6cmWokxr0aqBNC+KPErzxJ7MxB30lVUce+iuV7NjqWyyUqYxP0oFqYqmkO5UXKuMSuQHb1qwWb35Lm7Ndw/u9f0tEQZh8WATEKfJBC2Jrw63lX/0d86tzgSd2JeN9yF7RJFzJBYDbiHlfhBPUqX49K438ty5MPispsyWy7xUE9SzIgrAXWAC5AHXjncG3fGznT67Vf3U6dTNaU11NazXs+faloTdDrUkztI1LcZ15301kwRcaTbccEGFfMMLljhNnMyhQ3kHTh6hDMBr2Yt/VnoiSNmyqlwyPB+NlPdvQMjk5l8zB19jjYjnrRxUu4HeeOLUeHVZzPJmVZC+Fppcre+MlpUZt5mqbyu3i6sMPp7N9iF3u7o7ijR+v8q2ZGfaEogokBlFs7XbBynH4cF88BUmeOS05LyTCAzsFNJNs9UEAj4kaV7fwVD5xrTRKEaMPZmtSPFMoVqUw8Wzl79IthaeI+BIknZFA9Y3LxzN/JeT60khe5DLUIT2i/cr83NnxZynIzPFXoDOfPQU0LNVNH1c1abFfGtHgDLUz91Hg/NtlwTIBx+Y+6lZzJd0GtVuZ2tmMnz3bsEk1Qm7luAxYjNUeG3xg7d+xAIX+VGNh6Jbi5jjjQ4ocrLw5h4MHIM4/Pv7P5EpnHeiQgWhORP4XM+yFRKz+DF7aGu7n9OvLelLWdG7idzlJm0bkOG60ajXZWptvEzdJhf5y3+R/boP8Vv2KEL6F9MpOjaIJs0p19/b07XvahstDvrIG1LZC6paku9RQMEqdf2Gg+uCp8pDZ1+rOzxx7717BantFKhOaGUTTGyKoobdbopijDig5rj3sTp++y890buJvtpJQ3tZdrilCECtbnbJpFq3qm3ih6EZucJsCYjHYPNB6Jy6wup9izh9jp3oXsLboUTpMg+HJ5/Kw/LCLIdvZBtqPnRV0ssdVO5rKPl6HlPndtsZKNu8d6IKSPL0xJrSf98VMlfM8EyxR32h39m3kqV8SLjrt4tEIp04Zur0YaWZfcKzT5bMGGNQiKf8AprZHFq7f3/dPSaAxtDB8zCn1DHJjVwzv6P1Qhzq9VCCrXSLZWmTZaQTl4bB5VT4VjJ/8hqM38kz959mHhVyvUGGjqAutr1bj+jDUmhAy9c3hfHonKk8/wYu925uZd2YQhrOrg2I93dyvO94PPFZxIdhkTYFwBlqQBrFq1xDvWXXZlunvttRFakM00PI3LvlEQKRD3axE+6qNhPjNysrFvQ15y0Zr38fM5jnpZz2m9K4hxDOoIrfSzUWnizqhWPkHd7P6sX70l1b/hap4q9BHKqcl91C1gj3Mz7CM4TiqRRkb6iQ6H77C0/gM8+gG9yJNq5MokgBtQDCqzSCo4Hbj8ZfvcnvUfq2r+xtlAQtTiqNN6k2DTD1H5rvSOhFNn//vEofu/VJ0eHeOMm0BhWL01PuvXrELPR0k4FVVmDrp+5eXMzQ4yAvMqNF4n2dpUw9mARtjrGeiDUkTVRJ8mwLiSFgxBxpa1813XEjeztR6oNj8daoxuG++YraPDJKz9k0ld4I6DFnsqbjG1aq1IXbfStRKTaG1UNagpf/JMBaGw5nT072XZzjXUcl1BFlZd6PlKy3Sun/aFjYrrXSZonhH9QbTqq4wsVnHrutu0e+1myPcMwvFH7+Esne0WPPWzZc1eV0WbodWpGMZ1alOtbOmfg9rMPVF19h/D0sS3iIymOGOKLrsc2rYRRxN+PqNC/6iolU/ZmcIAZSmq51kRx4g2ylc+EOqVFoVv+KXZ+7RE+n/edd+XzHUCjMt5pjkDavcQN79bcqcoxfz2XOL9HONCZRRoZerLE2ee/ZqTSkdrd+yH0wcfRB01CbGlPs/VG/dkpHz555LNKSMZ+SrQJ8PZ8arwKicrY8P73a7BGzJrtr7MznV2G34pW9gc2bhpy8jKkA28rcNlZVRe/4gvP4iPmcW6bBN5mi50FS+/9V1vCCl/W2jnb/QiHVdTaiURMq5TlyNb9EsHK8OHPjvx7OP/ioA4oaUItFJ6zpWbjIY0KuEJv3w4nB55gLnpQV4cGJLzsJnmukoGUtOyULtsTt5iO+5DWjsycaQmwLhSGKOlCQwqZq1BFYMCL5piKah4TzEl7gctq4WeNbFrNJ3vwDUomiKMlpOCkWOH4PSRx2CF5EDquEB5UB2RYTAD3DodUjpt2Q6zZbSXuZkcdTNpYfo+tog+GuU1G0jDHN/X4eobcpz/JqfkiwjCUTsXmEneFyI04JxRdvqtOtv9MU+RoVDoOK+zlaDoIBO0hVdi1dq/E6/0eV2buVNUpqcRDOs7iSvBsIrd7SajRLbK+yJU6J0IShP38VzHlSzfPUiISWbR85n62DNRi1Qxb5PrbWYs7GQkwLhSYBFXBHMyQwiM3XFgpZ7f0jOfYXEHDfpw6FefGDt+CFniRLwHQeNi4c2474gp2QrV2QlgdEXlltWLg+qoCkIej0qTXlWIc/7M2HUsW7wmu2brPivbWRQmv6xFSe6i3oXdlQp2Spf8SgFxmBP6L/iniXbEY5qc1WL/BpLpWTPodq55d+gWPuBJstFEnrYyx42aLhhIh10ZjE4fffg3vMnTX6dSnI78mkdNfdOV1HnEgKKaC1JqwXUhjVaBNxvq6YNWafKQ0zW4j6ac7Hwjg827I6m5L2FLhlMtgypEUbSyur4kwLg6cVETarNUZlBTnmkmdNEsAdOA2LbYuVDJcnniHHilqYWvXVNLE9kAtdyVNuUNZaciZI9nw9CfIdWZZ2ll9gTnrnKk2MuzxU7NbCrUwtMY5vrpmRJryhdXSK1+v+jwLci0PoNMcuJ8pbuF3zAQUQCmdmama2Cwa+tVvxRa2Q+XQ2nPgeJC1WUdFkwaBgGHKsW98j00qv1dbeTYF8ujw9OUcwREBituP/F8GgRp2fG0SfqP/HPSr53QIvIpgWyzXgkJpHj4nq+GazbvhI41m0CiHCQjAcZlS15MLCmz3bSdKa4Dyt1m+IMhdDY+OGPTpi5AvZn5wllePfJNxcqWGJCkK7AqScweVVlHcFTVSp43eqwaVaePuV2D19ldA9ssJ+uabIZWgKMZngFHpYt4uJ8pujCBL/2NRci0IZYLN2I4dPWvszWz1thdgx+sgfXeWqTsULauVVQ9wAaZovLH5OSZL8yOnPh71MJPSr9a5patSbKXOC/fBQqDB1qMgBJlCqqbzjM69Tw4aqBB4GW4k5rJFLogCr1kfhNgXL64SBDN3Fyxxy12b9Ccp+dr1Zv3mtZSeLMqVIqT3HLCYt9QHKbfupNkMTBUZ8Zj9+rKZI8i1JF3Opwe+begMn1M1EqnMzJ6g9u7bhe30mkT0dCqgjlhHLEqexGvfj9rs3czRv4bvvxlaLbGqo63TsFOZZ0N+1/zOpUqfrQqYX/F5FSqeRbjfJFhcmTRAFOuCk7p2ZG/mj158C8nTh45ByoSJjdxxYJiu/IsTSk4TYQWYlKH/iiRYpBRbs+3K4zB1xBvwZ7Xv+9Gh+g7gmo51IknNQHGZc0Xbcdxcp2bqZtZo0wIaBN7DCYHioI4Jjx/uNA1IK5+40+3dC/JVMypzkzAo9/4AkgpVu7+hZIIJXoKEfBxWZ3xvbGTQomo5nSt2cnTxQ5JmC0XmIxIvh8cjXt1X7fLP2nb+n4K5GQzUkSQwVluxmaZwjaPWJ/0InWFJ6FlAURzoOhSLSy/9IiYPvvn/szYP+MXTDJGFQrxyohc/mFDRs+7ey0FXalFiMDonYYo2E4cbs/HrU4aSsDIZaVSehtY/BGUo+Gk9k0CjMvZCiXMcnLpjr79CIx9JuBj3onmcTQqARoFd0UyfCp2pbaBVBlGsOvmt8JT37kdQr8GKzYnzaCJljXhlQ9rJapRtXTWn514TX7djpt4vmeQMt7Yd2yBvjXtgxCKZ6jYxljwuazF/xCNjrvwTxftB4t8D7o37MgP7rnpvSG1P1Sjqe2B0LRlOZkNUExxCk5YfmDs8AMfnRo+dD8DEsTtYOI3rWBQjANu2gu7Kgomwsr0IZIq7GaWmzZFk+djfcUBOHjDQ6GuF0xfzRmcM7n/iZJNgHG5Dkao1cPS+asUtXPNOr0cTv1gbOT28uzEaW477TEWG+Wm+jbthLGTT0NQLa9ccDQdO0ToSSmPEyFryMhq/tgJYkf+NXaxbwO307Zo1FpdKCSYe14JFQJZ9Grh6M6CzWuckG9dzGdNbdtc1xq3Y/2ON8ps1yc8oXoDs4fZAgmo192NXafgEumT0sQXwurk/+BEPeTaru/XynW3+ooFRQ2gdLvlLG50IkN/wpsaOyAJ25HLda4hHIFxntFYxhoOlBoSSr4Cj3pnAoztBMaVGGyxpBgjsZAyriF2eoNx0zXj/TRpGg5jT4yNnToycfxJxd1Me4XCskGZYJzVEA5uolZN1GBt9rveaDQTlKefTXvV21J9G3bb6UI6hNY08pVxjVVFEY33Ka1/I2/zz1IaM8exH/YZEfjQv21Pf3HjFe+BXM8HypHurUeetgYUTZCNazFIKWQzoyd+b/rkoS8F5cnhdCYX2ekc+F5l5YLi+QhUvRjfpXE9VaLq9BGwnSMq9G8A5mRN8Nx8chpNDIAvgEdc7Uc2n0ZMLyVKtm3AmKSLttMgRcvOIdxeo5nVgeqVP6eWLn4YN6rD+WEZ1CpmH9B2vXafdj03csXLBmnkWUipfG9cRdG9xK+NahnN4KPq9AzttTIdnYBzge9YEDieT+eIFAipX+5LfW2ny/8kzdn/Q0CL5yttk7if7ujNdWze87O0Z8NHy35IQ9maJor1KkoUUnh7bX/23/2J4T8LJs79W3n05GTkVZUOg3hPc0X2TfwBcFwkRaCl2cueQFAc1iKo4Mz2qSYOY/athYKNioIrk03GNgJjUqW9nXTE1FtzULF2SUrtZt2oBp44oxNxxWwZtz1q/5mjYjZORLPvGHdKWOndEeJWJ7qqtTgiShO1SuRPhrXSWGZgy01299BAROvNZhcyDXPg6JuSOEoaX82HWIreySn5Fv6tHOs+w06RSnauu2wgt3b720W68wO+F9FQyJaRN5OSk3FsgOnTX51+5uFPeTNjj+G5BASZjal+ZPaX4/NNvEmtRUetfZSzKVMqjpJ4Ec97gk0AMv5fQBOJqWRO2wiMSSfo9lqkBHGNknS8CJqt0VnvsuSlcp260L8euJNalNOPOzbUKviYxefWiiePcWi9UKbu5wkpRdUPw4r5U95xX82dTF4x2zVdOtQCwRFI3S02HUhbQ3B7h2v9T4eQj+D3zyA2EbfY07V2/22f9q3Mu437NZKtA0WT9uNAVHL86iMzp57+/yaeffwBglradCqZS9NZNYC4aG7iudpHce6Gjz+CuZxTBRdPTfRzP11TCCvR3G0ExqSsUJsXhCkRQogD9Q2FphSpSQiWQTVav/t6vW7PK2GxOjfYqSyceOweeObeO4CulELjLznhxn5REqJgDG/dveH0GJ8RD5dSnYNXp/rWXwZ2Oqtb1FvKRL5OmJwLQt7juvLv8fu+nu7qzxU37f4Jj9hvrYSCyhbSAuOSTzPti7Hhvxw9cfCPtQyPd63dqqfPHVsFbvPnAeJiy3IsNGazUYfIzAUKkAlQt8k8BUnXMZabSpAJp2kjMCZz2/aBwMgcTXhTLY9MGL1FIEQbfkIpVKXtDy0/P4LKNKy9bC9wbsGTd/0jOJnc6jFoTJ3L0BvHCf+WioJxFfiT3E07dueabdSybSE1yBbt95VCCWy29AeZ9TuObxvYlA402+Ypano9towMm0o2aSprdlT90qlnH/vszOmjJ/LdAwqJ8CqzVS9lezZiXEaBEqLGtemvw+35G1OmLq825eGsxJWaMMblq2ApsQmlGeOrmm//RePQYgSEBXIUTc0zShO1uIZM/Yy7hrbA5a/6MTj4rS+D7aZhdUQyk3opucifUko+LECFsyeeDFLV2VvSfet383QxD410joWCViQ0TEmxlXO2FWgGhJTQClCcizx1kAy6onoyHD39u+eOPfYPtamRMcqY8sszENTKq8d1ajboLpW6i7dVqAItfRX5s0SJkHI7TWPXvJ7XYYxBFkrFZYKM7QNGIMkGextXQ73ZIWGpptQcqbtRcfFM44FK5BJsCJvWRoxZ0LNuK+x85Rvh6fu+HreSYNyBVbE/bSKdZFTWQe2xSIoSKrVJSrRMDWx5mZ3Ku5HxiemF1ZGbS96OotZ6Azg1/RMppCA8KctjvzX+9INf8KbHZs1Xmv1EU+EIRLTCgbGBhLoR+qYvmRxBw5daQnkaR5AOmz0X44LvcB2aspM09PYBo0xyRNvJuIBaVCvddOSKsShREZv8DP9SLGvTZUEKESf692/dE6ctnHj835FI1VpYq3XJg6PWIqziz2dkZcarnjsmlFSe2732Kpbt6MR7zAW0qI5ca6TORDGDi7zTqs3cXZs49Uezp458szY9WqbGEG54icil2Gu7BJjY2N9bCudSLyiu5DSJA3CaFkdwOFN510lUbLuAUYsEGNtmISKYcNtx7Eyu2OxhGBqIiKzn0OItXUJ7N26EbHoArt91LZ6KgOGnHoDQq4GVSq8W5ghoIQSo2IaDmYk7RBhMC688ml6z+Sar2D9ECKcC9KWfirh8IIU0J8Br5a9UTx3+7YnjTx6olaYiy7JX0QJslJWJq8IvFZ+jyfdRoTJ5smhoITgqAqwpui6VyhqXezLaxRiTPca2sUWCNMvNd3dnega36DlTfh5Wf9xVg+gaiOgAUD2+FK6qNjsOG2JwVHDyifsQMKMV2I3jxfSaiAioM6qmvu1rtP4RhLKU34TMsU+bdA64dHaCWcomHcMFUbJrlbu9keOfnh4+dMCbHReWnVpdy88snrgggoSllKutlQyk740KrzLBUoUNhM2/DZ1J9JBKXoaP70E94yMZLQfGZLRpASjDFlNurmMjT+X6wybonlF0aE9WdRg+rhgpE0KWBDWrzk7Cup1Xx+7Vow/dDXQ17VOba5Wxxp1QfvV+f+w0MWXl0v0bX4HMcQPedFdcopIkFiUqReQMzI78r9lzx/9kavjwUb88LflqA8XYxbHUQLHRI0OpQIS1cwiMI0xFIWliP0LFQV9qL+oY44magmQkwLhsgBFRjDI7S213naaUa2gus58SIrhteYxQvXQiiDVEYQCD264Ebrnw1Hf/GWx7Fe13kLhxo9ImYpWQB4LJM6bEkSTccqxc93rKLGq6aixG1OBcIXAH8TpLxQQNKnfMjp78YwTFY2G1LBm3V9fCw7nQJm5CLS2m2LhbJkU2MsF0lOgSaC3mrxHqxSEiqS6LomgwAcYEGJcTLJp8fsJsxwBjH9SDS5umKIxyarpOLSm3dyOeoXvdVth101vg8Pf+JV62qyf9J860FgiO4wiCD/iTZ2qRXx1hmeJ16b71V9rda/uUlu13qxLTLooDq4w9OHbkwMf92YnHpFeeEKEvV2MqlhbhXPH+pagVzPpQlNII9YOsux/IvMXO2FtodPUha1z71i+cOmgIZKJzE2BcDrhYF2FCHU2orZuoiXjBocw+cDqu+rzEFJ1x6ZjWcrmufgi9Cj7PwqpTxkpJHQUTQor7hV89TSszp7hlM7fQ2eNYaRpKFfffbBc+ZmwLChYZrY1Nf3bm1OG7tYhC43InK7pd1IuSsiV+bhoxkXPjTqqvFd2UekHW6EglU1Sb/OgEGBNgXEaUog6IC/On1ZeOjsdzITlLZ6AeBoKMZdO+m2H4yftNowqgq819p6XpTVXFJ8dQYYX++CmXoCFjFfu2847+vqjJcoAvNeI8tqnT/zY5fuIztYmz31MiChhLlvQS9jHUxUUpYyjThWoFU9UeYTapDJcA43LjjXHVcEMXVLPiT0HNyjAaZhYP4+hPvbSC0JRSYCIeN1/96pgZjR57EqLAiwuQrzqVZ/JZdHg6nB3/auRXy05l9s0dmcKt1EpnW23Sm1KBOZuOjp069FtnHv3Od83WGrcdEPKlt62MSJq9RyQukDQRWGQx0QRJve+jfJSoNH7fpqXN3LiEKSbAuArXEQHFQJ2ZPnv8uG1ZoalZqpewIuvbeDnMjp2KO3LQ1chc6hVwBChxmihxP5HhTrQSXkGtVFbFxclbd+/qXTLkk+lU6ljHwHptO06jX8NLD2Ng1UqT4FdKF1083EQgJ6MFyKi1jGqVGUnGT1ndQ1WSLjZ7pGQkwLg6ByVUEC1PDj/6nXJYK+klDzao+AmeI7fsVXrHkLapCCzqyHShO3S6+3PMTbmKkJYys7ky2ELpwY17X7nl8utfO8KYJWLgvYh9RTedhcfu/Ed45sE7wTYFGi5iiDCsA3+S97ywJSIjFdXKs0TpMyryy5zULeCEuSfAmIyLVH5ICgQjpGwKPhtQpMn+0RK3C3RcIYiiZZDrG7rSHdz2tip1snHWYyu/Bx+h0FAiZJvN1e9T3/+PjAT3GQVrvAovNWqladh01Q2w4crrXpJ7zAVTfffv/wgqU6PAXsDoYeY7E8C8eClR0o8rWUnT+zMBxAQYkzFPdCQCFVNF+F4c9cmWQbNgAw4mZ5muMtZoGnFkOnoh29WfyfQOvY52rv2oz1K9Qqq2lCZRCI+1SNMJEHvx10/mbfYpBvS+WGYa9+HF7pEBOG678NKQXQe8/W/8KZCm4PgFADj3/N4vfw6q0+N4zIZ8miwE079ThshIM3FL0vZWM1xu4KIlKFUBJWv1mAG6DK8hAcZkXEKQYZTJrTe8KY7rWA6pENxJwfAjd8P0mWfBzXc39r0IAnsVuOXUAz5ahg5yCbigdFxk3UTjAqVWpm/9q+y+TZ+qgrXdN6kabTw9QzZqkYIpIm/FX9N5G/4LjcJvmdcZ53Fv7B+mcE1lpvnEhBV6BhHvvr+/y5w47r31JyBC4+18lw5C6t+NSv/RO78EtdmJhovdiduW6fkGkJnNdpT/+DvwGPG543xbCMQm4EjTdgNvyw1eE2RuGhaHZFkCewKMybi0yEhR2bCeLbuXTX4gM+CHbIQ+zGF25FTD9cZgw94bYPTok1CdGau3rDKNHWJ2uYByZZc6Qte0UWcMMj29xE7n06nuwVdCoe9XasTZ7hmwVLqtQRKkkexdCQ0A61fg01/LcT1LCXmSAQsv3Lsy8rOQ4B8R/fBmEGu2XlkHRf18okkg8GoQ1EoIiBkYHz4Cpw4++LyuLDpml0ZOLJzLuVMUgRdfW1zyNAxiNr5p36tgLmXJQkAcO3EYps6dWBaelB8QnHq9uvOZF8lIgDEZ83MSkSioLelo1O8731oZejbvAm92EiZPHkbgMI2rdNyVw0YQnBkZjsHT5D4aF/EEvmdOOzAb37uMoh/je4IXWOhblyus3fqjKtfz8armW71IxGW7FsOUiYEDv6samWpL8kblwv/KcfrrXKvbkcr6c7TOsFrG27PcQ7/2Q/+2df/NceSr5TA48/T6+DXjXr1QwpntQmniHMrL02Z/Nn61e8MO4OZ9yA5V6EOudy1se9ltpjmFIeaQLmThka/V4Nzxg5A2xtVyDF5JtmUTYExG88gYMzFULmQZRK+ZcxSBD1HoN1x5dVeqX5qB9btfDkOXX2vyklHppcFrdJCPa8IiIAaVWYj86kWnEFxqo9+wJCudT5FU7kbh5n/ZUwiKsftUL6rOM/UGjVRUI2VAcju47LcYJcep1gcos5S5Jwa8Utn8ok+TSd0xwytr6OhfB6/48Z/7ASPPSVlw7LEDUJ2dAiedA8ODt93wJkgXu2J3uSn6ZFynxiVLGcXf602BmJsFN98FKgrPA+oygsQFJvknIwHG1YuKCtlWHIafRSCxlngeYwzgqLFKmsYd6cn3IyYIBEsRmp73GoRpV8U47H3DT8dK3UoX4PC3/wHOPH4PWKnckr8zprCBk8lZHUPb9rj9Gz/q0dQ2vwGKl+ycdByQg/cANlqUfjzDyS/g82NzBsulNphM8I58gf6vkQeQH1gP+37i501BYDx/HbczCyozsXFF5879gmsQQRX6d78CfATJ4e99pW4wLrPIWBPEnGRpJMCYjOZG6DZKDetGIZ1lQHAvWjMYRWk+Q0UYB1UsB/+SiUBFtkisbEe3U+x7u7TS20Ot+VKJvPeEhqqQt9iU3WgDOY2nFS7tGSXxvZfI/Op1tXW8//ziokAQUMvQseFysC0Hjt75t7GLflkMxk3wjayHT2lIolITYEzG/BQG14QOAEhUw0TGAQ5LPO/JuPWagTbSYJQm0MJO55asAWCiI91cB3Su3TqQWbP552S2+yd94EWxwPuiyXN+tfk2tf4BBobnMh0otKfIrzImLA76izi9MyvPoWKCnyxgpuXZcqBeDfc7yjelqVyO26lsPXo3AcUEGJNx0cwL14uNZuUmRI1U6NU3a5byGjIurwou9MhOz9t1ZwKM1l55Q8wExo8+trBo1bbptbpic/MduUz/ujfTzjX/oSZJMWpBY2JukvMbU2bCFaXpyLGAw4ZCwbSGrWhRfbxgkRmLsn8wLY/O16Fv7FcvBQOEkObblcWdJqII2WMlDuJZ2mtam2pWJF3ozvBc52aWyvbIuEycgmQkwJiMi2UneH8iBYOKkW5Qyqu7X5Yot8X1HaAy9pH3MObOmzUal2px7RYoj52BkcMHliYw4n+FvnXZ4tD2N+hs90eqCIqhXDi4WIyCpYXQtfKUlBJYKtdJuM1Fk+A4N/eeAUdPDOEd+dmCzc8JKe4zQc7a1DpXKt7jjYNWLiE4GkAMENjMoxlw1Cg3bqEL1u57NYw8dW894tkUF1iKrsk4YohT5qQ7eaawBSynI4HEBBiTMW9gNF3gdU4S2c84H6k3N12atrAhTahxgWjSVAxEHJxhXKlRsCRzNg2QKCVYrn/DDak1Wz5eIc52P1ILVsCmGHiagdClqa9XRk8djKRY43SueRkv9q3X1OISFsYcTQEAnM5XMkJ/L0fERzQh96kgACUj4HYKbGZfUtZo3Md+GIEfhcDo/IM0TZCOk+uA9df+SPx88tiTeG0hgr69BMGRxH3HpRRFpqGDAkn0bwKMq3UsQMnHW/OaKyXzaOSzpZrkr0wit26NHjJVUepBOEtsoTgus1O5IZLrfpdHnJ2+YYqwsLQMJIqQotrntZl/KZ07+qeVkVNnNGU70ECopgl5Fcv3DCIFckWT8zqX3eNFGqaouNKi8B6LscfxDzUS971eGvK0EFequcg4aAcnc9urfhyeVhKmTh4Cw4qXXE6scV0rNHOl5CjjpJ7WQy6RcklGAoyXcsXTOAGRLmAtmQ7dKSXlksx50kYxkXpemW6B4jAFqeNgiiXSlNkANeMOzQ9uHejevv8zoVt8U82kZSywqg2vg2LNCSpfr5079hvTJ58+6FWmNXcy0yIMIjSGZFbrV7NC73rNbFs2GdxTr45jCgBIe5KQD3enmG0R+CU8+xUVjGOMqdArw45b3wWH7/x7GH/m0ToDXYHFzRsmGYu3pUlSvb1dnoxktIsq1nUnA2i2jnSdhmkTCrkEw27qoNi6OpUmCb1v+3647Oa3gfD9JaNwgdu5dM/QTwRW5uWeBLrQCFTjPk1RqDlh5dvB+KlPaxEeZoxHSCWEjoIpHVYfEqWpr9VGT94jSxPnLC2UxciC7ATEcpjxBZ0Kovcqal3DHJcAW6J7cQuRoVoZLrvxLdC/fR8E1dJSJVWtcInQhm5JRsIYl5PJQZFsiEj5aMaabHA2v6KI5LklLRASIwRHvXQWOYK1CXAgNEb/ltV5+QHGeGkB0QSnFNdu7ezeetX/rXLd76kB6xZKLehqKc4ZMkVh+zNfnzlx8BOzp48ckSIMVaPggbGCVOBPCj19r5KhUPi3jNav5Z0D6031IyVV0zNjtHHJF7ZNyR8WbPYZm5O/xZtYOS9w+oKfizT/sRu1lXJtsuaVhE3X3BbL0rEHvgHpYs/SsCsNuSMktnS1nmtGpue79OpzpuUoysIZsWTjDhJgTMYLoJoR/8j3qn5l5pwlQp9Y6fR8oPHCJYOfE/GCWgLASOJO9O1LxF8qe4wiCiGT68gU123/Mdaz7heqQmdNC6mFgoDL8aH8A6o6/btMiafDWiUSkR/n4533iqFFpcLahFLiPlSBNHDTncxJF3iusxgtsBh4iGx3wou2o2b+rU5CxtAEuV0Zv7ApWoDArGUdoDlvf1COud5aGIAvw5bud5oScZabhnV7XhmD7rEH74RUvnNJ6Yf68m4uT4PFwKgeqk2PP+NVZhWlCXFMgHHZgCPadFFYiWqlM5FXnubpYud81069/DaxCaV5fFiXbDvBQDI1njc7dk9pwxT5yt3aMOwt2z2Q6tq8+w28e+hXKhKyJi9woWESLqOQ43BOjo/9ycjhAw8g8kTmnsbdIZ5/b015nSickn7lQW/8VAe1U31pJ/UKbqeokHpBdR58oWHal52ckv+3w4bTeGsfQWGVpjpDzFwpWZStOVMMIhQCBF4qJ7SVaw8ivwZOKgsbrrrRRBPD6Sfui1tUXepUjrhIKrMtym2bENbURXMTVBQED0yfOT4xceoI4LESfZsA4zIZaG6jVVcTfvVcWJo6x7uGNjeBR0YBpjRjWymlD6ASLS36qjbRP5YVs7jpkWHgpgeem12x4XD1voqMdqzffn1uw67/WgFr84JBEYeDOhCZ4kk1M/07M6eOfGVy+EhkEtLjjhcviEJx4rdSoT+u1NT3vLHhXmq5OadrYCvOfzaSzQuC+boQ2e9sIF5hU/J7WYv9Ar74SN3VQWAxPRMtd6VecFyB4Gg5Lmx7+euRCSsYOfo4aBE2gERfCp1gzoxxy8lzJ9WJN9/V8/ekxn0oa2dHjo+fOKQr02Ot7XGajAQY22oXGi+JMcNDfyKslSfTc+aivvgFYFxZQmtXE7IdF3oOzctzi72cTci7yS007aJOP/0wrL/iOrDSKzRmC+fbyXXwVEffJrtz8Kd94mwLEIEWnsBPIMuhFI2e+d2p40/+z8rkuZKFbOYlPQBxqK8SRInTUWni6xWtmRLBG9NrtuzhzE2bXWfVnHTGw4ubHItXMqJ/ziXw8/h6FVZSNI4BR5MfiUbJ7lveEa/JsWNPxTmc8X7upVAMlFpoaHYxO9UjCLN1E9Nt9k5nJs545fHTYGc7IKmz2gZvRjIF7VS0YLSqb1xmzSovZIxcKTKEyjmPi4hoWNz/GFrcU2ePwSNf+1u0vlPPdWlfeQTf5F6zdbuvv2bNVTd/hnQMvqMmZNwia0GWJ97INNM+92f/curZJ744duxgKfJqF7+nZnLfpPB16B0R5Yk7aqMn7winRo5RGdSMy3MhwwCraVU15at3+ED/An+9eiXqBBP7ZrYA9r3hfdC/ZVccnHNJgnFMbgWlNjCrGx95s2HfzGnEsmqqFq3AqOKEMa4SZIw7dTdZys0sGqE0lUB6FCGFekzP4p4/ISx2PbFFTJY2AThKRIv4fdqkm9J050AfZDt+xmepm0xahlQLDbYxLlSi7Kj6lVMHvvk7pXPHxizHgXm7Kg04itDHe39MVKe+Uxo+2Fmg7A28a81mjQRkIedpUk9KoUijZL2+O0WFpfXP4tmVV+JqNP0+9772XWC7aXjmwW82ej8upi6IK9/YhFs9mvOMbjL5N3Y9K7zrIlzUdbKqgJFYycZtGzVuo817vY0O0fNbB409RgOMHaga83oxgRHPN1XsgnOHHoZD3/3nRatdarprFAY2wI7bfhKO3vPPc4Z2W69Tx42TC9nCusveKt38rYhA6YXmKppTTlsUclQdDCZGPh1WZkbiaFvatC1qenRVVRA8Kchszhs72ZNNZbqsXE+nIXkLA0eAUiDzNhVv7bD4XyMTuWslUhGzFC0nHe+Xm+AcN5Nf7HJ4JsjYJZQVkfK5Ws8/wjjG0rAKvTv2y+L67WY/PNGzbWGMJJnYNi0B48OJ9Q5Kf2g6ztVzHeYHjBKBUWjowPWTM2VIF2sZGyAcfux7cOKR78ZuKDfey1gM5SXj7872DC6KojS3Kd3R63Zt2nWr07fhgz51BhYCinF3vXoCP7DS+FdPH3nwY6I89ZTwq8qkZCzshI1GD2ZQDh7yJ89mpVYsu2brTbzYP4AHX1CaSwyOoUy7jPyireSERekTKK7qgpSh87ZeqzCTErLoQVxBrQzrr3w5RJEPp556MA7OWSxDk8SDughmRU2oo5sgjGbOmJK4HguRm+9KWla1DRgTH3X7PCd1ymiq1viNiLR5H8aoOgmQRQ2VZ4sYLmhSCKZOHYXZsdOQzi/mBv9c09qg7d9jik1bqSzLD2zanR3a/tEaca6IZPMtL3XDonc5h4zyH6pOnv6NqWNPPmGuyLijW8J8tVQ69MeFVneLKIgY5amsk77Vznenw2hhnT58YfYbxWtN788cwEc448fmjmf26cxzxnjsVm8F0yoHIcQFExYxDcnUVe1cuxm6Rk7Cswe+be7/4nmP6iUibQTGvHGpNhU4ReqpU0QJGRfESkabgDHpBdbGxaDiqEJ8mPpmijQR2KDjSh6mlxOYFbwogRFGTZnC1cR2gVvOkm0avLBbI8FOZSmC4sZ0/8YP+Sy110RpqgVca5zAzwjYQemhcPrMx4KZsQPcstR5xGzZyUuJzHEMn90Xzox219x0Z4qQq6xUIRvp5k0YE4xTClHYqHg9o+ThjNa/DfVIVWRYIgZHQ7Batd9cDoJYthYzJdbcowhZI88UoLjxCvDGz5gC8dB2m7Pu6zGV25Ex8qyZ5QXamkmN1HYCY8LE28waTS52XOpfKqopzDcKx9wfWVesWbJIrlTzHQGuO6nJylx9Wsf9HzvXb+/r3Lr3wzLb/VM1oRcEimZYqOtMWoZ/9sRvTxx55Btx/W4gbVBh9RxHEOGYqE7fVTunHBQxnd+w6zrFHFs2CY6x9x8/WA6luZYPWpScsyn9a3yp9lwHjNZdjHELqkuggMw+dm5wM6y//s1w8ltfhLA2W6/z3+a97EYbEYdQlsKl1RQwNhSAgNbUW10BCvZibYX5TTZPzI62K2FDQzxTIJowy6YwP1ddfZ8x7v2dgnpp0rYP05E+LkC3QoXDFBxhNOXYHX0/QvK9H/IkWXAEatxXkcrQUdHnS7Pj350ZOaEsN9NGNyEeF2VKBd6w1uSb0exEb1QaX8sLfYNALbdZcDQZIPVgHNHHCfmljhQdpRr+94oyoE1+o1cFO1eAy177Hjh8x19BPYWmnR1d5o5NTO0/C1cYV/O/43GrMgZ6En+Eq1mtEngBL8yLCek81yE3lSBaPhYaZLCCmIkJvNFKlkFGNWKSAucZgBNbuPFhIBtX626jgopB2OwlwRJgisaFbMqTxVU9Wlek3BQ+L/Zvsu189zVOz7r3eJplowXu1RgwSeFpsurU3wTV2T+KapVRsxfX9r2zuGAEypeIhkV15lu1kRNrUkrdyDsHhjRdQKsqfJh+kzNhtN7h8H9lufU9fHHceD9W0vI08mVZNlz++vfDUwiOQWkaVZfTzq9E05Y6po+ZbvLGGAOMAZymeN9XW3jIXNiGEULHtiGbyjyXZ9zoyymNc+7Cakpx3rVGg6K+N670xTX+5m2SuPOXEockUwb1QrerzW9rWimaqFRVIXEMTexao/OdB2VqPINmGu+41rots2gESS2R/WYTVGBni7DzDe+HZ7/9v+M+ewstlBzPm8n54hZNdfZdnhrY/J+CVPG6YIGFwY0Fn+YUMkQ8HpSn/nz06OMnZifOaDoPBRvvewX1NlsmSvLi93RJnCYLKqpJv/K4P3nW5MZZuVTuNp7t6NWm9ukCImxDoemsr15upeXHUoz/vqb6BCErLP8fp8d0c7niVmSO3/wCzI4Ng5sptGtf3YSlWrHe1bH/Z94GC6kfxNSSVyvd2xevWf2c6yqbToOFABfJ6DxjPA+AjQjnCx/PX2PGdX+xd5W36YrOK7hMR09shZUnR2KyJFA5Mctu9O7VK/3OxoQPJ6KGrDEkz9k9TRyGdKo4KNACx7JAtWjqTGpBFIYQhP6i18l8sQsmyBSzPWvrXdgXqKTMdpzlpiDdN8QUoX1Oz9oPinTH60OkVapJF6qOQZGAS1RoeTN3ezMjvzV57MlHS2OnTeb1RZccM/l0oVeBTVe/Kv792IG7TFBQ3B1iHpaE0mEwLXXpoXCKZj0nXUwRcr0pXC9wnTVj8JCGp6ISyiIa3R/oSoF0Kf04KphqS5xKdAm1UJMy7r5x2Y0/Cs9876swNXwEUoXO1oJjrODNpr1pCmAYI2na1Y3m8QzRIFcyMJrgOI66zp3LO40CsFAXmALqhibEUdLznMH5vJu3V7/peIHbtguzSHNNdfveoS1QQpA0CgEaCH6J6hYuGgHChVdVfm0WrGwPpZzH+UvzuEuq/uhHi4faOFc2GhatClqgqPWUqNcDXVLNwE2ADC4GsxdkFgkyvaYB0nweZYzk+9b1kXTxXTrb9WOBpmkhmzxeAzpss6+oxWFZmfid8Wce+155/EwYV9F5MXk2Mo8Go2GIZr6Hdl2L72cwsHVPHTCM0YOK+tQT9zUS0t24/NcPv/a5VlVS6igYl7XZf6+NHE8Tytz0gH295ebSoWq+VVWEnysF0rUofJg5/NtMyX9DJhrUA6Tnf0zSCLiZ9YL451IRucivQqF/CLZcexucYBZMn302NuBbC8FxCTgbNb5r2Px8p8/MHVJNQZR6XBPtr0RaYUDQPLjFwbXt2GVq1oPZ8jMirLRelCh5vhgXOmeVmzqbPUNbwStPQ1CeMQWb4z0kk3RLlgpbaTlj1KES4WhYmjpip/JrqJ1xZRPXidAwiGvJofVQx9bm9ZKlOncAXQgYU8efAhnUTC3T5tQRsibuZgp2R99bINf7EY9YvZFsoknsBcNmJthGjZLKzH+fHn76u+WJs6E5Hv1hqQyk3tLJRES6uSL0bNwZr42NV90ITqYQd543w3SCCKqzqKi9eL1MnzkGPq4V4+6jL2UcaBmp0D+n1dTd3uiJHLNTRadvw17OHR7J5q81MmXjAuVyKj+BbEW4hHyDMtpUcAJp9JOc9UwPSrp0ov/wvDyc5+512yDEn+PHn4yLdbcKEs0OCuU2Q7DNoqHjNLPojNsezaaTOvS+EyrlrQxg1OcLbZhhAtbm+oFy/DmXP7vY17roVE1E9dwl495JFzriEk3+7CSQuBXMCotANkqM6ggt+XNBZeopq7N/LzjpTtDzt7ZRNw3g4frRYhohskVFkM2GtVAgpVySc2eU6KYb3xrLx+zJQ8Dm4168wDAzK83Kd+6wOgd/tQJ8MJLzd8NcyBbrEaiq5gjvC97M2JfGnn3KN4v5hwF33TgU4GaLwPIWFNeshx03vhnBPkDmWEPgmz7/XvPcXPflN70FmOPAobtvh5mzJ/EeReBXZpDh8xcv5G4KaEp2OixNfLs2dryfuqlOq2Ngo0IUWsh2qklnIYHch5f+KTTmn0G74MgL7V++qNchTpMRMQtdOq7U7z93EfoQGm9Wi92oKIHEzhaydqFriMxR0Xl8R9zHMZY9fUIH4WEZBWLZho3rCzk0i4GwzgZVHFBjtt60iuLfL1Vdtkvqw5xTGHE8inEXyRVWELceNYj3V8xqEY3hL0EzlqIRGrTauQK6T0nxjJSi2qpTNC49E71IOVuSO77Cb7hSm1QCyLIIWl9FbaevDag96IdiQTrPKCeXEcWD0lf86ZHPBZXZ8VjPvchBzRZC6AtYt+s6fFwLQa0C3uzUi9xvje/HW4yPTftuBueGLAw/cR8cufeO+FjyRQtHG0amAiKjY6IyfZc/NjxIqJXlHb19KmZrzWuzaqjBIWRvzlbbbKaPREI+5/4ybl/LWPr8BV1dJDbCQqjWalBBdbdk/UON6j7cTs3lHi74kIb12E6K5XrWDLJC/y6NlLEZw8yElzDKajjHfvz5ZQqMcwFcpvaJlcpBqtiNhp/+P+y9B5yl11UneNMXXq56lbs6R6lb3a1WKydbxrZsOWObNeBAMB7AMMvMD4ZdZhMzs79ll11YlsHMMDCzNjCAAa9xwrZsZElWliy11Emd1LkrV738hRv2nPu9V12SOr1XVZ1Un/1U1a9e+L773Xv+53/uOf9DGlghYaUN5RWXulvqrrHoyAi3WMpQhrUJHYU1CqsEvCTWXpzc2HBWpPTbHMqfAm97v5knvRZgzCvAxDTQCLa4KepX7FDg/fet29rdvW77z8h092+iss281ht2ywAHIsP1oZnj+/749CtP7BHCNS32/WYbq+z4bnv3J4if77a1oUG11NYeCSaw4XswxNezaiMJytPkxW/9uQ1D0vPpHGsJX6GqslbaVde6Wxuay6cy73K8nA9/YZ1OHDztKozhdBD9G2CMghL2HXiq0S4rs/mDV2lhZAQMfnDjdttubde3vrgwHTgwI9JxU04qv4lnu9fFlLmdeKE28cboQ/BplcRFo9eIDWztCyb10enePoKbraFKcgcw+Sn589UzJ5b6MV4WH9REKgono8rUiAG3mVLadpcNFLaOtd4A9LMfJhlrpTK380DPFcNwuF/17Nf+CymNnrAAeT0eNqKoJBOZrrt517JfC51MbzyPIn7bOR3GLk3lqBvXf18HtRcAeI16Qw2kTS6R0u4LMuaQHe/9JMmAR4x7JqxDjdEkoYfbz8DPws/Ez8bvwO86Z/gSaJyR0YRq1J6R1cknZGn8KFeh5Jx2zDTwbRF49lOB3D7ZiH9LaX2r1tff9gcme/SsWE9u/cDP2iTBRJOUzmPmWPmjHCy2NcRxezCA2G4zAfwEG32Oo+8ZreoJLpqr+2Ez3us2KpgrDpBC/zBxu/vIrG7wYqsNvaUYYzOJwQoaXySEdZWsNIIxJB0FE42psWNO/5qAepm2Jf1R3Bqc9Y3K6PVUmadNIgvVnhfEBamVZ8iR575PJo4fJAPrtyZhjetJ1qQZ/uoaXu+IdH6r17/6F+tUDEdyfvuouK+Y4ySaOfDcfzsyduKbcbVUFa5/FpSwFhFLL+pVMrDuJrJiy+12jub6hi1Iz1fw2SQNi+334Wduuuch+/uJPc+S0cO7iZtulniYOf0wcPOYRiOyOvNP1ZMHu5yg9mOZZeu3CieVlroz1obvaMSGTRN5m8fZ57MOe8UYWibXUYIAGnJ0QnpXbiK3PPRp8uqT/0iCWqmz7PlE8IZR4XRTx19HhFvAnYtOAqkOZ3ps/0vPNaZOSW2urlCqdQhhukWN2qwPIRt1smLrXWT19rttlAA1aWlzzrUY5NV6XHPAmNRG9ltx6/L4ydmEB1Q9wJo3dsHU9itlrLXUKp5WUWMSrFtH2Xwo0xUZWpSGrAHegfG7oF3Dyl1ux+/U/hes13bdlclYb1/ifjUrLFu7xRtY/a8CL/dgQ+rXZb61e2CiSFpQkhXmG2dGjn536tiBKmCLzVpExiTDht33G77xVmwHRAoDywEct9rn47CxwJeYlLH0rb7BtufCOV8YWGHDraf2PW/PyT7fqhPWMlSNyv5Aya9LGfJUoW/Q6fJWYbs5aTopt0gkDRu2E0f8IU6dE75gX4CnX6PXTV0ytfMIGwkv33w7efWJbxIVRYSlOy0ZYpxyp0gdb7Xmjo9b5m23m7IRC1rPFXtro68+R6bHTlobePVEaGKSLvSQVTffN+sERkHDto/j4EAqcBptItw14oRfe8AINwCBEZuMzpw5ao09GgusQUJvPaxVLpy1d6Voo9Y1xlgNPCZFSftGGvMoI4WSbbQHfAGn3ex7LoRNtCmPn7IF5Op66/zdrB900jms4OsXhd7PylThI6FiQmvVESjaIn5sI8VM4IWVb9enpv43FTRKmACDwIPZi8gaBzdsJxocs9U77rUgFdWqpI6Z1ovo0SPg4vcXl62F799mw+J4DsxxycTxAzbbFcPk1HBMBa0bGe3TjUqhPnp0OE2py7M9A5oJ1okyTqtkqBwpHy7x1/tSTuxz+u9gkOvX15QytoxmcOPNlpnH9n53AkbghTBRNNzplwBxuk1ynWikGqxhHO/dsJ3LRpUURo9fJcCYhOax2iBbHCSb3/YhOw+tM2+DZaFlkfwaSxS6NkOp4JFYw94cbMxaXH7DrWT8+H5Sn5lstpFJsuWuPEi2CnmNghMCYNQBbRY2t5l/Y/cZlaE5eLOYbfd4SUPGrGZgdWyEnHn1xWZTt2sT/Aw5d0mAVcpIZWlx5cYekev5qMn1fqyhqCuV6vhS8X0OIGPKRHvk1OnfLY8cexHmk8YQPu7T4n6fBwwRSyuwRx56yPXpiUSe6jIYAto0SHI6AGcnR7Y9+AkYB0Ne+f7fkhAYJGa2YgYs49xQrSo6rL9UO30oZbR0siucH4Nx6o0vUTvyXGOTtKlSxOfs88JjD4Mx+SGASfzGfdRW7eK1177M2B4AWx74cTvvTrz8JNGJWES79wkYI+8yjOc6iSDaUg1KNadmQsaRWQOsbB2WOFwJht7qK5tostmIHT4UjFMEgNgoT85eH9orXBf8GsyevW5iaWggMMbdAkurjQfGS18tzMhmv6i6zUWmSep125JG1NZ/+koTrg25ZOOLizuslEhYniKOl7p2A1wYKm/uZZxreKlwfK/QdzfrHvrZkIoeZEPzWZKOrVckUyKof70yM/6i63k6tWoDGTuyjxSH15Ib7/sgCerlpLRibqzxCjiL6BggCOJx4/0ftNmUWN5x4pVnLLNQcYTtzyZhyr0QTo8NeF39a/10oagpZ6rDAmratJO1WOV9Tn6JczUplNltsBHpnHHA8gfcE1Ot9XmN4SOy/xvufNCutyM/ehxYuWhn3eNAAXpQLML1aIfjTJOcggbcQ40qPVdsCGfvnxWZtcSDWSdJ26bTDr8+NLGvy3INZJOZrj6y9tYH7P4A7vVQxq/gGVlvGWyDqcPJNahpdi1vc/5giB4YY0EbmsIJmU5dvOAdvVvci42qM1Z/9Fp2fPrWbiHpQi85tuuHr5frShIRmMjkV3q9w78aOJmtkaKiU9m8WR1UZoivgm9F06N/MXLgpQYy/SgKyOrt99jkGkzIQAZxtR1JiccMWXbDrWT1zfeT0pmj5IVvfpF4mbwEhByXtZnng4nTW0Uqv1IU+gcMzKVOO3FoC4xYsK8/xJiqpqj872B+jzHHb817ckWX3gIdYaNKlq27yeraHtvzPPFS2UsHANuuhnswadOKdLavKxiVjJjRy9SS9ZyOp3AccKwzds7Xg8AW31+vZQ3XbbkGAg+fux/QCsFi/PtKePXGSPh/3aioTlu6pO2cBk10AsG7z4Md81zGSKt57MUezfZX1/49BW+UvwncqW01gw1guZ+9WXq5+wJN3XmJrBtsIyWIE1e/HU+N/J6S4Qk7d2wIP7KlE1y4V3Vo0CRqK/Zce1ZuJLe8/zN2r0dFQWji8Ehcmfx+Y+L4E7I0NuHYuTQPR9TqqWq3HpuPwveuul6bW2Okom/lBrLu5nuIjupJF6GLPXAHhRiUK/JR/7KjsDXF6AWJKDGnNByqKbN5eR6JWpGNwKE6GaXXb6PW650xzs7lOTVWqFHZs2KDTcM+uf95mz14GU06PpSRalqFjVGh4oAK7tM2gw7aNp+lgwB3/UBo9l5KKDWRKrtOOpm09qmstFhsQVKrmOR6l7n54fX3it4V/zwwzJXzYHE4pBnfI2nVeKZ84tV/M3107yuMMUmbBkHCPEL2SpKuP/RqHlgMoeM4OSkXs1jNjoc+RQ48+Y8mDGrluDbztB7RaRVLJ8vdt7n53jxK5XXKslGAohTJvMfFLxVccRoG5jS5vgqBLFPC5JtModuKNyDeXdQ5cbCZhu8JP9VDRWfAyK14OJmkSu5Bie1FnXZNR7qVWYobPsxL4zZFExDfGq0D3zLKN3ijvUyeDKzZbBNRxo/tI5e3txysJCzZaFRPEhlWWStDqA1otQBPyACY5I2wOh6TcaTPHwykli00pkctU4DVeb24O1ZMO987REpjJ21mZro4uDG/dvtvBCJ9dyOeByiShCmqkYNfGDv56h+UThw4WJseM9gLMul6IcnQupto9+DqnFK6COeCG7ZXcSd1a+R4HIWhcN2plVturx544lsmqpYUPHmG1srfkEFtWkfhlD+w6i63d/lawtyOQtA4dnVUxWH6M67gpTTX/6MypHq9cQtMbpJRZB0kqwV+QWBUmBTFRK7Y62S7bIlM20OLTI2hodbj4OXsBtfFRmMXpSdrs9kvOgBYemGvFZ1MtB3XW73zEjCenWASjKif6yYrtt1Fxl7bA/M0keZFg4cPbMFkwwULPu1sPZnSMpqOqzOHABwnqJftRWBuNxwntXEjQ3Zwo/t1HI4nWPlmM4XOXVBrEDDsNgSEZQXXh4OjrMHJ92N9lCdiGQ+4vcOfCbn3robS8w5vYteMOKq/TLUK80Ore7tXbKDAUy07lFEsVmy/Z4vf1X9LLQ5XgSHJgNkKzNXrRlOqgXBIXXeJPBTp0oHims27M/3LUfScYqYkTHhPc69Movo0w3pbSgXpsL7RSsZFkjmcfJz74mkwpf8AbAeVnrS5TowqJjmhkELP8vWkNH7KNtA+r4MN08ZNZYErDm4CcNyk7c6VbsdqJMLh4HNwI1+Jw8aRidNHjMSWZQuSbZ+AfGv62hrxrj4ysHaLzXK2EYdY2p9vJVB8awFjc/Xizbe9IOd4dV4mZ2v7UFkfkxZagLWgKfdaGx1HpbAy9apbnjjsZbrWAzhiLLCthYIp0KE0t3kOuRWWxsNvAsZmqiCwSVKdGiVnWyGZa9gY6URPEe6dDWV1DzDsULB8+323ayf1mQbzPlZXWDel512FEkpJCmu2/WbPplt/EwauD55KY5Yl5h5gKDsAo1SLwJEyoplweA1Me5wDUQxGPCb9tz9EOLPzO4CRlUqqABilCqIoFRrmGqPns7xs7VolVMMuo3+Qc9gGcNG+BwzkJRxaeh3E4bDLSSrbRdbd+gA5+MzDpDYzfv6yMIaKsk7BzRS2slR+ddDRvSMEeOaoCev/GJQnp47vfto0ytPw0c485kMSZscj2zNgwR3vTNio2LZP+f7lth68ufjIW/F4y4uIY0hk1bb7yOpb7gcWuZu88t2/bvYE4809ymbdzkK4Z0YHKqgfC8uTB0T3sruony+ek/BdABlRASfUZpUy5Bbw8B9Hg/OmcIiMSWXyTNOTvWaDWbMnjklUIpXGPVaa61+e71lz09Z6rbJaetlPhdS7q6FpVs6zNKPleDSkVflfA9TndSZuNjJ5LQ8mnPx0o9x6ym/+ITv3Ehfie7D342RDDkjNfyPNzT2ukv/BFeIwo/QMnsJ5vDRzrYwkgiN6AZvuei858Mx3SHVy7NydOFAKjrFB6qZuMMLLW2e7nfACyo2iWDyJj8a1mSerE6cleITEBcY6ryx7k9RnYrj0ro99HohB1n4XZlzH8MB+oG91Ge2l7hrN8AiCiW6qvCOg9K3YSKZOHyGNWpkI4TT36Oa5dsE9NzKciuvlEzKsl1zKiu3ALq47zAAEw5OPNV0tKHXPww8uS4H5pa7uZCPfoIuLmzL4MwdnNwSPHvgdrwH36gbhMWAd5CTeVIBL6FFxmF99z/vpqrseYoYyT1LeFRpSUBnXCxXtgrFw5WI0MqVtPX2NuRqLe+DNCwEcZ0KVb3D9Do/T7ULKOqOmwSmdYZQ0DJlNcKzDj3EADOzDpZpa2dOYvAOPMjwa8JiBv43Ae0rNCElErvTero3KhOSej/4yef5bf07OHNxlxR7mhhwp5YIKZwhY43LNGGk3J6ylvOSAQyEbtcmRQ7sT6csOQBHF5o29M0nPye7B1eT2D3/WfosNzYLNs/uLSl1/UpFLwLhwxhwn0brb32nVTU7vf5Gc2Pvs/IvjsQ5bazAQFOXhOgJaDOcBqXEBIHsNtYDSVBWxPd/sl9TL01fWhDeF3sPqDHFSGexSn6Nu+o5Y6fVgGwqa8BVKs43a0F5s4wfL1YNrKkit06YJ7WBXXWDHtuwCnRIrUozXqZuCWnDxtt2wWZqtV+uBnThibdx6DE4Q1efkpbZGj5KIMxYlOY8ahRUiwcy0XSfUxIKaSU7Mq9yYg8ywukP1aUb44/De6tVgKXY+9Emy+5EsObr7aeLBfJ+z3h3DRK9hTo+xDTXaq2LEscF3+Z4X855BEtXLds+P8jbYXLPMZMd7P0VyxUESx9h/FRYWCuBzPvsaQpfm6xIwXhKL1BYUuwZXkskTh+weV+toaSbSDgTLUSsV5npI505I09Y8t/uM0tAe+IeDYOH5KeKls+TknufI1MgxK3y8oCAHrq6Ga0bxahgY9OhTsDQxBJcBfMoYZH2onAY/sdqBREGquGqT47zv54Tw0vlU7/CWGhO3GkV7taa+IjQDoJfVzbCSFcY2SZ1mi0G3/mb/80alG3qdMLi3wKFbjUPPU1hqE0wozBuq3WbnPlueAEypaPsPApXkljmZO+H5EmNacqVKvjRPw6t3OYzUGKE4KWMA0QDmJTJQXF+BZZvUPsrwCMC5qsNDLWTUFllW99Ay6zSHtTLxYR02E40wAw5DTd3gCGYV6axJdAKOOvAyBbr5bR+xmaJtBYNwc9x1Se+qTTZpCGtx8VZgP0RkkVwsQcASMLY76YH14B7krNQc7hGAl7XipjvI6JG9CUBi1UV7oqeAuQo/tIFywrylI9nGJ1hg1CRPOU3hGsFQbyqdI7WpUTJ2dJ9VZgkXABARCKPKNCmAczCwbptIdfX0UtdfC6B8G5zyjbDYV4D/MASnkwHj1wXXkZYAmDoMsBsp8TYM27ErwRgqqZvAx0irJ+ncRA9zjpgyXUK+a/6gF/Fg6CyAnl0BWFQuKZkVTaTJdMzbh/0dpbjJzcLqcCbwypoxWIGhWXgAmJbgbzPwmASCdVBQfRhWznPwYa86nCMblQtzgRQAMSAD628i5elRMnn8oFVlSuY2dahwugznmZaj16amh70+alQFYyPYzuyCilm0majWHEvcnwTPlDgAjGGjTlBKTjcdUG7LQJba8S4B40KwSJS3wlY0N95qtShRcR9rBNsERyxFqhgZz1Db9aH9Zj245GJNcjDzl4Hnt9uW/YMlQI/Qcf2LlizYPVVUAEqyOHHtWae8GekS1kmVscgPruLxjbfxwuDqroHNt++UxrwrlPJGqdk6YHhdVj3fJDsXaMx0EgK1iWwmDJEYv8740QuwPboEgEsA+oZ/mDnz3f6jyTrNnDBm67em0DbW/KWBQaZhUvfaiQ3PAat8p2BmymHqgCP1Xl/wR2NjXrAMFJYfPBRWc6EvCAQV9znnPvTFYjrYtWbZxu0kqFfJyKGXARg9Wx6F2wHc8XuJcNKd1IZixNQBkGdajygZmYt1xEFQRFtk26FZpaakX7BRsWWaV7kexRIwXusHZm1hujZOtOOvPGlZEaZrX2I3D0AlNW2iYAzoqGbCY7oDCwILOwfz/hZAs+9RynVlcpzUZiaS8O7rAlVzfm/WI2HYx8vmGXO8ZcoyP3IDPL0WXtED62clvKpHBvWV+Q235nM33g0YGZMJWPxag+UwjvU4k9Zqya4JnfNtTe9+iegtHYvGOukFYFXppEWbmp2PtuyKMWp6AWh6BTV3Myo/i2xTNGsv4VcJvx+BnyPwOAkr+DQn5jg1Zi88gGmSE7SVPj5XXrH5E1kcgiNGkChJZBhThSJvBGGe+5kByh3Rbj9Q/GQ8RwDGM0TL14xUF9wItLEY+F4/lbNNq/F8wqBBzNIm/BIwXs6lior7a3bca8EG65ncTM7uO17Yq0uyb4wKp3VUPWqi+gwAY7GdFlStjgYAYPlImztSjObjRr30yiN/Z47tfvrs/uKsGGvLmjDbeJX7ada39ia/b91ND9BU/mMVZXZKQgdh2aWloa7Cej1svot7mfU6fE/93CHOi/y+dCwdVxJEzZyftrGNsVGWs38xZ1/PGRUOpxuBYW4UlEqHmUgwUnKkOekKtdfj4u+AhT4C66duFdGbWaFzutG/sc8WquI42WL3CpEprLCJN22K9+LydVAKzsj9YFQOm4uIhyMgp7t6EoUm2SzKX2KHS8B4JZYgMkVMTMENbT+dt9089j3+dZvGzc+b8gxLRKkZWS2/Glemjzl+visRfWrvAM9YxMqsyvle4cVvfmlm4sQBywSNlIwxPuBlu5cR4WwECnkj8Nh1ktIhkevPFvvXZZQxTpXwbqlIFsM9KgFbXL2zYSt9do0vHUvH9cU83/APux0gk6QWYF3CblUC+YJfenhMt7pMvxfAc4alugLqF2Lgn2WHmjEA0qOBlAdjWXklLcRRWEQTSsUatylKE2dY16rNq6ib6pdJOllbbJHbjhpGUhU+AUz0iHDdNyci2I/VttQCzEji/BqztGaXgPHqOVA0DAtvt/3Yx8mex74KjHLKpm6/yZlEERUly0F5cg/xsy+7xaEtVKTcdhJ4bKIm9ljUdEUk5U+tv/Xt/7F32ZoZw8RAun/5B+uK7FTMXS01Wx0R2hcrkpfGMLv/R5J6TNwTNE3RxSW/cul4y6/f2UjM7Gpgsc22tiFQH4X7aXOfgFNbUqJdTquu1JMeIwfjSmlP94oNL9z50c8/UR49ebpWr6xJDa55u/bSQ9ruO7QJ4vA9niOOlY8demLy2L7Kjfe+P+ktC+CHIdtWZMrxfJLpHrQNgZdW8hIwXoUr66yaxOb7P0QOPPVtMjN6nKSy3QmrBC9SOG6zxi9qqKB6QtTLx1VYqxInVWzX88XITFWaIg3k59Ndyzak/K4zsaFbQuHdU4miLPiRvkzaVDX3Xeasm6Vyh6Vj6bhksGyt79azMbVyU0wwmseHw8gaHkX3eq4z6fav3pPOFHfzMNgkhX+HpMI3yrT9xZzYUOrz9Tg8MH36KDnw9HesTFsc1gmC5MDqG6z4iLIF+bwtRrp0LAHjZT/iqEGKy1aTdbe9kxx96TFSGj1ptViLy9aQiRMHbQmEcH3NKJvRcXhcBvVpkSXFdr/H6nYCJZTaDJcj/bOUuTYjVAUx/I3OruVWGcRS6cP8DOT1eCxNhzbGiL55TiRlU0lRMjU0TeMwzRldwXnqPcRPEQmgpVqCFG3ONwyleq77inC9acxnGD0Sk9Xb7wMnW9pC/XS+aBPtGo2qdciXwqdLwHjVL6WgWiL9a7eQemmcTBw/QNJdvaQfPDxsl4QhktLIMVKvlhssVT0WliaOuz3L11BCWdtlGyj8K01zKelmCOb1i3ppwXQIDHMsInvdwF5y13bSuiH2PmAzYDK3xGB+Z97qS9kKh186ytGzEY65J2reeo7BQs0d3VKi0ElfStIMc3acnY0KGp5DSicPPt+YmQhX33wfcVMZcuP9H7Q1klRJEgEgYkmG1XOej27q0rEEjJdt0WBRVNggMTySKgllE3XW73zAZo4deu575MzB3YZyXtdRYxJdPkwpbzezegn42rknbx43eiGjR5MaMEpsLytUJ9Bt8azmlg/VtjVIYOKoYbSUdJ4xL4NrlnKHOW6aMiFm64PaUaZOBkTg7pmxSvOUGHrhdxjzpuKfJcQ8B6tciOWItZee65Cx469Oc5g+t3/kcySqzti9RXx4nk+E4ywN/BIwXoMHqksAQ8QSjqSTeoRA6dRKk+7yzbc73cs39s3MTG1VXn49llHQJSOzaEYLoYPPAQXsjoQ3hSWFnfqNBj4pctHYpBO9m6qOw4qWcTDr9Vz4SAimZYgm1lE4HtdKJyujJw7JqF6ljLNO5xPaTLgYHwCxO90ztMbNFoeEn+qizPaRkuYiPaPoLMc0HD4jw4WfswK72IQ0Adg3nhuz6mHwN50wX9H6JNWMUSyVyS3OnG3Uq2T1He/+aIrTemVidBx1qCh3UTEjMraM2Sx5JkvAeO0dUVgny268HYAxTfY88vfktZefYlvfOXwzY86dkWE3q1zPVpEqrokVRQUZoc1b2xC8kd29Ti+1Y0CkVryV6TgCuxKQJJUdAa8GDK5mlKwRreMkCDa7GYvgAOxOl40MR1RYOyqD+riMgiA5N0YvSNONwdYmnDGuAGoqMgxOVcZOnIafKFU2nx5mSd9ayjwgjNlKvdKVKhQHvUyhh3LOjFbxRYCx2YYPewZrnwqnT3iZ5dxLDzHX72bYjt6qVJhWCiWCogPsFL6PZxzupK2nh42M4cGZYAaQVcHlKm3mRYMZPavJMhdo36pLAjNjazFOyviXU4J93GX0jEvEQYeYF1whXgzi+EkdNjQFNsnokqzbEjBe5Yft5p2sc06NFlQrt2fZ6vS2B39qmXHT75SprgdDI9aHinRHJukhaEso3lJu9+tjmqwJYK9nRhff97q4sWUkww0pv/bKX1VHjj7DOMeNOQkf2jBKVQAQ64So8KxIimFNTgW3xITwdwBNVQa8qQGYxLMm++ICJgnhpFRToyL4rkjJUAFDM8le0Dyg3tioLDXIgRl1GnFjfzA1IqzSNrmI4C6lrWp0+MUIOJ8U5SIHjzzgoUcR8JJL00nxEQIjQyaZBpjPAdan4WvRXjjIWMHjWy1y3Zuyyzdt0dzz6TzYI7WNC5v7r3NKeluF+a8P27411gqKEahIZ+uxyTqMrvE4vdnj5O0prU64gn1VUPM9Qs0pRiluaIZNZR6F95kmjyWDvASMV8jEN5sC40Y4KuuXJ047+YGVGwjxt2vGN8bKDMci00+GNi2HGbulHksfc2WsrqhpdUe79o/X0SDaiifSZr89K5KVPMcZYU3gS57RuAeXtMaRcWQQSLgjNFCY+fRYxM92BSVpEj86M3P639fPHNrH3ZSwyKJ1YkDIrGrYmy9HK9PsUq1mK6YpnQPclzowyc6cNVKczvNut74fC1CxQwtVSjXCS5dMesP5J12smf1Jz3dyNsZva82bvY6YBU0ASep6G52o8b5Mz7JlPOsOadJZG7UWQ6JW5UVLEjciOCUfWTAKABv82hYrwnkC+K2bpVGmiZgtdZu5AGqug7Vls8ybma+Rouk6I6sqsV6FIAnA+HFws457gpQcSo45HB7EvGyk3BPCf1B0JAHHpXDrEjAuGvhFtrkninSfpQSEqjik3QMrxMY7HkyLdLafZrpuDrn/4brm98eEDUdgWiNNmrkbZnbx0vOEEK+hQXl9yLKVeTmHBXIEPbTfUgWYPof7eXGtdLRRnTkNLKxuPVwt60arGgxMGIcB9bv6trr9q24j3PdNu11d55yPAFMObFGKKPx/dFB7TsVRLByvBSzN86cXgfrWjWZveI52ME4LaZzOgjRNULcN9+V156SabPkCQ2HO1vy0Csjtx2hmYlPWQbUYzYzd4qfy3Uz4fsLuOugxSpKEEwDGKV0e++7UyUOHRSozyIWXBwbpgUflwEl6wGyzzM/0OtnuQYpq+Yy7Fjybjsvc1k6tuIN5U2z22gGKuSVWth5ZJQ2gGzHJwuXeAWN2hyMV8YBle4KeSQn9lEfjP4dReJ4aMgM+RUSSRiVLG5JLwLjAXhswwnzfMCkOryPlsZOEpNJYn5SGibpcRvGK9OCa9cuX37gjlPrWUKkdVaVZJBMvT7U2TejcGNu1F/i0rK8JfgiCphm5s3/Dn0bZZBV4Be57SGZUlahoyoSNURUF40bG0/DGqeqJA0/VJs+c0kphjTSMkg4NFmZpzVI9QztZcegGwhxXzyO03GwWKV0V/rVuVB7NFHriRneZhEEtabMzy/7oJQH/OUPA16Y3cw6AJeR1bPhiII9OAjosVkxXlnVY2xtMnXnGyfWsEIW+VZJxKybRUdTBgi9nvp8qpzh5bPzwSydkFArh+h4XDjfAIgEf+8ABXZ0bXHOLm80PUtQZ5m6eCpGn3EkxQGcM9yaRGMo0Te63mb0+1nROW4pP5k3ZttfCXWyJddgaSo1NJxVxJR2qcfPjHicf9Bh93qH0KceQ/YKSg3CRo+BUHIPbVltKlloCxgU5sOyif+0W6qZzdO+j/8C9XFdWMufuhqY/rZj7jlDSgTCKCIKhImbWQzXk2iyqbwEgaXYPT+JnWKWssH1AxcRh2SgZEgx7AQkEZlfXUtbgn9iBvYH7ckTFYzoOTqqocUbH4TS8fYYxPhNMnhpXjbpEpQ4UXsYoHheCUeHmBzbesoMPrn97XRpfqc7ZokNJ5Mn6D6rjx//PuDw146WyJFfsI40TJbCZ7tKEns9hmh1aEBzB+zEyPBmVJx9vjB1bnuIixbLdvRqTcrRu+75hyDDivDfTt/ITm5avGSePfuV3g0qpEdarNKyXUTUKgI6n47jR1SDk+dhP91HhdANp7AP22Au/F5lwc5RzP0kaEmnKcR+Ve9hcw6ACBuMevCZDXT8LDpivaVKmohPu/WaGeZW7OC28b9UzR+CVVKkRsGbvdDi9E8VeM5wd84x+MeXwP5WEPgr3r8HpWUK9NKmXgLGTIwvWuzeoV5b7hb412z74C2uBKT4QGLqlrElXrKyQN1AffS5//NrgDbNs1jJAzSwbJBqYoMRwKNi/OpXRmK6XDlYnTj1fGTl2ACXtrJSkwTCpht9JaOy+l47gUTdK1eFnYIHTtmm0hZzWDmH0KymGlliORzJdfWDilt/NCv0famjjR9jCqxObjaAIjNBn6oSamviD4y8+tieulRVujdn9K7Y01RcgfDInFE2s5q9qVF6ojhzB3qCFlOPdK9Jd2Vh3RhvRsE/VoyKn4he3PvDRv8p39x3Y8/g39f4nv0W07ZnIwCljtdrkyVEKyAaeDgAgcwD3UvAzBSfmwr3GDCeP2Oe4D7+7lFEMueJr+lLdAxtT/cu3upnuVcz1MoY5AkHToMBGUmTKzq6Ic28pm6txTbeSl0yyeS4tUBoScIJ7kisyKr4Xfv5IEPoYXNkBuMgz8NLj8NIZeFTMUn+qJWA8v0OsbejUtm2hzJeGvisg4uMxYdtDTZdFivhSEwHeLQMvjZlrJMg218NMUuPp3O7gkqoogB9o9SKiVAzuex0wbQqY3ySA4FFgBrt1UHtZlSYOq1qpppUEkGNJq3BMBqFUz9oMbFMwp8hqtt94K9tQy1nrgkZM+Nlhr3vgJyR3V0vV+drkcGEeNzJj5DPKcV62zWcZtZnCS8cisUcp0SccA0x5XtbLN9GwtpWlclnb+Ve3v9toZdbgA2ux6s6K+ANmcuw/rL753ir6VXse/QpJ5bpxvsF8JdJmFDd9KGNvdJJAlGwjGmZTndEjwt9tkjICqcjHqGtK9D6Tq9zE3NQy5vo9lIkCEw7Wc3oC2+LYkhTbjCqNDNh6dM39yVbt5tUegqWzTFITcOBZXeoiDMQ7gE4CQLLA53QkJfRzPqPfUUr9vdQ6wi0MwZayWd+iwGh7IpI4qBEvnZt9ErAhVehf0b/zQ59dBovsJi38HZGfvb8m2eoQexUqbUMu14Rj1QK/5t6g7WwO2MVtsSSsEkx6iaOSDqvHy2deezIsTR6D12HRO9bv1YHdVWGQKmCQSgCONhQKYFjXcWCTRV8fiTEd8GRrWcCfzxQKqzZ/zhT6H4woGCGt23YyTDP862PNYlT+XmN65HcYMSMqDg0mTc2G9XC/CUUX2FLd18LEGkjL0YmNDE7JyuTjtdHX1qYofYAXBno1bb98o1Xy0Yi1W+Hq14DnNQRx/2zNjnsDLjh5+eEvYwPgubf+DXU9Zu78OgvgyKXiGOBRleLK9IRsVA7SCe/7jDsFAFBkuzkAzoytEWUM9ykzAJZ9FIAz27diM88U+rnr560QAjhauHeJM1W39ijN2S2Uqy0PNOnEAw+VOAjg3IuG1GmXk6Kv6Mq0krelObtNMPMiuBYHYRmdgmuYhrfUmnW3S8D4Vjg0ECI/10VueNtHyOGnvm1LLZSSPZHWH1Ve7r2kr2sNuE4rI6m6MLRji5dn+xOaq5odUtsSBzNCjWVQwPSwzZW0xW/A/qiMpwAtzmgZniIyPGjCxu5o/MS++tRomaNCP+YLUbtVigVzKpFB00lZg0kuniIDw2gV7fgk7UcrowR1/LW8e+Ana9TtVx2yRbRH6OWmOCnzWu0fKjOj+9OFPrls445mZUazVATOO45DMnZkb4uuLmFdW2HU+HxIhz3M6qpR2RVOnfmuSOWGnFzxXtzP1R1m4uD2xGSghuG2/mvPUV/x/dSZ4RtvteCz57F/II6L5E5cGvJa5FLJTwXurZY1Epm6IdVRK8OYtKbAbbckmRpFDoBdUsq7mJda4Wi13cl1bRB+ZhV1vH4qvB4q3BwQS58nyT7wLgc3HWxOUisx5mpFFN0ck0DaWslsI5aby5xtFpTMeJweTzv0ELDJ7ziM/109VlPmLcoir3tgRG3BuS1jgAXB/M54y264JaOiMFsPg2F3cM0HK1p8OojMUChjmxqdeIFz9+Cu/gOZoctMRGszB2aO7/8hzGcsUgfmJ0tEyimj40kj5SSA4xQMxBSRcSWuVyOGxd9NEJktvGhFQ2cHYE4d3DwGA76fuJkcS/UsW+X2Lv9USN1hNISdMnG85pTDiGeCr9Wnx74+eeJQXJuZbIq0zCkrAS8fG0gne2RLrLFt78Oo868CWFQ6DkdNrfRUOD26yS30bRRdg/3IGjtRdMK3BNKQcqSH0o58Jyf1LwvHDdfcfK/tLnH4uUdIUJ4mTipjW7mZSzn/s0zSTmxqFX6wTJPNYZim1fwX/hyPa6NO1seO7eczoz3UcYvAMHthYhWpcLood4pNgYQi87PDbtfgegHMUgJAqqs4qjT3DqIzirUcQbKv3wXOdFcqptuyrtmZdcwgXMfXHEKmwI6galMVb0srErUEjNfsWjbWGA6s30Ymju4lYb2C22GCML4+VvqdQRjd3X3TfTdkCNtRDyNYhDGJbf4IeV0m+zUWJLYNVLmJn43Gjv5+iPuBWkcUabKx0mdYGqFtogwqswAYUpTJtGxxbp0bXbSLxy1Mv9Db3b/ptk/KbPfn6vMARTww8y6lw71gKf9TozJ9ujx+mlSnxs7PqG1PzCWsawumzEWkKLDYXsZAQMyJqDzxw2Di5E0pN3U3sMd8rDpjT/htdQDHShT9Dy5zasKob8F6Djbe+aB1drGNaWn8JKlOjhInnW0fGs5ZqjJHRAEQ2MSmGkVBDZ45Q2xSD+49Jkk/AA9YX5kinPe7uZ57uON/XGS7+q+12o+5lba4x1/F7GBNVjWU/m2Psd+G5fWya9ihFDff49z8LTgLE5FU1/2sv66AEfeTbG8ykkg+Ythv070fYPA7Z2eOOk5X300R938l1s6H6prlo6Bha4Hm9iy8lp0hW/8HLmy22NtYeeNtxw8//3CIe22JRqhJElFsWKTJmFjTW0a2eFlYlMEyReFkiztptvtnIur6ah4qmxguTjM9FY0e/3eVmdFnG7WyQdF2xpdyyi67hcX1pmRNh7Vd4eTp7wCzyqaXbbiZiVS2kyg5rkNlNUP1Rp+rf5F12BFq5EuN0hTZdPdDxM/kycFnHyavPvltoqIQ5pU322hkflNUnY2KGNvZNPEMtIkTRslbF4z7q+BeihFGdA8XIrT7j0pfq3dwFiUxYSdUVkgfzcU2X7BtBZe/o8Cox5X6UiOSFQDNVq+767JD8nVkQYxlAxhCayZc4G0uBtXSLWvueM/bl1N2fyD1TVVpumx8fVYr+cqDYWtStvInZ2dbmwYFDVCkjGC+X+hbuS46se8ZkzRkwPL7kGDi6ZUMgyA8pwo9/V5x6D2RSK0KgaV3rq9JSIoz7cn6X5w8uvc740deCZwlULzSk1jpMDgTzow/AjBZdNOFXt4zvJZQx+0ovAhvqQJ94VRhqcG7PEp3YeaXbb/UqJFV2+6193v3I18lwk0RLK9dnN09+vrU7pburJLGUBaqMKxjWzkLjB2yKdZUjDJz1v6VIp9zTQSGwsE5wVyLrkib/z0tyK84lP0Inj8EL3saXvIUvGTCXGc1kdeNFYmDgKy7493ETefJ4We+S1Ld/TnJxc/E1PlvgtjcGCjlw/0VRpur5g7S5oKgiRglmJUwooDqCtxPRR0h21wdNoMe/hPFsuATTW958CeJCwYjne8i+8Gz3v3oV+H3HrJoc1jFF7RyWhvu5Xs383zx7SiSrDvcrsTxAkNJUiTc7zn0Yc5pxWbgLpVmXHHWCBY0AgfoqA6qT6t6+RaR6+4VXq4XAMQywHbvt2qWHATK7PRdUYDvmUmInSRhtUR6l28kb/vkb1it4me+8Z8xSba5v8wW8xqb682SSUY5LxAmujBzrZMteHRcHZR/UpG0uunCdbEeSjWB6UobLLwelKKLA+mWKFkjKF3hCSpzLvtozhVfgOH4j7HSQUpcP3v31yYwghHE7tXYCNjuGdlZiiXAcffQDbfclF+27jbpeHc3nNxdkWQD4OkwZa683Wi2XSC27MpmkFK4AbZ8IqJxcGry8CuPKCVz6WXr7xTdQyta5SGmjQmMmXGx5qt4ytvAOD/g+VmNIdSNd7zTjtWuh/+GpAs9C2goWntQFz40+NZ9a7asza/Z+hmZ7trSaSG/nbQwbmmqRuPxE//zVKP8g/rMRIyGUsXRpTkQmhPbZWkpM3Ux4gJg2uOaDuu76+PHvq2M8tOD627jqXxed1DDgbcIjXIlUg+kBf8Vl9EvALxOtYAJk0rRIWK8SG576NOWOb7yg6+Q8eMHiJctEEe4C44rre/Nd/VhsWza61+1iWfyy3UH+r4Iij44eaxWPjBzdO+jUsqe3MoNdzi5vhWCO6hqkHQYmZMQaBPE59+Apu3DZufDpYPD7sYaH2RjpOVvpDjb6THyFNi0l+F2HYSXjdNrnEFek8CIewq9qzaR9V6KHH724WSvTIhVIWGfkX7mJ7RfXB/Fyg1iaTtZXIk7NLf4n88CobHhUhM3pA4ao/DzdBw3jjGjDjCtXpbTZ44b7uykUbAenlsBrihpa6k128ODy74M4PYnmCF/WC9NzhitjANjBeuXbLj9XeTwj35AUCqt4z2ZBIGb+zEXW57GCiZoytxU3/L3se7BD8aKu7pT2TfMvOVUp4x8YqY88ShnvNa38gZSHFx9yTFxTPUfP3GINColkmTrLx3nt4a6/cmBZT8yHpO10mMwyYpeoW+lQGBEoe92gbEZWqxGqt/l8hd7fHGCU/bFVsWgBQtU5IHPLvQtt/d2I8xxzGAdP3aAvPbyEyST61rQjsqzEu5ciFShZ6Xfu+w27WXyss063JY2u89IWXDzaJ2ov2mUx/qCM+KMrpW3MdcfItzNYRo9c7w0/FsYxmxpSCtzvhVUutwunkrqTXHrZtjl+lMA7h9PC7M/64pveJz+KVi4Y3iBzjy6riwB4yUc2N2ixQ6BYKFhZ8Utq7vAI+1V1FnFe1f9dJV4H20EOhvq0HYOIleo1MJmP9pyKJaAIXiSTMEFxPXj1ZFjj8WV6QM6Dkd0HIwYGY7DBBoDYJyJGjXK03kqazN3iaBnHXrZqo2K4dZLY0W66lJ/OOewH2otHzdKxUG9QjAxZe2OewnWLL626wmCOluzjLst1G/GQS/WOAtDZ+DNp3t6Xe5ntrB874dDIsCAdJ7V5nBMuDGHaKP2J+WRY1PoO7t+pq2bjPcF59DrR23peBMcadUpoBij4lBHwWuyMvNUNDO2Q2S6Vwk/52rT2Udi6H0mlMMpwT4L8/r/gyVWft3nwD9sOQ4ss+Ky1QTnRK57wGZBjx/Zswh7z4YqrbMA+vfyXPfNssPEGwe3BYh+kRr1ZYfR501Q9WsjR/YFk6eHmHD6qHB7ARgHwK0c5H56udc9uFlkCgNceEIzbouLte2m1hQyuIxT2eZCYIgVO34A8a0LfXOozcqcywfhRL7kUHoaCMEUmMAyIeSaSmW9+oHRGldGelZuJOXREySKa2DMPQduys6IiV8Y2PnuBwJF19TCkCBDTKSozGVNqGl5bKxVYI8iK5hPLsMSTPiSicOjAIL7VFh9MTh96Jna5MiEVlHUVJtRNkKhYtQRRfmpo8HUmadYOn+j62d3tA3rBo2IFvWYbPAY+YDvZZ6D04rPhoAE2XTPQ3ZSn97/IytwQFEFi4tLNx6zLIJeNOQkHI91D69f4XQNfMakum6OZNKCqxOFGwEDmyLxGVEr/2FUnXyiMjWqcJjbZ77G7kOhkMnScQE6Y2sXWWcrQksDwFg32rwaTJ1+lPvZ1W7fis3CSbtxBwBiIyEYUo3V7T5nH3QI+RrMobI5R+xVRiGJw4Dk+obImm33kFN7niF+tmuhvV8BnuaQyBTv1yI13GnmrYuSVEHp2/WpkaeB+TZUo1pVWk1Tyg5SLA/hzDWUZ2B99gkvsxaA82630LuN+blhAMxuKrycEK5rgCqjIk/irl4egJybyYr3B2tPY62K9Vh/NiXoZ33BThiiHnY5+U8OY8/Ss9KRS8A4//WZlBms2fl2euLlp3i1NJlKD66+S2eK/3o6IvfXG3XrsehmLfrlbO1EmzOD0WQgMcghiKmaytSe+tjxZ+PqzGFilWbiY2BkTjGjpwSjoXCEiuNGU0Wmeb5opFF/VMmZsDK5i82M7XF7h7dS5ol25zhK1zSUSWc1uYfrSNA5zA5AGpzqOrnhnveRCFjk1OnXbJ9JKWMSVMu2ppEtnOA2Ja6b8Qr9D9GuwQ+EzMl32lLKZqEKpp1q6SuTr+3+C3Asalhigiy4s5DwEku81KBhx+/VUhnFxuLy1OM1emQIvKSM379mQ9whSTc2Q1K5KU5+Iyv4DGf020Dc5LmcYNuxQ8bWfnQNrCSNyvSsLZm312wNjXDAvVumHG+NBherEyEDdKQ9zk+FM2NPjB/dV/dSOet0oloVivi3pimlfJpqOQpfebIxfuIgvH4VAOIwc7zlzM+s9LLda0W2OMwz+T5gDWlt9yXprJ7r5ZCxbI0olr9VsR4SXHGX6xU5oX+u4POejMt/xyj1oyZz1Ff7ArzKgdG0QpMsqlVXrL7zPZ+IufvJujSby7GyfQ9bhvZyqha1GrJj812cxEzLgBtVo3E4wmS4Z/rIy39WHj1+QMVRA6ZnBF5zZN1vLXUr1ErPxc7wJXEUwGWfVEHtlImDgPl+tl0wQUIXGMNiwrao0qg02AzjDVl6lYnTZNkNt5DhG3ciqyPTI8fIoed+QLjnERXHC8M4YEUzx1/JCn2fCoW/ItJJMlEntwo7Z6Q5PRWVJ79+fPczM44jrGNBl7RPr25gNSZUQf2gMqP/5OaLG/3uoXXc8RmG4Ex7nzSriDMV6G0izX8VGMnTAC4TgrFzfhZKD3YPrSS3f+Rz5Om//QJKP9qkPdsE+1zgaEu4zKWdDaVuFAY9wNK6FDI1o9q2bJh74Aj+ShBUj00eexUc1Iydz2/KqAUDYpSO4np5Ar4Ye5seAuvjW41X4Qw23NQGr2tgR3pgxR0i07WKuakcZwKZJkagRKL4Ty47i0TCMgPGKNTkQ5lYvyslogO+EP8Af/pLeBy6msFRXK0LKulUhKnXLk33DPUZP/sbFcV+vBbJgQAFca9Q4YxlhyhYbZQ0QfVUY+rUS2FpYg+wwRNERq/Cz8OC8TGH80jWGjA3hZldghdNIadN1Q1s9KsmiDIRI53tgiGYRlKmi939nsdY5ZxwdPbESCpfJEPrt1vj8cxX/5REtQbmFszLpQHf1yfC26zd1CZYHELPQ/bNB0c/zclz4IkcsBLO12JpBk0E7NE4d7gqrj3RHtttRVdJxA6pRu2Ajhplx/G6YpokcHTIGkldsnc4jOY4ZxMXjJ7E1oaQOz72S8T1MuSFb/4XMvravrkNBJJ2Wu3MbNumhjkilVupmcjqThJgrMYvQWAcBe+xjrbhok5esomJgqzoueJ7poFYjigdH5Ulc7AaVl+kTmoNMElglG4f9zN9fvfAGieVLRjh+ZivgE7z5Yxn4pqvw/1qSJJ2ON1WcM3KLp8Me0b/S4rtrpaA8dKXf1idJoMbt7srtt17R6jN+2Pu7ag52dvC2HRJffkA0dDWviGzyTQ4kbFHIddRWZUmvjF5ZPeX6xOnDsCErcGKrYFbV4NFFjEGDrGUHbQ8ssoayKkicAqmgDGWwAMo0g46FeDLQ1yx3L2PcfotbPZNL/BahvrJDsNCT3L7B34WDMgXSWXyjFUYaTcUg4ktmZ4hp2vV5p003/sLkeH5+Xirjq1ZlPtZHP+FjKJTmNHaKbi87qrtcF8O7UdqMydlvWqzqVfedGfynYyd7cpgu82TVruQ10VMsBOSl8qQiROHyK7v/NcFLLe5XNYRW9PEE7JeejGeGd3tcudmMNrZ2RyutsGRYtG5yAiDe1l/CE+Nklmh02TcEklIOvvT8dK2TGr7gz9FXvn+35ETe58hVsFNtzeP0LERrsey/Sv6/IFVt8I/cpj40nbtotU1xuQbc1TJuBE1as15aMCXTCUKdBe2dEnLNxkHmAEMTnCJ1ssHSbIfmSXc6aGOtz6cOrMjPbjqXr9n6EbuZXwDc8l2BkEHDdvsXYb+Wa2+lqE0bMboYqSjT+QcOuBz9qxL6eNw1c9gMGAJGM8zfKhooeKQ9K3bWhjYfNfHSPfw56U0OwJAwwhLLy5DLMDMCZc6LJm8JKwFsjJ1oFGbeVXVK3uoil7WYX1XY+zk6bhRBiDkprUccaWrZri0/b2MZgExZuKoaAK86ylu5DAH9890EAqxjUpj9VmX8mNwKi9pff6CQ5MYMHsKma5ecusHfo7s++HXydhrewmWerTj0qMt8vLF5bnhDf8scDMPNNQ81h6ceMbhpHZ83++XZka/CwYjwkQstgAhVAxnBwBW9fLUwvZtpAkQYgIIXrkNkZGkKN3xfJLrHXozMGIWM7YzMonR1NZZOQuM+D4vnbVOx77Hvpa8r8lAcZ8V79HC7CXNzkGyYLv1SXlPXdZKP6qOvPYNN4qc3IobdkjmuoR2YJhR+BpsQlWqX3Q5DT3OvwBjNIFJNxigFdgdSog3jwdcVybfTbY98ONEOA557cXHSLY40MbXJy1mmJ/ys/3L7+DFZbdE3PFJByUo6GS7hFRNFJzqHloVb3v3T9pzRgfp0NPfgblTtwB50c9OxM+1kVHDSAsuU83JJWAg9qugutfIYF80M4b9J1czLzXE07lerDNx/Gya2t6ZZNa2LraLiB2L4NZl6zH9QEqYDxQ880Ledf4vTvnX4M+1JWBsedIwWWXYIIJzMrzltgIwnLXZlTd+SncPfmqyFvQGmiapyHTxb1rS6R2Lv7kts3DAm+Rh9YXK6UNfLZ069JQKG6MyrI+Dl1aCl4YGm5zRs4FO25livpudiCoo+B2Hp2VtZjdL55axTHEAOatq04Igu65L/Q6P0ydTjniVCl67FCuEa6RemrQCCu3u4dm6Mspc6mXv0H7+Q5GmQpvOM7VRTSNN1cMzY8e+Nf7a3hoq92CJiZw3Y0QBs9gmI9EFdriQzfqZAhm+8TYLviMHd9k53gIyFCI4FzC2GuLqZiM83bxXuK3QAtVV2+8hQRjasCpGMbAF0+TJg+TU/h8BQPoJw/bTnbPgOZ3GFm7F2RieBCN9Qk+b78FyHkz3DK3mud4B00GPU9qc2+VQFcGd+Vxvmj/ucv6IbQLQZIhYkqTPUYMpwfnO9w6Szfe+337OmcO7Lz0bO3F/GQDMgJvvfa/0M8Pa2Eaf7UdBsPSaxI+ZWL+UynXLbM9gc1s+capO7HmaoC4sE84ljsicMIhFOR3BIE3A3KmEMjoazYz/AC60h7n+sEhlsQPKrenBNbeLdGEAcww0TcYLRQq0XlwCgiH0ODYERT5ibXbGivzbtKNvAtP512BPT8A1zLylgRH3EF2RIV2DK7mT7e4b2v62f65ThV8tB3G2EsTY/cUah8WOdLX6GAqcVGF5JhqffFUZeQZA8BVdL/2gfOa1l6rTo2UusEoEEFPJpDu91XNblOQPpaLGycbk6UeVNn3pldn7Cczmtj8EzrahtJ9S5N0p1/1zx3FrSumL2jvXS5MDT32bTJ0+QlK5rks3XFie4aeZn86vcAr97wkpT0eycwBDxp4h0Qkh9R+ZOB6NGvWzjYcXKDyA95AucI0bypJ5mTyA2L0EjCiZOLafxI3KvFko7pchZ1l9x4NW/QfHxwcWOXpoV1LOAvcNHbXRI7tJHCRODRp9a1wv+R7KNxrbhRpsXDeBiYMjJqg+HU6PbPcd3xN+tkvSzhqAN8C4CqqH866+z+XyUThn3TIW5/08+HujWiKFvmVk4x3vIifAoXAv9f7bxt/cYY6/DhbGnYpwv6O6TDjFlMN17fSBP5spTe4Rb0hqxX6x6PDUTYd9SegcLxVDrVqHhpJxDD7osOaDw/18XJvZZaLGIZHruYmnMkPgbeaYn+sBM4NSWU2Vm8UByET0JHEn6rHGJJ11XqR+K+fyf8mo+s8uZ/8L2OSJlnrOldhXvzLAaEwrM4wW+ldk+9bv2GH87Gcqin+iXqmnw2bGGlvEQaHNLve2zyjG+6kOWL20q3Lq0D9OHN71mFHxKRNFo8aoCrxEC1w8rUjkYmZCJgsbpnJjOpgZez5Wem16aO1O6iAwtrfZiKMYgp0LhbkljuNeRuhxFDomF43OaOKmMpaZXbrBSu4peL75/PJN7yO9K98TKt3qb9x2OFtgSFeYsilP/F6lXnk8bNRi7L13TYiE0yR5DPeNmFLNMaQLtHSMLbOxKfkAjHGjassRbv/w59D7tmD5o2/+vwR7UmKINapVbKg4KcPhl2i2zOJYQ9v3U1eAOb4UTp7+PmUi7Q2s3srddBozGDuZJ7hdUI3k+11qvg3m5EUtZXyxOYuOsATWHtar7TFrm03upJmX3qBFakgam47a9lAkPUSd10YO73li7OCuQHj+mx1MuHccHvNOJbUJCso0W40nXUKYbqhaeboSHDhIhRii3F0G3tPydP+K2zPL1t/mZLsGFBNCLXLJR2vkI2x1hds+0vgwh3+54IuSz+lfgJV9jRoTaHP5G1xeEStjU5K5S3P9K1Z3rd36mzVNP1OXxEdAVM2N7MX0EmwRPjWaGRUwGdeFkiUm68/WR499sfTa3qdpFAS2ozF2s6fMnCNksciOg00di4iOR6iOT5soKNOUHqCEtW2y0FjGhmUbjVpRB3WS7u5bWNY1u/7Ay2SEp4tDt7v9K386EJkB1aEearIHA2yIyoPTp1/7m7GDL05j7WVHKj3X+YGGHev1MDyL99rAuN32vs8QbLiNzP/4rh+SVx75e7sHmWjJXgkBseZdRfumJHbgOBnMjDystOp2csXl1EunKe1MRxWvuRSpnZ7D/m3OEf8irpb2gQNliOsucH2CaQo5OQULjAgcsepke9SGUV1mfig4r2J4XJxvD3/Bzn+uBJgVX8C6lWmYEGUi+RHDQhcAsr8xeuwg3J+RzNDq+1mq0AtkwMeUXk2FqxhliyVo3irxwESgmUChNu5/n3PZL2Vd8ucu178H5uoou8yz9rIDI8axARB5/8adt6WG1vzmjCTvroGnINXia5qapsH1ABRFVDtVHz/5ePnUocdlrbQbGOJhHQfjRkppQ2udalctnBExRqqGkfG4ksGMMErDqmTtqsZomw0GAJVOb0m5ziNmPht+52EwWNbh5YpMRmGXyPW+X4r0jrDD7hmte5QStOwY9b3JY/sn4rBh+CXttXQewbAp+9dJy6oWUAZRRPpW3UDe/unfAnZUIk/9/R/b/St0MM7ZfcLu2y76KgTvN26YODoS10ovqUbl7U6hFxPMOtJRTWobNZsO5a0upT8J8/G3kRAuxmnj+vPzxcFUcWhn3GEyJwabPE4lN2SXVnGcCI9fEVlC3KPCPnTSxGFgtKxTYPPB2NGRYGb0eer6yxl3h72ugRvT/ctvcDPdRQmMRi5inZxtlgzjXA0VCZTuipT+VLfPUx4TmHn8yuUcpMtgCZKEA9Q6xUxCJrz+nnXbPi5ThZ+vUXdLGBtXLbLQt9UYZ9wWiTtUEx7Vd0Wl0T8pHX7xe2GtPIUZc0apCAvwr4r6ODRaSbhWwnlNAtObpFpFnBFft7mGaJM1wiR7lzb6u0zH+y/6CTrZy7pkgwHnCwYj42QK76D5ngciQoVuU1C5tTDwqj24BRlmXuKx/BtwWOSSSE3nTovtPiE4yTi95M4Pf45g2G7Xd/+ajB3dZ2XSHD91BYbXZlFWSBwejMoTu51C3waR7sobq9jS/tngjn890l0NR38wl8l/CS7oSBQG6oKOLcxZGceXHErFhKp0V3+6MLx2p8j33BR1EHWxwiAYCWFmSoe1AxvufI/CrYGTe58nrp8+j9Pp2LDqokYTbTZTjJg0LrUqk6C+FzAwi+IBql66hRr5UGaA3edmC124pYQOr9J60Ro0YJkchtZLoeqKNflE3iObs4J9WWn5l/CYwO/liyz+v2jAaFOnbdq3JpnuXrJy+z0ugOJqURz6hThT/JmaZr2om7kYN9zMCTPZkgsAQ1ObPFYfO/5PUXn8CRIHP5L16qFwZrxqGDdWQaVVXkGvCovWLJ0Ab07JUVkvH3GC6laWcYd5s69dO5MeZ3xD6nsCpX7CI+SPYMwnLnzzZAJ4lxZgQnUsN9s7vFMUBz8Te9mNcXPBdAKMDhhxN6o8OX1k/69XRo/vBuZj6GXrgHH9taHC9ZUIZQjSNbDCyv1tuf8D5Ia73kNOH9xFDjz3T8QDgMRSkMtLa+GkZHSkMXHyOzBdiqll6+8Rhf4iZip2Ym3BkLJSpG7wfPGrcBe/ABd9AAVfsNTlXB/HuGPnblArk6zjNff2zQXplV/oXZvqXfFQ7GeL7dotq3RDMFpFAiHjJ2GRHfZSGb1iyx2ka3CVLcl5k3F2fTJx4iAA53NNrdfFLjgEY210A342jFTTaHvAgRmpnzkyKqsz+5if3cj8DLDIvlVOttirucssc9Z6UQL0KBxfiVQ2lPruwBPbih5Z7jHyf8N9PYO6q7SZvb0YkT2xWIuxb/UmUpk4Q2ZGjgGb6E4NbbnzvRF1fzpg3gcbkohYd5aYcXHTlnS24ECvBACiSzBs2nh06uS+P5s+uvcpAMQxY1QdM9j4ueSXrg5z1hRxpiguPi6r089E0yNrXccvMD+XbWdno9UhKtC6K5D63S5n3wEv9YLAyG091SXcGbuONCbqFUWu9+MmXbwnNsLVHe5hYhJU2oXvLk1/68zeZ14IaxVttVAvlyK8uaYaALTtbKGzSsDu9a3cBIY2Q1KFbpsBiR74wee/T1zHayoKXQ4OCZMnDqfiyuQTSsmCSOeWuV19RdphhirOuFqk3Rmmfh4M6C6XkcMotIEZuef6PMSAXM+A1Qw+9eqLyb77+eYZvp8TD0BhO03l74QPbak7the5QtFwokdNWPtL4zinwnrNpPI9mLB2TuOOij1+rpugWAiW5LDLEs2is6Qevjg0Wp6KS+OluDr9IuHOkPDSm2Vl8J7csvXv4IW+VczxCY4HOusYFl5ojLLtraTtY5YFlvprXR4fzDj0T6lST0ltIrQZNipyTQAjeH3F5Wth8RXo1OljWbi774jc3P9RM3wdpli36swX8mJsGK7JEIUKA12dORBVp3bLONwNE/H75ROvvhzXSiFH7d9ZTe2rmSEk2alEhuWoPPU8TJCVPNu9Tvi5DZ2MTQQksMH1uqxLNnqO8/SFrt1xEw/aXCyECgvCcVOuyHRt1H7mHaFhedlhoTC+3sPyDEEPNqL6DxqlSe1m8pfXGdGLVapwNU0rautT4zgk+d5lpH/lRlu+EDXK5PSruwgwhGbXkcsgpqGlIoqN6LD+I1kvvQonsUMIn7VUpttnGIaUI53OCPI2l/KvwF2cTnoWvvlaMCs1WxwkN73jo8CcXyaopnQBJxmmupunbmqzBidQdihYwRnVjol3Txx55RHOePViNcJ47liTikpHkycOXH77g46ixgREUyIYYlXxaSD6rzVUfIwadcapTG1nXmaYp7JDPJ3v5o7vSr2wZR4tM433djpUItLmk0DXb8kI/iuUyB8CLMYJMC7sml1wYLRsHH6G1QrvXrFxZXHjrZ+ORfqXK4r1N6RaFMqdiHozW9vlUzkhS2e+OXPopb+tTZzab0suiKoBaCYJHB0p0lxBR1/FUdyonJJKvZJuVM6Ar7qhE6/a9kyTZgAm1s2e1l9qKmac2/uW4qLhCSxH8LIFlu4dHhCF/ncaL7MWFgXrNDRu916oqjoq/K/AbvexxUy2eQuFUs+/ZqhN0KlhETkY6Nve/zPkWflnZOzYfuv5X5ZISpKJGhMpT6p65SVZnryL53uHDXPdTmvMg1iTumIfSXHyJU7MPyUG6c0fhtcc1pLuMoCSc0QNzukyAS5mehk4pZI5thNNJ5EswXmdR9Hzp/c+O6WiyFyKeAZG1WxfVwz3Xon1QJtU19g61AjGYsw0Ks/Vzhw5RkaPDRLmrHbzPbdmh9bd5w+s3EK46yrbZ2jhSzyQPVYjrDghm7VP/n3W4b9vKP06fM+4tlXbC/d9YqEnOueu7SJmuLPB+Pl/Fbq5n63ZPl16UUwPs9JtRnIV1kVcP8qi+tcaI0f+qnzq0EHhONiiDL6Ym2vX8FFDja4DQo6QKJymOgb31bOlSW2FU0minQqgsyYtY1dFQXQ+8EPvGUNLFwphovF0UtlM1/KN7zK5np8CnuHOZ176ghFWm/zbRjn4m6BaKhG61DXjch0Y+kaQuPMj/4w88Xd/RE4feMnWsV4eVoL/UzOyNvNcMHFyC0yit/PuZSso1kl1WN9ej3U2zemvMKarwsgX4AviN851ZGJTxw+Sp//+j8HBy19Y4QkoiZstrGJ+dpXqQJsx6aSBERFSYpQdFK5n6KWIhl91ESybvY2mpGyUxEaoxykXe+OZ+FCd0RIXQjOwCBwmDxdeWmKJxwJWhrVGqwHOzwSAI5zJ/1rwyBoj498Fb36GNh2+qwoYMWsrle0iw1tuTymjb/T6Vv56w8l8CEOn8SJJDNkuFyjdFjdOjO158vcbk6cfIzo+CiyxDN6ZuV4YgEEUUnJGxcEYieNIeL4bdZCdij5VGOmNWujt8MwLhJ47YoXM+sITzErGMOZn1rJc8WORl10Tq85V+wWnJOuwqdEjr/zJxMGX9nPBDe4tLh2XGSAxHyYOk62OTpTrO5rcEmNvQVwv762OHP2mG4WF7myxh4tUVpHOOEANDCfMqfdxqo/7Qr0G1zNK3sjysKZDRheXcIQx8LPdmezg6ltEprABk4PajXrha11bpmFOcqMPoTLSlSsFW5i7BuOnbL9No5FF7o6mR+vTjepB6qa3MC+zKb9y021uoW9IMcFUk7SbBfvyRCt3yuheQ/TPF1yTxaQcGOmTGBxbSBCeF0tEhXq7oBjz3ELvg/7Qxt8JvK6P1BVNLwYoYif3tMNIjusoJeuPsfrU/yRL438dVyb3qnqlrC3jvx5AEWPEDsZ9rGII6qcSGc0wcAZYu55R0zmPjBmMpHoIqH0v1mvajE/c1Ldp/Q7BlPnnv/lFUpo4fd7wjdW3pNSFF2zS3L1Foo6r6XT62H1F4lPzZRI19sdBzSgpydJx+Q8UUbj1vZ8iwxu2k9r0+GVKesLKbnDZ4mBKB5UXVb38EjymUau4U6F4dADrkRYNqXcYrbrPtf+E5WO4x3rLQ5+2zO18oheYsp7tGVqXKg7cRhwvi5HZdkbFNOe4AzgsZLSfc3Hmpnf+JOGeb1m63e/9/9l7DzC5rutM8KYXK3buRqORAYIgSJBgDqIYRCpaVLAsyfZY8li2vJ+jPu/s2Dsez3xje1dja3ad1nKQ5CDLsoIVqEyJQaSYwQCQyBnoHKsrvXTD3nOrGqRIiWJVVzW6m3hSsRsNdNV79557zn/Sfxp4qWVlUOtj8nhYFkHpYFKa/XoyP/HPSWHsS9H08KOqPDttyRjZFBud3WpxigUic6Hom6ryD5YT9bd6B18P3EStsMCL9hglJLG7+lGqqz9F/OwN0u/4g4B4VwQwVrDFRtEImFbgjop5PH767vHhI18gMnleBuXjSVAOCYHZhy2cCrAMgNlC7kMRVBVR9aQMSmep63dS6rBGiChwPQIUc5WtMvmODLX2a/P2ZcYsAT1BqtbADGkENHXqkEmgw6ijlx5EUCB+vlubRa/XyffdKJjT3UxP10KxlEsRt+LyPZXZ2b+MK6V5Sq1lWim8+i8YtutmcujSW99lKv1O7n0EZTp7l0YZKwU9u2Navp+ojB7f4iN8K810D8CwXdEgqQUoYGDRqnJ5WcYm12hoeVi85CFknXYt2zP4CvpCqxPKXG0UbyXprqti7f0o2TgJAYxNs1V8CEXBN7TvNOVn82jT7tc3SNJfG492eu/DBsAwA1qXiZE0i0Jik4PkUVkKPh+MnZiOS3P7qZveZed7djjdazdZlsdMK1cL5UkbRw2ERDYW6o4un+WzFvkww3ivWuTYyUUZRggJwGgdO51Pd2+5/B2x5f92QL0rqlwhqVrTirEQtoAp3Q7TRhGLAinN/2t54uQnCyefPwg5dEiSENutIVy1ypSqqs/eljjQqOxwNDf+jG05a0iub6BRwoxanlGyCsc7XCZvtwn+KiFUmF6v+hgj8Bovve3d6PgzD6KwVHgZNyl4lF62M+X3bbiFdAy+OUGgLJodvIvAMIa4UvqrqWN7j1TmJtX5Kbq5cC3sCPCHZrsH0CU332XOMPTQeZmONn9sXVMIHoiw8kwwfTaLmZ1LuelbiZtNiyYmqYCqDoQGgUK9P8vUk4SxYy+E2fA5eYcU0I83i4RgavfgVO51wvIGTTVqE/lFCKNqb/H+uFx4gOglhp+nO3pqRrGRt9O/HFcvQ5MnD2obWzI9qcvjqutcAPFSJAqF43ExKaBK4QCm1lZemX+j1jFvtzr6NzmWy6A4B0hdWlW9CgQP5UR78gG/WvumH9XG8Q816H4CaIWbtUFNrywIiN/RDZynGlEN3Ca8/H+NiLMtSETLjCJcZkAwVsiWeqknhr+XlOe+JcuF7wVz42eZZQkzMojWZ8it2qpCM7YnSSrFk2p65PvKcjb76c4+jBlpVLRMmCmRdsYWVzqU2doUJuc8T1ljsbn0tjeiyTNHUHl24uWTBzSCZ+n8JU7P2p9PnNzWRIhmn8ggaZfIgzNnjz0yN3qKizgAZqTlg4Rfi6axPn0i092Pdt3+0wb8zo2dqZ2vdoZWTRKKS8XRtAzxM+Hc+Havb/3lxM+miWxuNBVEMoqxuMXC6Pd8Rv9AS/cpXAOaxiOGBnquZe7HvQG1HEd//hZl+xtFfbhvMzbfobQs5mYfmDm6d9q0iy3islMZ4+lG1eJyBPC1BwaSZIoqCCgtJZ9NitPlysiRkl2Zv576uQ12R89abPtpoYjJZy+aJ73+H8gtK8TvVIh1ZSz6WxShR1GTniNrToZrzZzd63fkUn1Db9RG8XerxN5WjWthP9ySA1qzdw6W3ELJWVyZ+ebY84/8VXV69CSgLsiPESCVFq+B3rMaxpUirs6KotrHUvnD+kRfTyzmykYFCNUHGHN0aYqhNUqJo1Is9Hphk4ccO3ZKI9Pyj0KkWm/iFE3l7xBO5vpQS79UzXmLQKScomjM4tFnJo/vK4KCokvUP3fh+snGMSoXTTHdlW/5BfTdv/8fRvEtCQMRJJhJMiGq8/tFefYsy3QMUmITLhonGAcQqJWlaxHyZoeqe/WPTmtLr4AvFqjxtN1DcWj/SCONCcO2l0nbXQNXKOb2cokaJiRZ4P11betEuThzePjAHm1jF8cwtEATR+hyPCv4hcWHlzRTicsiKO4LknBKg5092iDuzm3Y8Wa3Z91O/X0WAIdoUZ0X6EJo59A+5JX6LT+aYeQ/aYk9oH/QMIpoyjASyjC2HJt46TtVuvu/BdjZASW0rdwoaNS3eDBJKnNPyiT8Hi/P3Y1EcoYyxs8l5cVrqEijliTk2jxOaxQ2hhUPCcYu1LTLJgQolsrlCt3MknBUg5yKyWHAHDbtITzyhY9rhVFBP1wZqv/esimm1gCyvCu09gImisYPNqrlFh0iylZQ/EK1PPN5jd4VxhRduJaVdTRhxkTLge35Jq+1ZM6HUlUk4qNRYWIPS3cM0UzPkOm7aoZHtZZr9GNFrtRe42eUInzBvP245v8axywjTrar3+8ZvE67jtlmNDfWv2LDSDtKxrUxK1PbbuGEmGUOIF+IJAEnYVXx+JRWLtPaYx8Pp85Gem0qVqZzO3HTHdhNp7nJPbbGcwSmnOlA3KRc9bcZQn6PIPVt2qDn2JBhhKZuy02hrvXbfeZnr7G61/5aFdnbIwOnFr9RCykzyCX6mM9Wxo5+fOLA4/+kH2xK8aQqMZbkxXMRX1uaqiZkSoaSxxMyCuaJnU4TDW2bKYUG4Qm5+BCz6DFK6A+gQ8kQl8N8Spi+EAUv2nepjaSNc/0bsla+906W770yVrip8VVwr46jEW+5cM/4gYf/r/mxU5OggAm9YBiXnW7TIMn1M+jm9/82evDf/hwFxVkTfmz7xWOuUdrZYHrkXoTZgD9kZVi2Ox9z0ZQ+ibjwA07e7lH0cf0zoJARLxZIIDp4cQsGGEbmeKnswIbXEy3rEYGBxI2T4tM6TzNT4jkpRBGcYdmiiuuFxv9lMfTg1d2xUElUlEgdjqZH5qPS3CHtkl/j9a67OT20/Tpg0EpETZEt1pIAgIKU3gyS2wnBv5dmFAYnnGwETbBGNJoZkUKo5ed7d9PO/o9EVvrqSCrSiiTqQlkztGHYceUQjUp/oyqFf0+qxTGtuI3lfc1XKxo+RxGpKBwW1eIp5mV6CPOZaKLnDKrDAi53u5S8QQvP0/qPJVMEq16Ono0BpJbldvZe4fRven9k+4NNe4tApAyjv4h6bo7HkyKOlpAk/MLV8J5BJbjroxt/+tfQ41/9BJodO4X8TL7dlapKST4vw8qz8fzUVqdrYJeV78k321oJolqM5aBH+X/2LfZfVRyeTeIIWfovgDz9xvf9Bnr6W59B1cL0QrEZIbbbzzIdb+S21yPrA3sbvcAwWlicFEHxqY7+ddUr3/aLLWvqh1Dw9OnD6PSzP0AvG3S87IRILigWBQ6OEPK0Bj+TOKqcSZgVxV4qb2V7N9h+Lg2ISLRAtkA7hYmyi5G8xiL4Q1Qkf67ByQSA/5pzpRZvGE1ogVnIT+ep37NmM+sc+O3Iyd4eKeKLFrVkmN5EhhEuTd8/f/K5Pw1mRh8WcViizFFYraYWjEX6jUrFPKocD6ZHH3Kp1WV1rt2GCUxmbdAb0PtW1oLjMvV2rXD+AQyjg01/4rm1NlyN+tBBWIk4qV473/ez3M1enkjCmgFDptFZ73HKIiP6GR4uTY28JoxiHJRNWHKheKWePoeYGq0FLREzL1yjaAK2NnBkUK2KErYE0jBQYSfIUtMZmukcHKU7e9DuN/0sOvjwN9HEyQNm8HF7QSAXiqMpXp3fm5Rmj3lJtI0BHZtsvFgD/nmQSDZP+HsZpXs00PuEXscQ+huhTmFg60WI3esaZUrMpB3iYNvfht3s1QliblOyjmvj00hY/ky5Mvd9OLemJqJVgAJCyzDOL4mWv2FcCBWdMyaYaze9pIQ4ksxPf7UkxLydmbrN7dtwtdXRP4ipBS0Y9ckZi4h4IDOdw2ZE/TIMGXKJ+nOK8cyr6c99dR6jvklmpXG6Z7DXH9j0s4mXe0coCOGL5PtZ8BIdrSY8iiQLi99OilN/Whk/9VhxcjhkrlcjNL5Qj/GiaKrWDUk0Fs1PPYaYvdXK967DEPtUjQ871R4jMEhc5jGSZUBR9RL4AZ4ivLWTznvIyVyB/fwbtVH0hWxur4EJ36OmwvjzQaX4VFSeB1q51exvmf+uv/JWdPaZB1Fx4izkcG2J8G6F8CVK4Q79L5j+Pq+/79Qn2dNfoSo/0Es1r32LGePcC1XAWO3TCHFvyEV8Pp4E2jgGtmxDZw88ic48N2/mB7bVazSj12SkZf14Upx5IilMXMo6+k2uUTRhGCGHVYql61v8F3zL+bo2K6cAsMDEkWNP3o+iShHV+nmlNpDY14K/RULRjXh5FOXVXi4jsSgXviUqhXEC1ahR6/K0cO+wB72bLkbz48Mri17OeJCgRGSgvenD2gEqiKA0pv+iTAh+Pcv2Dur1IrwFLR2xIR+X3QSL32EOPkiV/EISR/wnaUv2asQKkImTzmVSAxvfTvL9Hwy0dIoWkOCZIgztKVpJ+XRw9sQneHHmayIsHxRJHIOnYuLnpkfugrf4IqFSGiZWRFSB6SGHZBzehC0/WyMWbxBR6V+IBCBwus6mZO/LhgZAXoVQ6uR61rN837u55fQI0bygauiGrLj0tfnRM5+YOXtkjtruqtoayMn9EFuLkoBN7XWXv47JJHa8jt6U17/hqqoi/1ui8GV6KbXbhRkoYrFQRKVqLGXgUmrpL0MNDMUy8JR4jFH5qVjIR22NuPW/SXDNo4Svst0nxLRxlALUMbABdQ9tRcWZMWR7GdQ+1IpryEyKSe0xPlQZP7k5ReidJNfbA1LZzKdC038lEbtcz76NKflZwXkQVkpo73c/j9xUxoxbo5ZDaCrXY2U6LxWmGK25diRa0237p6dHjgdzE9L2My0GEsowUzl6D9oxvq/N0YAXdDowiig1qiL0UDQzGkgeTzsdhRudrrUXWX4um5CaylPNS5EG/2bosW8R8mH952H9eY/p90vIK6zaTzSMpjVDO792rme317vxdyrEGkoSsViRr80m016ip6KTydzYX00devJTUXmuDPRQBOYBnuufu2AUf1hZAOdyIkQSzeCoelKFlSnm5wYVZg0jaQglQXWzVhhvcanao32VCWj4fyH0oaBPNeN29t1q9Wx8Z1W7qLJJEYX9TllE4lL5k5PH9h2aOXtU2X4WrZZwAJyTVL4b8ShE2sOBPzOFyUUC4TeX5ud2du+88YqOS1+/PYhjey6OUW3A64vPmHrBv8F44YykTdwVqWxZqLtcgu9yGC7ofzoqMHpOn59nLYS+rt/mgFDtr0iDytSNl9+oPZUUeupbnzbMLbSdhAywJiIJeDC/P5ih38O2tzaT7rpeEsttJg8la43gtkP5f+pwrbMWs+7lSSTXbL0MFafH9N4FKN075GaHtl+Jsr038SZXFECNx7DUhvGhysz4/OSJ56GYpw3xiFrfMV1xpBj4xYjLVHXKOJqWYuYHSVAeiwpTp9NJ9LbU4LZrme2nJUGLmp1B6pWqsyF/PUHsoxmH/ap+s+foK3jZP9EwahnElo07iJe5JaLW1mq8+LIhYkYMydgKi0/z+Ym/iQsTX8t19pRmw4rG2HzpBtOuSNtYr04VItRKY1hG1UnGkyqxmC8bLE7A9RBTwOXb9UE+rj2Rf+BRddr0cYEHSrToON4QctJvSKiT5VygJgceIBcKbpA8prA8zCxbklXWswiVjZuvuQPNjZ4C2i6mz8vmiDr/PVb0DVGC82EYGg/9Ve2PqiHkhRAeuIWhRj3lms3ME4zzLiM7UhZ+T87G27Vu/P1EyBGXUtVe0cOoOj+D+jbvQNfc9R/Ro1/8m/bLOoSrkmRWxcHzIiofQ0mwi7rUVajx9g1cV5DlWG73LXkL4uUfSJ4EN7zv19GDn/5faHb0FGZeesjrGnhr7GY3Rc009KNaq5mLxRiV4mlCqYDcYuvaNFZtJEzA7Fn99QBmLI5nx7AG6dLpWnMZ87MdSluhpvmY65oGCABsIi73LHoDReg51GwoFe61b+OOTr9v/S+IdM+HwCVVTZQtv1Q4PabtdmXuu7NHnvzjwpkjTxOkjLn9SaOOLlwvWkSME5kkY3Fxeh9x0xtIvneTtmKMN7A/8DZgGCtc9qWQ8w5enH7oqa/9wzREN/zOHm17lWOnOy4jfsfNkWw+1wJNzh6WBVuqT509+tyZqbNHlqbsfwm8RDgPZrI68E9V5vNrLrn61o6Ldr83UtY1JcUGogS5kHZYjDuHXxwwQLUQeDUR4O2TWKh3p21ypTaUT+q//pb+6/v1a7qdaD8OKijfuxbd9N7fQI988eM1WrV25bhqOJCrJBpJ5mefSuandzNmuZS5vkKNM+IoVcutVxN5k8XQJv32+6F3V9UIDGzg9kRu5mZBbMYbTKa/MCxdFUhU/QpX8aP6LHETEZaijTuCVlDbxis+CfTOhCIsHZVCRHG1NGUXp29Nr9l6O+sYGNRAnTWbwcN1oKl1nV9O+C/mbbZf/+gp/QoaMoxgFLWoWE6u6w20a82vhMoZ1Kh00UbRoRT5RIwkQeHPeXFuDw+rCbWs2gTmC0axkRCTUJyOR4Wp72sk1ec7fifJeN1INn6YQy5JVahtnhBbKoWpx2wvDUUxxLW8fjvfc72y3M5m2zPqDEbcEuG3wlLxi2FlPkCroA0VlGm6sw91rt2CTj79AKK2awnmvLvC/P9SVmp9lEgCClG0yYeDt4WMRlGKtEbCOy2Kt+dsen2ny/5Og8v/t/FSrMbkD8CAZXumKIdB36tRzG38RCXnVVR5Jpg686BnO3ma79uIsUVkEwTjAAYjIXcqi17DHP9gXCnX3oVaGS3rl3JqD8SiucgY5BZtlIxWxk/9rXC9013rtqtc/8a2AX4AJDyJ0ejBJ8wc1ZXvWGiww5NIycpJJHgpwSgMbL8rk+nooE46q3DzA5AhpAq9koVIXsmw+O9pG/93LJOHkcLqpbaHvfzAQTUtRU42x4ib2ojTXe8LibM95mpxYm9yihiliSjS6vwfT58+/HBlbqJmFC9MU2hGVUhomI1LhX1ciM1uz7prrUx3N26QWbwWTkWoGsWdaT+7a9cb3/+Z449/V4kkdjNrttxEu9e+JcE1TsNmLlAUPlXl6tipP5s7c+g0EIWv/LBSjRUGDF+me8DeesNbrxC2d4vIDfxSIRQbTUGTXBqcB/obWm9iqZj+ul3/8bcEDksWUk8STA5rJRK25XM50Ko56Oq3fQA9c8+/mfyc5XptqFSt5we06yXi4Fg4Ow4oZG3KzfaQlJNtFLCZuaTIeI2dVUF+Jm1ZT3ORPA/3bfuZXupld8AYNdkgMb6qv7sGKBoEJk+fPfrMYWixobaj9SlpY4kSNt6oqqc/Vs0FTAgcTYmgvCeem1ib5LrXOT1DlxLLY7EpGGxuReG3qolkc1i93qbkfZaSjxOEk5dOYHy5YYQSfcfFmb6hbq1o3678/LWxaI7l5AWUBgKDkI/4GJ8e/mMRVb+gFWQVkvdslVUmLq1xFFwlwbQIyXEZB7PafJn8bTPjvpKEE+n5O9defFXH8SfvK+i36KPZ7jejVMfGOG4ut2iKEKDACsuHqJs6GM7PcigzZ7aHVm5+EWtnPTJy6+Y6U9oa3JHZsvn3q4peWY45SupVjEulo/CLYq2Qh5wJ+fogkX+fd+mhjIX/d33svgNOUhtwmcmbrdt5janGPfCDr6OwPG8a5tvSxiGFAYLaJ3o+Kc/sU2H5Kupns7JJeYdBt8VY3qKV439kUvxnDQSll+/bamW7dkrDGdxg2R9UE5thxDS0hNofzE9rQx4vTRsFOLtsNeUw6+AeelnjYIJXCg8Fk6d7wSN2etZebLlpNxHNe44QZahyBfM632Rb9KNQqVqrNXzB+aP+tmtfYhgVsryUm9+w41a7c82vJHZ6i3YWyWJE3WFEe4pygsxP/sXUoSc/WZ2bKgBJNYRr24dy8MunkJvcHPrhn0EIaOHf1WE+rueMlv+UbTOjDYgdU06u+1I703mRPiFENdWQbNAutlR8pjA+PG5nu26wutf9PLdSXTC1HDex/I621GnEnyJh8X8Gc5NHyjNjEopUVlTP1Y8IoYJn1Dm0raNj4853ylTnH5QV21XRRhFCdPg8qxNeqzJGXKluDUzWMoxPU4JHMUxcPyfytDV7UKdT69+8A1rlUbkwjZKg0r58l1RS33eCKXO1JzZouf4aYtmObGKdZE1BMpto7MajbxWmxlx/YOPP2F1Db4z1CjUcogU9pxc8Y5MjlAf/NHH4meOmZgLWGuO2vwCogD6Fxv9Xp1Nr+tFE61Sd0hO+X5CLF0eIzr3fi3UpabN+PPeZEBQpySSa4UE5IJR12l66hzCLykWA6zrwyToWm2cUH9ErUYEzASP4QH5/2DDWRoAQK50fyK2/5DdlugvYbazFNFlaVEueikfI/MRfhNPD/zh14vnZSmFawVDU9irI14JhXJBRyqjt9TPX30wcL6cwzD9vUAYxBBOUr21jv1Y4RZbK38nd7DUJthylmpkqQJCPxbgTzv9VMDt698k990ZJVK0RNqxYD12ZNqKu9dvy3Vt3/xzuHPyTKraHwnqaYTkEshYGGwDlnzaO67VRfL1N6ah2rI7Wo4itM4z1Kw6qaOjinag8O4vGjz/XPlacWpWJkIIH2gjY1HIGmZfu0+57c7SUGMw5wpZMzlIndQnrHHgXt/y1iWxC3g1Jiaz6Mvq8rJa+WJ4aq0CLBhCwA6XeUrygNgDCqq8u17jcDeMP6fBEJdGcBqWzet+JPoNdem07MLPYYm4hkSZ+epvL2ASj5GnKLG5bjulnZS/RsAimrRDX347c9I2hxKzZSkQjLPqhUozEanL0byaPPPVXxLIqGkEpiuwL1actU9YSxujMRcXpJ9jMyE7P9jpIujsvGpiTWG8A0Z4GsiuJuoJluz4khFwTY9ttpgoZhBUMI5N8T1SY+Ep5erwKBlHxGK3kFg1QOl0bt2eyay/6KeFkfjOQJB8IsWzvF4a3auFYr7/91axNxhkiD4Mda70xhgG6SS3q4HjtzXeJBLT+JK/OPxrOjm0nqfxG0pnqRqIZQnuFIomyMabvo7neTILtreD1N8M5Z+RdRE+GxYnPJeX5mcEdVy/5fkPD/9n9j6Hi5PDqaQ8xDoopYQtUHBzl5ZlvlYcFgfB9eu1FuyCE0GyBmwaOqKiVnsf4u23K/g1Cqgu1FOcMIxQTeNlO7OV7Oll+4CZhOQP6zJNmS27gYHgWQa4M754vjH9ubuR4GTj9LrRktFwtAct3lVdLB6pTww8TL3uxl+3Oc9GYCapVOUpSUjjrUu9KQSQTGhgp2fjEclLfe1quPDw5fHRkbuyMMgZ2BRdZgdwqjJntZ3eTbPcvRZa/JUrEsr/vUB/i+UjdYGH2OykLD2OsjrbDuw2DMrr4preaUWXPfu/zyM92thOhRDIKTmnQ9bTV0X9DqnOgG8hkZYM9vKBzY67cKrN2S0ZZLLHLm/AEahOBGKKl8nemj+97ambkhCDno30CQqpaj6/SnkllyB60nsOCO8xNDfJc15CV7e02eKmZgIF+RaaPW1yelXSbRdHIAnJnLz742nA56d6hy3Gu/06uRbxZowg216cEObxyT2n40B9Pnz54HJSiAnR9wSi2AUVD7CSa0UKzn1eLw0Spy5qZRCBRLQSnv6Zro5Gbux0gT7ZVcijtpZ4Wa7eisWPPGaNociEtRpOGOvBVsOUvxiBCO0J+7XoaVMqdVmffu2IrdX2gQeNy7zrBdYVRSSTDWNzoMPpzFkJ/SCDfiHFr16xONr7h8puMYn7u/i+/ZJ5nK+WdA6VsCUt5AvNoREXVnczyWNIEwTjYwapEaXhD0eSGAhB0bYbi0szB6VMHYYaaIcE+D6YDYYLRqmULg3oKwasoiQ/E8xPfqozanb5CN9Fcd7dA2uA0OdhA6zxXG8e7GEaHGJNjUIPDFlZUKy5Mbb/Xyna/SWY6d0WLILgB5oeMy2Rh/3P/a+bI0/t4HBmatwtXG0+EEJES8biKw1HEIwlTzwHYqKYIl5s/WoYjEsuYhpXPEUqe6tu0Q9lue3JOoICP73kAFadH24qSpZSYC5Xq2rb7F3Hn4Hu1NNvQJrAS1M8LxlHkZ0P+oU6XnUBR8Fm9XglQibWyghT66dxMHmW6+lFQLqBMZ1/b5F1JkSgen0lKs3tYYWKr1blmE9FKRqomIiVycWxeUHHvUHI65smpOAqRk8qev81e9apOX0lUEJXiYyEeySlC07l07iZGqS+aIXxANTYkDR7f6RC8V6uvz0qpAvYib4Fh292GvOztCXVckTRPnpuiGAovvjI+M/pEZW5KOn7mgqfY5hCKkRgh5kQcnpJBcZqmOrthgCVf2P0mwkPN/I5FKXJQ/EBl7PjnJybOzvn5bpP7aIth1GBLiKRtoXnDWFJrS3Con72e9a7/jZD6fckKCKG+zGjpA64N4yAl+P/LMfmU1uX7W+41Qq4xrBrjuOOmt6Hhg3tqbV6t3p86VZyIgnHT10jYEHH8PMl090rUBLWBWtyteBAhQfw+jQzGIPcFEzvON1CGUG5Lx1wtJydAC5Xi0aSolh6NCpObZFC6hKVtH2pkeBOPG4FhJHLIY+StFKv7KLVOsZoCQNjy0xmW7rxCMndL0mTFjSlZ1vfmqeghVY7+Hyxk0fTXXDCKSwKlkBRlEZaejwuTz1nMvpI46TxGeMnKXQwnKtD9RfHnpyfPHh0++KSqGcU2GS4IpcJosjYoAHhv8EI9P8vcjr6L0mu3/maIrIHI8MWqFQnOI8P6kaQ9Zv+si9THAEhBdWorvUapvUbwFLff8BZ0au8jpvqVtGHmpjF/IqnyavFgVJh42Mp2XeqmOzuhQlstYYwbomOO4gdUtfgV5nhzfZt3tg0IvtoL1ht6SsuzE4iQVTrvVCmORDyCoioQAFzjMidF3HSe4MY4dBdgVGhoAsX2FCWDlC0YRqRwpnsNkOfewBGxZRNjPsy8PS0kNpEzwdiJj5Ur83vCakmSC9PZlwxIYSVCoRVFdWr4XgfRvNO/6dLaEGO1ZErCw3zSRmoPIVYCY6Usuz1h1B9qN2gDKoaeMNvvJJ3rt691Otd8UGa6b4Z+XqTUio1YQfqpNnqJf8DC6oTD1Octyy61uiEfPCYgcsj3DxnlLNtRcIfPgcGCSsKDSWX+mJeEF1Hby6olBIOuRRGfHfvUdGHiIS2Tcf/Wy5E6z5XXTBvmudGTqDg1skoNY32QulSBjIP9wfTwPVqGHbtv09XEzfii0b5rYMCAQiyhchKjAUidsHo8gNnZ7p1WuuOKCDePIKFn0VXx0YNP3X8fDyoR5BXJihuJslJlxYTFuIiC0bAw+YjWf5vc3rUXYWrbSxFOMWOlGIpJVP6k6/njqVwXotRuSwEGKB5gjGovyoCeLuZh27sWZ7vfExMrrcTKFxMoMCnFatAm6sOUyP0oiR6HYoNWGi4IJ1LHRde9+1fRDz77Z9o4TrYhB4zrw255ojgfwTw6wkszu2iubxNhjivk0hgn37bk+OkDd08ffXZuOVVew32w8+y5tjtApgVNyCgYiebG74uDSqYj3bmBedn1uHFJqk2zQSin3/EqiuOHYTInwUqmqJvejm1/SMrm8g61+Yo4tKR6hmAcE0outGUsvbAAgq6qJB5WPBrTCqNKLJWWGLd12jquRQukI+O9olT4SqWKZ/Jr1qHLe99XI4dv5WdRhqLyPDr48DfrdGhtImcGqhjBO2IpLmOWO5AkcjVwn5sr0M9SZeQKF8frNMB4TCMYlMrkWr1+54ykkm1auRoYVJJHhaQ0+wSxvE2ek+ogKTYgMW2rzIP5YwxrnUdOyqg6K3mMmONf0EFLbR1FEqo4Po1odBgl4RxRAkgtUDNRz0QqX3uNr7OoPMbAW9T/71SOt1UyjSOjxvp/F/rWoETfI+oE5eIBHoey1hjO0GqaubdCvEapRFLUwjKi4uo89TK9EiaRi/bshKorQYdgjsLKJ0cPPvF8tTDFoWfVKEfV+mdsL5VgvWcRglCON0jczNWJ/l4quWrEBMJGVS5ZxqKbPddhsl6j1WqMBtf17/pVtPd7n0NTZ46Z1pq2oEEeV+PS3HPaGx4gfmad46S6sG3Zshkqw1d5GXJ8oqqWEl/jYVABUnXLbS8AvXD9mP2XvIJ4fEaE5bOYRzspc5hq1L+rkfGTQMrLiCA/o40i1l4jG1DUGhIw/LNJfWwhWbaS+B6s1ONbr3sTOrvvYRSU5xChF0KpS2cYycJE7KpG0SeT+ekj1M30UTedlW2YQ7TQKM70x6YommJIPBRX5oNKYbqN7RPKeKHtCtGDYvPSeRTHEcPMGWR+bgeXq0/Zwfgd7ThejDHJaCU/1y56xq4164xMwsAAu13TN6TikidTKCjuS0ozR9yuwV3ae7ObqlB9NY4AQH6CuKP4cygsf2nj5TfFlFA0M3LswlCEpXYEatlArngykhRnnuKl2Z0k17NemzXS6NR2aGsKhUpTLC8Dj9HGltMvtdcIsFE2rEhqJfoWDx8pTZz4+/Lk8Ljtp2tjii6EUpcaPdW/iEgm0dHKxOnvaAvSYfdt2E3slMvbgKAhbKGRc9ES8VccLzUOTbhAnUZa7WEBiS9lNa7VdqJyfd9afjFNpTNWvudi4qX7pJSrTp9A5V4i5RVCkUuoUj+Iq5W2fBZMmBjcdoXhUy3NjLVvCgTEMkUMzf5HRVCcZG4qSwmr0YW1WFwAQ9hEzqLK3N8Onz74NKUWNI9cGJ93vnSe9hmx4NPR3PhD2pZtdinL0FxfdyMkCwuDjGMBfYsyw4zJpVanxNRrcjYnshhFuBo8Mnv60KGp04ckhLkglEaIhS6EUpc0qrBgNASKw7G4MPGQtibrWaZro/YcB3iLeT1BmCz9H1fxZ2Qw/2nleuVc35AZKwVzNlurjCgKSgVUmZ9ue6UdTF1IdQ1utfrW3SSZw6RYfaICpj6WaFsk1U+5GD3P42i+HYc11p7iukuuQ6XZCTQ3dqpNhtGMKJJKkHkRlp+N5yaeIk6qk6Y7uxfZu/9jZJEgh/Cz1enRr40debYCrRG2lzKFZhdCqUut7+qd2lhVk8r8ATU18jDNdO2yOga665z5DV3czDbFNniMVP8faupr1YsN7qsputGGUYblM6WpEQmDOU3vnEl+8qVeKVPGfwG5QX1qFBFKziblwn4elWdcJAdgVqNqUViw1p4DCkJO46D4lbmR4/u095hANWqmo7flyggq7KaHj2oFO95mw4ixFDLF0h3XWpmu60KFznv5fcufsK5TIq7sKpe3WxZ9gDrOd9qFYoXk9Spi3NanUkKERjnikfuol9lou+lOQh3tNbbO4wd951DCLcmfGRs/PQuTeBw/a6jYLhjF8yXNpr0KSoILIg5PiCiYWiDGa5QFyVS8K0UYqhXg2QojYiaPNPBmRjlCflEryFgmM4LHyNHI6XwuEvA1QiXca74iFmOlhaWMeHRSBaXTOA52UKZxbovSLiaErpWBS9AzSWnmG2f2Phy0s0q0TlvY/hJ0jR4UIV3Ycnco5uRNFHWV6jtupkuotVzJHRYi97QV2C8JHNTaMaxOx1I9HRbGr2K5nh0k42VFC0PhNgFmL3WSROE98+OnJfA/r+T5oqtM6SUaHRU0CithJQyIaZRcHGQ1kcYwYpjMaEulkbJqDBvD0D8A7zKqFvvXXVTe+Eu/j85nnYKbyqIDD38T7X/wK8j1cwjK0OlrWGj1oeWI85G4OL3XLs3sZLm+9RJp736RamqBzMEhCrkU749td8K05yzMT1vRZwuG1KIOre56CH5hkvsqJNYy4VQoHpdSaq+Kt23jhIjrbRu87asJaSKQeRUGR1UczjEkso1O3nglmbexiu0kuCeplh80pPgXyiiWURgEmiF4AAxghogD12xUI1sv61OuWG0wL6G4mfgjrpUtEySnKCVVMyjzvJa1K7TxsutR38btiDEbJUmEHv33vzEwgNrOa09YlJBIxsAneZ9egMEUpm9mHQO9MV980gzacxwRPkal/AbBNOB6rQkibTGMhp6NAX5rf/sPhngzoRn9yklDdCNXpx6pz+UWkCJGKNPOz4qDCtq0+/WmUvnUsw8iq539fkKAuJQ0WD8iyrPHiJvqYl7O12aZLCbSea7IMCl9Z/bM/j+bOLp3sjZC77XuLYJ3xGoV8ef5PiBNhJXSW61C8Bgxok3pCzNLuG5rSf3V8EXNL6qCfrvAjBY6j0sD1YN+rhOlu/qM9wJh1evf+Svo2Xs+h+ZhAoPtGgULUwXQayMfoBBPKrJaej6am3jEynZfkeoc6F0sZgcw5GLFWRLeHQalPZJHfMOl16N25ZBgv2ZGTqDi9Fht79psGrXTmNKG0VfGY1SrMpJa6/NSEE5NS0V6lWH2aFvkAnnZPEplO2qj59ruC6tIRJWD0dz4vdhy+2zX3w4NFovaR1wzjDSMHg4Kk8cr89MKhjK/du3hQo4B174/7/rUtHHBTcQQSkWCc+DNbTZAwVqhzSilXHsMqjA5vHxCC/U9S3f1ozXbr0DZuUFkuSlUKUyh6dNHTBXZayK+AA3/ks/JqHKUh5VxreovW+xQhVrRjXgsmBr55sSxZ+eV4Iq1UUlAsQ30wS1RLofqz/H0hzltqPRfVheoNqHdYm2qutrLi46RSCD3z9sfaocImNKQOCyPqtnxBxFzNtFs11ri5/MKNV8gA3ft2TaKR2eOTJ48AJ9g+GBXlC3Tzw6Vs5Cnb6z5Xb3yz9RCYB6fX2mu9TTGJpQqZaw9tqZnHS56SKJZHsJySVxyK9orw8uMtHZ+ahR1rNmAuoe2mKbwkvY6khB6qiZq27hAHQRIViYmaUqYRNL8WRo0dI7zdcV6mZJLkcwiHk2jRc4RXCi4cm378bnpkZNzoyfV2h1Xt5W7FIBfWCku0fobaMf0J9l4FVvFBSBdL4zx6hNu2+mIL53iBGbEJA6kKh0n5bl9flS9A/m5/GI+vxYZE9L1/NmeoW3I8tMrbs8h2jI7elLrxBHkeBmz/yKJa7m4ulSYUWva6FP8Ewzjj5So8y3RdQuJMSdkcSh60YYRqn70q1sLfgoWHi9DNnfYfHjBBnvZDrRp983o6BP3IhhRQhwfYUqhAgGmUyATPgPkATFqVWv/iCol/Zpfls/WgAaM9B/CVrnjTO81rOW6ndehG97zyxo9J217BDdtoSfv/iw6/Ng9psCqzQsGaoChJlMLKzMshmS7c6lKLWF5L9Q9EKr0Wa7o3ZwDVhpZc2lIc8tTO0caUMvBDRehbbuuR2IFkj44voWOPP4g2v/g3Rojh6buAiJqYXEGCZghqXUeRNXAowzmp1dmZb9SxBQjMMtdjMixRR6oBcRJVoQi0RsNI3FgFNIlr7/L5CTdrgFka+MILSdMe4Zco6VynAA5sCnNdtId6NDD30SHHviS/j6HVuQFG0QYIbbjgnFXi+xYh+rlmCeXDe64qhMjXCzNzrasP/JH3352qVtwQKxlM71QKw0z1bwFFUrZ3p5jeP8ag1D79xC8HvDoqO1h5rgO9VI5iTBBiwijGj2nFS7nvAOiF3IFRo+iKtJA9lrjEe75+j+hjJ9CO255Jzpw3xdRaXpEe9kh6t2wHfVtvhTt/c5nliCf3xah1l4O9mqjx5rfI7bYkwUOq5a4CEE10LIFETULDrRNbjqLcj1DBsHORzH43dqbjEy4DuufAY2Q1EpYaOAhCDaepjEkK7UNATS8/o+2ib7lpnugVmsxNgxWAdghEiGuQI61Xi/Oqer8XHs9fs4NoFmaCkBYMJlo7REv8LKiVVqAAyJNaoaxTAlp6yNCXpoQvETnXSJKGXZS2SxNd2zAtpdeLAOOqPW3aeAsh2r6YeVJhJPKoIM/+AY68ug92nushYLBSL4AGLBZO/OzlwCNWifWcvZ9TP4YMswQBWYwNWExQyxa4zEqTGEg0HJcLikSlOlagzxtEKMkMeNIwPPAcLsQGl2l5fgvPD9H6Z7BVG7DJdex7oGr4xaEgEDJVLjs9Cz6obTFRgm1jus1lbRNQ6nBUwdQk2jICwe6rQwjmABdfwR8s7jeC7VaC5hBzekdC7VJnF9NzwWKnNmek+lfv5vk17w9wYzJRUY0wKRHEuRe3OUx8pA29PsQWlmTyMCwAcDkcYhsK/0q9UeCejfuRElYQXOjJ2pcxSsA8alFHlz2spBBIwKIzagOQFN5/Xup2kBtfj5W4gVL/aJgGFQzprVRdPwMgtJqSW2YmlDPd7y6hQMjCvF3HlZrodSVpiU1BnA7+y/2+zb8dOxk8kIs/izDCgRckXIi3+Ey8pSF1F/HYTWGcnyTh23xGgFC33btnWYvhg8+hdpbJm+EI9bWP8JmdBpene0adeHQThy4DIFqYyzc9KFatn65badNq6cJMGZWL0t13KlR8U7eipFrdV0XcHljyPmHXcb+WL/n8AKrD14B+015LfKFKWlo7xwvbXTmub2DNp+4lqM0DsbyOiHQmE9haJSUzVGZQDvagq+pcJObCyEFfbJsoaQLiiuV71l6zsCFz8M15pU6CQICxgs3nTe6Dgy2CQk0eG9gFDvWb0d9l1yHisNH2zbuqOVAoRa2gu6rFEvlb1Ve9vpY4pY1rCf6bcqxTPtMvjFD5Zc0cDijMnkzkqfVgUcIZ/ds2IQK49vQqX2PttcwmvYWUZFJXDJDLIEIH6tVmWgE/UgxmsNIntEP2jbvh9k2mjhxAI0d22faBdp5AcmIEMJifvYy5WbvSLQVEC3Iny5MX6gm0i0S/FaC5cP6z/9iUVyX+WXvRKE4SVDCecO5eojWnBs2DQ4HY6h/w+WoMHbaVPgvF0q8+lB0pr1FD3J8kjcu0sT0q4JhBEWgFNgQ3qhlXBAWqNDSBoPa2mM4H4ZRLQg+qUV0CaoViESQ8AfUv4j7AWSUX38R6g0DVDj5/AoxjLXdgW1VmHQry92VEMvmSdKid67te6S9z0oir0hRcgOz3bPaswN+1npOt7UwOixVURSU25/n0DBTCT4vo8qYTIIycaz0aizAMT0pMABA8f0ojh/VctK2RyQOQ+PHn0cTx5/T+qG7rfrBy3cTwXmHleu5SbnpbbForb2PhELlRA6mLXW9ti//YnKnaPnXH4AxjIFHepEEC7B3mGrDuHUXqsxOorhaBEbRZeETG0CupKW/pCTUWjUjq9jMl5Ws9qwyAeuBmyzDE9oys4zfmUlnEedLX4NzrsrSsKDXbt7wvsLPF5n3WgilJkFlBdGDQQGJKb22sZvegtzURiFby/6P8Tnj2BVJervnpu/hcTxf63PBLVcVgoW1Qqi2txUoiaWY45X5I6IyP0yd1PbVFk41w3b1HtkElVV1/t7Z6ZFDHX1D7TOM2nhQrUyBBKKtoNk0sLu2k8/utLLd1wsNkpVo/aDiWCqSSLQl7RgkLlaKbNRqK3BL1plHwQspqWUh1ED7aRHqZTLU9jqaTQwAyKEE81rDnpRVbRc5/NB4Ww1iz8SMsJGvS1PxZf2DKdTMIKxlrkqINrA1dpfln1FQJr9KcM+mSwbtzsF380zvzgRCyS288wX8FArFion4KUbxEa2SPq5/VAavujYaqnUqw/YzJldcC8W1bw8wIcBqUghLM/tJoeOwn+nahC3PRmJ1+YxQIWpTvD+cGbvv+JPfiy659Z3GG2+H4eI8QsCluwRVjdrtJd2p/o3vUrm+6wKFWv88qpZrrHBxqWeT92iv+7v6pzPLXoMtjE5apRfkE9MdvW66f9NO3DlwUaN9pqruLUJ6Qe9pzOqUYQFWMiR1BoRGnEZTvq8XvcrFLT7D/8HC5B/rxnFpNvycd9I+xZWEIepcdxHy3/wBtO9rn0SW7S739g0MDa52tvMOmuu+LaZOGkIouOUfotemFlrq8Zl4D5Xys67rlcFDaLVnF1VLaMNlNxgC6j3f+Cdku20iopZC8agKjeEnk/LcMR5UisROdYvVhPVUnfwfo0OUktMQYj/0g2+2WXEJvXftyy8aMEgtC9vODuWkruYmddD6PVuIlFQT0VFN8G9pwBzrdbxbIcSX63YDqA8rJUTdtCE1WRIRMy1uZMl6j8HsO+n8Oq9n7W2J17E+kbJhXQYrwwiw6uIqGEbovC1hkZSodh5FgzOscL1aq5rIvgqT789Y+KC+pa//JLf31byxWVRVe2zPVEBh04DP48QcNIh1kyVZeAX5OpTpWYt23/UhdODeL5rWAbKsmHBUrWMGBjUrDXyY04fdzO2ceRu4xG3rxDOhJS5JOcYXeR67Qe/RF6F1ox2fxYAE3rINR2XbDKNxcbS5x3gyqRSOauM47eT6uldTnlGaGaoIOUgdjJK4ALLc9mbuVoXxXqaApYkiuOksCarVrJ3ruU1Y/kVxneoRt0nmI6HcUiyvclx8J0X4mxpocIqXV8jdpIGSGJ3Z/zjKr9mIUv7SEJTAnqy5+GpUnDhjKDiXoC4DY0IdlsrfhNP5O7iyiBSNe4wgK1R7iw5Wh5jJL/JkSoXlUe0a7cSYsWYEJRSKaEG52GPkFpuxr4Px+3H2j1kUvWIWCgyg3lAex6biiViWyVPA9xiKO4yhWuoCH6nvg6Fc31BbWhJa479JU40L6XG9Vms5dbZp+GC3Mwq4UIgTcpVOlHoXF8k9OIkKZvzYAhlni7QT0Fj5mTy69JZ3ohPP/uDc4W+L/yFERYlkFEteotpbFMQQbq+Ky8IwSxN6tcRkvm9IXnTjW9CxJ+6tdaq02KOACuJaCLVdwEwZxet19NrEj7eY3CKxsqZfuY1rCGeqkkiWsci1+oVpG/LqrTCMsEJhqVCbarKEUS43nUOVWWdp9LRJntJO5KSuFcTt5ry5gwoRUweJ01Sie8BjjJXkw/H81LN2tnsXzvYMNqrJ4F+D0gi4dGOBrvItQqGj8cfdngUsM6+wSeYgAbsEhP9MyAe/ek+zncbR9O/ExmMxoYJlRiwO98RsDzn5nhxLd1ytLK+fy5baph+PoKX2GhNxh1a6b7KQ+qqE8Lzex9qIrxZ5Olpxpzp70dAlV6ODj3zbTEhpi2GsNQdzxZMxGQUnUFC6mDnptGrBwNvlgJ/MLE3FH9ew+nkn26WGLu4wml4hiVqm3uv7MnrkmXpJP23X4wBo1ZbJ6s6t2/QulMrvEAgviUIGJpxIom1ZhIa0Uj0qlxVBUq2PG84IsHotderHtMctUbGiBkHUyuY2aGu8ncN04CbbcyhBnMnkMR4GX9aGUSYaFU+GcxNP2bneG91M1yAhVp3XsEFED8ZRyE0ZKbfpfTj0I2EifjVCW5ewZZbHM3kMfU9rL74KjR5+ylSrmgHIy8Q4AhSBStSu9dsvx+muuzhz8lKhJQkCAgoqRrLTJuq/ZRneS6l9kFg2srS338rlgUMO7BvrL70WTZ0+ggSP21XUIUQSjISzYw8Q2x1y+zZcRpiXXulOIxTduEQVeWHy41OF8eeBbg+iMW4mh1rJDLsAWDCpFfS0ya+vvRB2FLEus7sG3x0w7TGIpdIHxhnwI0Y+oPUCFJ6NomXChgM82pBXnD57pGag8OqtvLFTOT+7ZtM11M9uTupN/Y0+LeRebYqKKI4eLY6fOQqccoaFPgnKx3m1dAKJ5HXUshrv9sU1Ts6Ai55qwj/iMfZH2gSeRYZ7l7xIeYOnRdFKLJECAQPke+kd7zVyBmhY6lO4XBpczXmwvR47132X8Lp2CYxtpBRamiwsKAkIL4ntLia7M65zRMuRkC2eQgA5E+B8vOptH0T3fuqPUKUQaK+01euPa/gtiWbjwsSj+nysYalsH8n3+wQzIlcwR5wDxPgyuXt25Nh3xg49GcRhe3PlkBc2HksbrBLVekRKiqnj9bBc9xsT6gwmEi1pmiXU3kCZi1+kGA/bBP8zsMYtB6Bs2TYqz55Ee+/5HNpw+U3LnOd0EY4Ks5l2BHa5a7a8LbFTfc30aZpxOvoIuIyOo0p0cPrM4YSd83t5MivjYETFYRFbXr5RqrkFBvpqotw5LH6ZEhzaSv2uVipVizEEL1CSQbWElAWony49Q06LrqA4i656yy+gPdocnHj6QdNGsAykBIw2w467UdmpWzhhebHEg7UBu1e5QmkL3ZHG+B4l5VQ7bgDyJVFcbHNPnIQ6w1ii6LSslp6JCtPX+unOPmKx9EoNp0JDf4qimEXxZ6PizDTkbIHuayVeoEv8dJfWI44tLXezlet9Q6IM0e2S3gc3/KlqwKPyNkbw3dDJcb4Jdk3RjVbpUv9vlQ9kJ8Txu9JrNv96ku66MYEiw2Zyy5BeIEp6FD8X8+RUcXK4zpVaS45XRFw9LcLSMHFSaUZtxlXjQXOYvFAIhba++JdzFH+MYXzm5SZ05V9ArgvoREKRL7XQea9ZrLG5exqib9WKYpNWEosajdNMUA1+B5hGYkHujOL4SwzH31KwUAi1mFyAmKpkfo73ti3qpc4rmFQEj47KoHRIVYtbadb2lXZRxQrra4Qjrg9+bCXhvzu2A2FuoVYygT5Eb5iF090DPSjd9QbsZrboLWHNiNliAshAiRlqNzVi+AqLkG5MyEjK9c4r6IfK7XJhCmnPx7RqrMYLgJHef8fJdl7OncwNkSRuszMyLRgxqPg04epJJeQcnIuaYTSnHFd5UN4fz44/YRGrg3X0DzbbmAN1o4VIuLbH/u8MwX+ipeR5tMqa/qOwii6+4U0mP3Nq3yPIds8nMqu3pxLiIWKtU9R2RdK80qP1IsJmRvXIWrVen2fRD3tIHEqqxSOglTP5bjMQuhUKYyE6cdN7fh09/tVPoHmN8KAKruXKqNYuxGUUjkWFie8T21njMzvD0h3dsNxihbiOpF6F6srogKzM/N1ceX7Yz3WrrqGtqDB+ZkXO3YP0RTA/y9zONduzfevfG2lLL5sAK6Z/jbwgu42KUA0MKqjKX591ad6xrHNe2/n0GGsDHVaPyoWgpgn511tQ0l39Ts/2q4Ek/ndj6vTxJo0ibDecDYuH9ySl4JvMtssXv+7tC9M1DMdczKulY5XJM/c4CPdns9092iTbqEkEFmjFPEvEz+pNyuQY+nX99QxeRQlgCOel8z3Iy3Qgxfn5LcAB5nvgvfTyHU62+xJTmdWEN4DrStQyLA/KEIUL1DicrnJJSom8zbbJrbabPirNYDJmQESrVgl0mdvdj65888+j/T/4minEaQ+5uN5YERd5dX5PdfJMhjAn51rO65ibceWLJw4sVwOCsBm4nULxEVye++jo/sefCMtzCbUc43Evr17cVyvuMBRAYtv2uqxM1xuUl90cx6J5bkxcWyfghhKo8aMMtRWJVEwflw2MkO+bYN75UnW1lErttQr0rapPSeoY2IDKc5OmZQvmLlrpji3+mi3/pYztq5NENt2nDWvkW1a1cvbkF84c33vYsl0J7T/sBWSsndM4mIuV3Iu9zEEZVW+gXtZutvQZ0Fcp4kDI+lPae/iqRfg/cCFWz/BDvWaAYqAUPYnD9ngsr3qtFUp39vrZwa3X0p7Ba3iTngwoCRtAWVSZhXw0oY4vMWONCl1t8oZwU8y6Pe+6X9KSNVVL/re21wsKR9ZcdBE6/fxjaOTQ06bpvy17ILX/HQXjSqqHK2MnOojr97h9Gy+3qI04hNPVchVRbIpt0lSM0NLsn40dePwbc2MnqyC3sB+13uDmh7mer8vM5NSoPdW3brfV0f9WmJMomsgt1Ru6EYvDglQCEctNKy3vzQwhBpkPEvFWn/H79doO1+aDqyUlkDRxI21EgNg7qsyvmoIbY7xyXahSmDLEKqmuNV3+wKb3RcS5GsLYi0kZuZQgj6JH54szT02fOSpttwau2Q8tq5IcSzGpouAIr8yNMttzEYTlmgip1RhxzJgWVI74f9Af9IxWWnsNhUz9YdUKnwAreIJyfWtRz7ptaH5qtL1sLK9wHAAkpnvWbs+s2/5zoZVa3yyDPtAhOSqemB858m1k+xex7qHLiWMz3gSdHOQay4m4zrfQXQzhf4UgAk8ipVpcpVqcLqBM9wDK9w3pgzNjxg61RdGbvpB4OC7N3F8ZPZYHrWN3DGyjTsoFy7jsjCMYRa31PRWflrPjfzp76uC/TZ85VIb8E7Ocl6jTFeVDwFxU7Ga71zr9m96uNeb2hDdHd4iB/guJUMxPPBCUC67ds/4Kmu7sU7ix/QS4FxtqRPFGl8bjLqUf079+BiZvLCUBPehcmAYERjGqlFa8YTStOKAvaK0jgDkuyvQM+h2bLnur17/pFwO95pBXbGrvUS2E7hNZdbD8unZzZgEoQhX1Swxj7Z/rG6nKqLI/KUw9TS0N+jPdg82iqNqoE4TmY/56bZj/JMXoRzGl39dvlQgz0BivaHc/DgO0ZsulyHFT6Nnvft4wzp+HfiHILfraItwgLP/6REuRajCdCzvL9H27FM3aQfXu4tlDX2aZnjdncr1biJtxmzmgYP6qXAxVEvJrGYZHJ04e+LaX7VSAyFo5Exe8xqEd1xr+2v0Pfg3xJGyPQgAgJ0WEZHIsmhm7WyRRkkqiu/yBzbsQdeyFKMkysYlmplyKqqKanfjLyUN7Pj1z9mjRsl20Ci4cx7GT7xq4w+pc8/YqsZhsIhBlBvdCTyeSI8XCxL+Wxs/0ZSwn6/nZHowZMa1ZjRgkrdQqiczaBL+F2RiIxc9YGoBQ08e5NAtDtJKNK9MIuG/b0iKztFYRUcZMSFjo54kqRZzuGnCyg1vfxrqG/o8KtgaBpxk3rTTBW8TISqrflpg9aLvpCNJihmq0Pqj4hX9qxjepWCbR8agwcZ8kOJMy8CyTR00ZxlqYr5wAAhO3Kxd5Gdf7LS7l0zKsSui1AVLolVodBwsYVooo0zWArrjzfejxr37ShKeW1DgSS9sB0qEsezvXjiOEURveKtPHA95icogXJv9an6yCTKrbUBzMEyS7ge6qkXAFrr9nyBWai9VOhsUHn7v/y9++XK9Rx5qNKAEA0cpIp5bbdZdejyw/ix79wl/WvcZ2HFaoUuVVvRSHeGkWBZOnte7zPZbrWUcsz+eEMCnPrw9GDQ+qkq6Mpmhc/fTMmSOfrRlFB62GCzOHRNVyN2fuLcj2BxJA3qphcTcy6mDMNUx7ukrUE0jGa+LCxCVOR98Oku7JoyYiGzCrMeAqJy01yGD62rmq/qWRiNoEDbwqcotwpv10N6SI0OTJg2huYthau+vmm1nnmo9UibMD+kcXZTf0EnkEzcbzk5+aiyqHUl29cmDb5ejMc48a7l32MksG95TEc1Fh6nGexL1erv8i6vp5SShqtlnb9PokYInV5QTjP/QZ/ZjevIcA8L9IlaKVStMMGyTOwxxK4/JbGqPaXjexUxsEZkagmjHwlkUlqsz84Pie+57TMMbzUvkxFZZGNFQbZLbvxrLx7QFxCaKEVQm74bqf+bV+z0uPJVGo2gGhQTa1Fwd0Ne0+sfr+eaCx6pFkburb85yXrWz3zan+jZdrAzkgqcW4kEsuycbr11bRxUqysLS3PHz0f84PH7knLM4UVoVRNANyKfJz3Z6V77kJpzquAI9BKtlUbtGGMDPmxwiPv5rtHijMDB9PgunRp5yuoZvcTHceN9iLWKOmMymErFB0B20ljdCrPsdkVTHcGIpLy8Y9Gy9xM2s2vpXm+n69ip3dYBRlk8QlC+OltLfIHSUePHFwz8PlqZEqA4auOiH9jwil1gQQacsoBR7W7tDzcWn6uJ/tWGfZGT9qsnF1gWi6EktfSX5bp6e6Moz9pn60xyOjKHk9IkhN6fhKDI2DcYSwngsNtUshnCAYeqGyvWtTVrbnGprpvLjWd9qYwMB2QnuGFpRZbVYPiKgqsGVH+uvhaG78UeymBmmHuxkmdTZc+YVrVa0Blz153/2AFOIfscLjWsG13DhCWLtz7RZ0zV0fRnvu/iSygCOyXYxEMP1W4opMgn1Jkc8AMYb2qks+Jbdb6a4+kGFeN9aqjR7kwiFnegMt/aw2ErGVBE9ExcmPlcaO3x/MTZYwNmWKK19JmpmoFs30r9tudw29hzupTbyJ/FLNW4TKayUtXn1IVIv3O7ZT1n+MRRSeUnF1AkuxE0KgUjRe66hvyY6kutpmdAsX/BQSMmm3fQQjDlGSmZFjtRDkKuhdhGcqzUxAn6g1uPOGW2nnmt8JiXtVJDFbjFE0VdoaFGUsNeYo9Y/67JZEEtYJ9F/wttmPRcU8qSgS7a9MnP6Ovo2cM7BpN3PzPgy8bVbtQxFPORG2wupq7LLfz9jkj7AST2uFGZsk9Qo9wNAv5KZy6JLXvQ0dfvTbJi4OyKOdxUVmDiVjzOvou8TuHXp77GUGG63Mq1WxYRNrdzE6pnfgsBEMKTgPiqeq0/J+ZbmbU152kHp5lzdY1LPQbxhwZReC6DdyFkt8x/prbbCqrS7CMWjPclD/lkvRlW/7INr33c8hrr14y3HbVakKxr2qtPITQpQDdWo2CUrHqZe9zMp1X+x0rtlAnZTNSS2doFrAWatetK5wiKFYysbaYMTl2Xh69LuFiVNfwzx8lleKx8NyIdRGcVVUJtaoGBl2cl1dfs/Qz8lMz80CWXYzESzYB4sR5BCxL5wa/eex/U+O67Oq9WNZ6yAyIaPKGY2yYmp7djO0mPVc43aH0l8hUv6dhpPHVBstI/RzxmEF7X/gKyg/MIRyZgYEXrF6FPKksK9eOo/S3QNpt2vgTtq15iMBdq+LBEZikWfZqhWknYzGz/ze+MmD34sqRQEFaS89J+yV7hKmC8TF6fu0S5slfqbX8/LbpD6MchFVBiBs2nOErqG36h3sSlvk/6SUfR9oOBReuQcXFndg2y5TOXVq7yMoKM21MQGuapqRWhnspt+AvNxV4OY1U4QATpWNRdFS6ruJVEfNYYPZ1UlckrJ0IClOP6tR9fV2Kj8IeqiZrYcpBIVIDthU/TYJyv9CMamSNpCvcx7r52Fo4KLdKKyW0Jl9jyBtINqwDwvTXgQMN0yUiiaTEn84qZYOY2pttko9N2HB3+z1DO2ybM9VGiipOpm28SLruadGKRehxxQUB4MeNe2LW0D5JaMDwdzoPxdP7P1qaersGe3thHDMgPFkNfFjKsAAzN6GUh13RcTu5k0086u6J+IxjHysHipVy3tnR09KOLv6JbHlTCXlwj5emr6R5vu2EGKRRo7UQmSsyqVGkeS9FpaP6x+eUG0iNwE5spgLABkNH9yD0l29Rv5XYkqq1pLRiarzs0g7cSjbvcbp2nTpm0jn4J+UJd4YcbQoo2hSDfoMpmwiWXH+K8P7n7i7OHE2qBX4vHzNXlljSB5hgU8k1eJDSWFql5vvW2c5vpvg5unGFoSnbJJWyXX6Fj6Ssa0ZhMVB/XcJRiuTNA7i4dAmseOmt5hm89LshHbZWRsFiTBquWuQ418TI9aRqGYOVk1YGK/eU5kZ/5fC2Om5c2gTXDAhZmRU3cfLc4dYOt/F7JSbNAF/DcF4AnlmNchwvEnjswkCMT7ZjqKrGMVRFW266nY0cfx5VJweNT2m7SkNrDdyA9uDQmXEBXiQU3x+aqKq1IQMS9dRN7MWMyuPmJ2lqVwXc1KdxlCqGkhUCP3IXjfjzdc/ghijqBAMEldRZTYpzh5RPBjXQOBYGFceqE6PPRoWJuf0IVdYrtQT9Aqgk2mbmOnotNJdtyTEGjBDiJvcT1cfSUcERywsvqGNYQUABKuBNP1RYj4uzT5RnTx9iUutHM0P9AnU+MBbqAeqcDngU7RbG/Sv6TMl2jGRElJPQaWIJk7sR5br1enf1ArbX2WOD0wp8jMdwN2LhZSp9MCGm6Wf/0hVso0BF4uO+gCodImSvozvCUuzn54fPxtYjvOSWMyrNoyAbiEAS44lxakHo5mRDXbX4CVaQfpcNT9fBdfn2kG1qvYcf0p/2+8z/Am9r3drVDCupFqhPY4KhZUyqjVQt1M56femzGJeaqP2GDcnCNvNrpdnab9jfu6bo889cnR27LQ6V9EJRovwSMbBoaQw8SC2nS63d+MOqmE7V82tTSXhKJtO/ZLF8LD2bs8S4A5o05WEZY06+1FJG0agkGov7RmuC7X2L4SsaH/7aJTEs+HcxKOY0A5MWY9etvXpgY3XpPo3XkWcVAcizJXEDCZlr/CuhhaZIhlqD7RE4vBkNDv+/ZnDe74r4mBCJfGEEHGBKCXMWxkgtno4NBYAp+1n7M71F19De9a/P9EqtFndD2bDo4jjUuHvYpE8pmVCetkOwwBk8ktSRrxSPBpMjTyoz9XOtDaMzXwOeDYBV4zb6EaqXTiCUdQOwwhFVfMTp9Hz3/s8gsaBlRYhAJ1lvHWHmkr1KCiToctuWOt0rvmFkFgfqgiyPkgEasWYS+jpdWW4V1Xm/iIuzjxP2SvnYX+ySwO5FBHP8NLsQ8HUmT4NSzynZ/02gqm9mL6tWh2PQqUE6JT41TmHbM7rlxLRHzBCIyxX9wyxxYWVMKBon7mZDZJYOZNZbMIwwon1bJsXZsYPz46cVHYq+8MbBCy6YTAWFqe/jyxvg5PrXYu9bLcpxGmCVBKCBJUoeYeN6RHXsv5WI7ZC21p19O1d+bYPGJq4o098D5GfMBx70ddC/tWERESkFfo4wmTSzFwj1JU06o1mR09oX/EE87ObseV0EcvJYkqd+twyWd9DUl9/CYoaS1GWPB7X5+KI1h5PJPMzz4hqcQosBtYuN4OZ4C/s12qTdCglw1Y6v8bvGfqZ2M9uk4uYoAFFSg4SzyXV4v1zsxNFx0uhtduvRKefe6zWvwYVGNprFFFwTATlsxq0Xwdz+prRc9A2pT3b9Smb2vq0VGQboiOqTv+2UidowHyBTM+a/5+9N4GS6zrPA+/2llq7eu9GN/aVIAFwFylRJCWSkkgrkixLkS3ZVrzESZwzmTNJZpzM8cw5k8TJ5JzMmcR2xk6cSHYcRV5iWY5ESRRlSdx3kCIAEvve+1LVtb7lLvP/91U3GiABdBW6sZD9zilUo2vp99799/v/30cK/evIyNuv8CiOO6RI/2+Sp/8OZNwiVmZZnCKOm0H2HtFq6Y/LE6efrRYn48sFEZd3jFbhTCTD+nE9M/qkMbRLpHLdPNfVi9ZGXWHXnTEJpxkIUhfch18teDwL9vo/wa8PkIVxjhvrwNENY8cmlr9jG7NRL1sQXRtu3sgLAw+B5e+YB/tuyTQ24d9cpvdxasbJu3VwIhaojOqqXjkSOtOvpMozdwgvk2eMuaoNsGVsDipLVXBi+suuMC/B4v94JSs/QaVIdj7wKTsovO9Hf0nS+a6rKAUUO0a0BQaQYQT3shGUpopxpbSfCNEF6V0GlDOFkzIXS3qNNg1iVA0Eqqi1nIHnssHpbfAN1n8aQ27UEaelZYsGG6o8J999l8l2fyrWTLTLoIDznSmwdi5R/21m9PihscM/MY5FqjJJcw9t6qoBBVNyWsfhmAmDKsSfWB1rmZ8WZT2UZC083QF/+ylcz9WQfn5d9UKQquMIO2r9rR/61L0k0/H3Qjf/SCNUltlpOQ5sLkzb0Rz1ncnTb39z9K1XKtgHcjkO3aVtgtnZraimjXlbVmd/FM6cXe9ScifLdvdqxtmVIpngp22DRqC7GlL/cqdPHswL9ne44zyrjSHkBiqrqigkd2FX5A//goweeWOZWTeSYQzhpbN+V999NN9zW0iZ3w5DOoJVWVR5ol8GI1CKg0YCPEwSctkkIErKgyYOi7D8b8ta6bDo6Fkj/HyPbu4zt/J38b1BbFiN6S05V90k4vjHK036i6K7bveHLB7+wae/ZZujro5fbEr2/FwpRks6LirCy6Ctp5LM0LBLxDPGOlfMJHENkn1Ma5+tUtuZtfe0XwTnoqjw8j0i3XGf5CIbSdX25TrMGscjYLdeAKFoIMIfk/NQ0ezcotm9xrgM2flJkPk55vo+ImjQFvfWLZGC0qwh47/PHV7ljL9qbNOqWTZbYMfb+I3FjIJBSM+6baQ8NULq0yMkpaQLEcqHWc/af1MzfGeozLI5RTRhKSyhytpTVMrf1VF4FuecuXIuW2ERLV2RkrOyVn6pNn4yFdWr9dyGWx4S2e4uaTtVr7xUEMN3RBHxlY53mpT4rQ6H/V+ckVfgEhoQYcgbAdEBBb9zYNBmKVGjZolgl00ZTDP4df1hlur4mHLSg9KWltoxFBA96/igrDS+netZU97x4U/ZfTgsKY28/YpFsU8MsPUuoYmC4+Hc1HOQofZ6/Rvv4l42baugLf5xbcc3NKvF+qc8pr5nKD3ZdAIrsh4xRKTY+p3p7CNBbY5kPf9qC8S5xUtCZU3mS9+Xu3eUzldsEsTNeQNuzHupv+bdbxskbrmuAT+3dtt9bvfQJ0PZPqcnt1mDqcazY/88cp034zjUMgwXBuLPY2VJmnBqKqgdikuT+1zhp5ifLWjSGrYbvhORn8qh/oSg9KjHzCGQ9aLvLs/4ELVzltKSpt9oSDcMbOOa7bfx/q17emkq9xDtHPxfKkbsDuWVAYKfrzrJGFrKRIen3nrxn8Tl6dfDWiV2FoJ+skyOMcmBlYkbY7Kin1JRAIlD96Dv+HcLL+PGjC4bBiYYTjLdkPfHiv9hzqX/1efmuyAEzyqUWTvYfn0vfFCrk8Gtt5La3CyZmzhjN5iXzS9S6kKYuNEIb1cEuV07SDeWgwwiDtao/mEc1V9wUxnZu6HTDr+iso0dej0pLxE2H0WDawym4mrxObj9fU5HD87ordftdCfTpDpQifRHUkL/IziPfwWOd2QlUx8I/EkqnSVb7vwIOX3gFWsIKbsWjQr03IMuSbvP/8z76AC5otmBdTtza7d/OfI6Nso2gfGbA93ap3JvtTT1pCp0VRH0H+eOEe1EQiQ+fmxfQnw7b1i0DlRQPxzMTjxNuNst+jbsotzzW62QIOJXXRo/I/VNrkt9zpxlA53ADtQwDi2oyPUvG9RyR9gmJ3gGB8V6t+y5y+0c/LWKNI81NOtPIN7MFV/J/EgONttkqTwoGpV/VRk7sbc2MxYJL22d8lICnNbnCdByynAMEpVn6xOnupSMld+3fo+T6y7Ey8BPN39jkM8xVmZtqNg/7fDInfC9/xi+/AQIBAJtyutZDFAAhrbfbkc2ps8cXR7HaDu4HCJgdXkqt0Vz0S1Ne9BjuN/iC1Yvjxz9H3FlZpZxZ8EOo/JrJJI4T4FxEkuisTgG73olLs/cLdIdQ8LJiKjFct65WS+VLkXkc12eOMJl/DukCU5JV0DJY7gebAXf8cHHiJTSYi9iRpJc93u4FnmjHmDZuJ/JOoX+T2u/48FIQ3bU5iigkzAojPG48UfVmbGZoDJrMh3dJFPothljvAD8bxYCFgpWXEeN8bA8/SIEf1vynQNbmfD8dkJQDAJjTQcYFZ2Ci7HlK6VSe/7XJsBr8S5oabdnuoc2I2dlIdW15qZQpP5JXbHHasqATqqkOLJcmaLgxAvLb5TPvPWbJqg9Dboe4X4ybhUtNetva9AO/lBMSXQ6nB39Vlgt1TCRy3mpD0MWI7C3aznS4XnE+lKoSGzMI7HD/zot6I89Rr4OL38HE7PrWK+twiF32HLtj2Izj5fqYl6hb8DpHLxNg6Ia1d53u4zqlMPfPn3myNni2aOGL2ZdoBZ/9fzWb2oLecZEQQWe3wpnRp930vl1otPZzHEIuoUpaLrgrAwpB6o/w9nPpRn9A0ZEPTElZlkixwuzhhhJeSHK3vPw58kbT/wJBCxHwBXLG5Ko971+QNDNUx0921i68EBEHT9uA1UtGejGfXRd9eL6N2Wt/Hhp4nRcL800nUmzRI0IQiD/5+0zogTKqBHXK8c04weNDCqM5AusVao8a8NsN/bNEOffwbU+SCnTVy7P8L2QLco4uq67kY1t8k1I3FO9Pakt933q4xFhv9DQ5OGaNPkgUna0ZbkugdIEAzfD1BlZGvvd03t/+D3Q/QTZpkU9F+0ujVFRSI06CWfzVFgc6xR+Ou9CZCVS+WxsCDPLYtCSA5FyAml6ID3+XFeK3p9l5NNwwS9e39qNtCnuAjTcle4D4HeIVDaV6RnaRfPdt+k2RzTQJkBwUXeoeZ0LJ8LBWrEkkGlsJJES1n00qsw+15g4szEl/A5e6O9rJ5bXJGlpb0i9Lp1yNkI0/RYYDYPKHsfhiuybIACDatTJnke/SH7yvf9GJk68Rdh7DHj5PZAuYmCWSfcM3W/8zFap2yyxmaThxlXBS7WpM/8ficIZDJDQCbLLYYk2R5WoVmWQ+bMkimaYUWsZ5US1WB1BFQ218UOl7gede8rYbYMrQ8JBma1VZiHwDq7jwG7B/lE32+H7vWvvqUjzu1WthwIklm7eyOXUPBfHceLaYVMq/r9hafIbnAvVLurVFUGzYIoKq3MiLk0+Xg4bkVcpfjy/cfe9jpfK4nWrZRzdwfbnuoWnjHuUx7+aE+yv4OSR9wxhzM6S62yyOQxqZP3uDxEvkydvfO9rCfrKFUXRlEJm1+/mO+9T6fyWSLdsJyz6g4uOkarTsG6PaxXHiE9oo7rFindxYTIg0TXVqOyrT5/+EYfzSOd7+lgbe42WyBo+Uol1d8pR/9ph/B+DHTt0NWqbUb1Gbnno84T++C/JyFsvwxoVyGpJ9XqIJSH489NO/4477nL7N34udFP97ZBk26KondEVkZmc/tbxl39wkDOmEyxOvuRvMVpiWjYmq7MnebawibuZvG41azRJdQQCwAd8Tl9wtPpzFPv2vSKzne8Qo15XZVTMDrHHZP7+xkGDrtvz4f6Ndz58T2jIT4Xc//icpINI6LzchprRxClmBSkXD7/5f04efPmbnNDoSqAgrwyzzNY7YwgAwEujlYUTCadO5US+e6PI4pyjw9Qy0gsglmogNZsxZkeVs3VZx/xUzjNPprjzryOlJmxEeB1ljNgYM7DpZnLrI18gb/z1nxMfRzfaFGaKIIjC3WDc1B4DYW87yP+WwJaaslCNvw6D8Pm1N39Ar9l2eyJZzZKjNoqcfO0pC6v2rtFoMr4xDRnrAR3VTlEd38O4l+DntlHugvV0y5F6xOXqF31C/hkoWECvwtpgg+j2ex8lbipNTr7xHHHtTNvqcc3URduyGyWcd/ldgz8f+/nd0vC2hvnnSWjhcVQa/ZoK65q8C1D05csaOtZRdLZRnHiZZwpbeKe/k4JNa6kJp7klFCqzMdbmLsHIE+gYW9ddSnCfrDE3a8txCS3W9bF2SPfWNbyVFPrXksMvfNcG1ky4w5AN/N3Iy36pJnV/II21WcvpFC3ZNI5kOHBvgvJrvB78garMfF82aiHx/CtCAhLLcnoqRu6o43Fl9tvVs4fmRLpwf2btto86hYEhvEkY9S3HVtv8FjkSgsZKpSOlb4kMW1Nwacpl5s84ZYfgPVMWc/U6qI4hsgP30qR/006yS32WHN/7FJFRo+V6N9w8WGPuMS+1TQt/hyTcdnm16AssAoQw8nhjeuz3p4/tn56fhVp8gy3QtYW0Y5c0GBBNj8h6Zb+qle4XuZ5BRONpZ8sTPzMXKtfj8lccj32NIbDDVZhbRZi4dL6beKkcsoMTREG5MWEI3wtOUVmj73f0ZEVHzwMm3flwZHhWtdnlLrABg6qqK+WfRmFjP661cP22TgzkfDwqTb5Qd9PbM35umOd6Cq2ADNCmjON8Hjx2eoz0wGWN8Ba8GtqLOKiTt5/5FhnadhvJdw00UaWv7REHtaTaZMHtOekc2ujs+PDfGFKU3+J2D32uRr1PNyJdsFniMvcN2JI7jmPg2FlYfnb67Zf+j7g89WpUq9Rwa+hK4fGu3DHOd3QpFZqwdjxScSWuVya5hwMB9CM8391PwabjfpJapptDm3XTANHqAt0VyfjvZhz602lhnsk44qvw+pOQieAEyTVuZMbxh6TDc2jrreTkm88RE7Z+D6yzMiRFHX8jEX6XbJPHBlEgHGPOVOemD5fGTumLOemk+YZeymCg9yzG1dmXGhOnbnG1eZB39PW3wWWcKJiy+8h9GaG+kGL0t5lAUPllQYO65IHX3zW8mazfdS8ZPfw6BLiFVS91LQJIZIlI5ZzC0JZdrKPvV2LuDbY5nZGMIjmMsHrpzxtB5Wsg33P9W/aQufGT549kLPXrVFyXQe1oUJrY5/etu9/p6Cu0c0649REo0pdzSIcd2VCyNXsnYzJycC/pX7+j9cB6RYouhqzdfR8Z2f8iKY6fwrlnn7qpRwvb7vxioOn9Nan6ghgRzXTrqFyXuZeWfxLuoU9l4ASVb5la8Q+q4yefr5cmI5xTtJjBVxjkLlPlkZ5LkWQ0Aaf0YjB1VquwUUz1rf+I1z20Tbgpgd5ML9Os4/yNRvqZMkScDUn7U0J9DpzGRpczAaHe82BksSwXmmsKx0RtRBwHIQhPw5aMbP7fgtV3Mx2cCK+Pp7KbNOdMt5GazdfhRRSfrEyelUzAV9JUe00uxo5vNGRtbl994tS3IeDpzGUL9zPm+u1kjRYlRGpSjuTf4p6YcLn4I7hL1ZXO+rHU3T28hfiZvO3wmx05Rrjj3XAD0zd4vmhFgPuZfrdr8Bd0uuv+wEKwtcneA0uXdni1NnXm6+Wzh0+k8l3GsxjAba6pxqlzUdJh4zQiRGG8xtroe8OZRsgYO7XhWz3Bn1UION9Shyu1mKjJvuJVrmzQZL4ZnbMdcUJnB5HL8M67BVYy3Xx3Z2bN5gca1PvNRqC2NTRJHKJZ/glcG9yDHUvpuGSKo/+lePbwfzBxdAy79qxTbGEk4yo4xvMESRFJpuPKzLNxozIDN3MO7utjbufgFke4vgR3rpZzXZtZIc4LQXIGz/EdGcH/Ku3QSfjvjwg1T8Kt+ha8ZfLaJo+UdA6uh+jq9OVLlYscECpCrncwLbLdtzn5nlskoW2V/ARDrEg2TevBT6bPHiMC2SboxcHAKbuESNuBRwhxomA6JnOvsvLMLhLUbuUZx9ftAozDZ+YitRaE/h/kHfoS6P6rEAOs+JqEtQrxc93ktkd/gbz2rf9MKrOTTezM9w6X4eVkLCECvkZZSMKk40DQdxvL9/1swzBfXkHXHg52pwV/Y7Y08dbk0Te1YwG2KeGXq4JcSjiNjiBznDIynGZa2i0JZZZe0EjCYINd2L2QOf60Y/QPGKUjoN1LSBsTG4BIWtdMRJCIPVcgEGRYfSGej7XT7lql+FD39js/nb/pgx+vRXHXXBgldrhZGVzu8JInxNzSU8EEa5S+Vhk/8R/GD+09gSuEqF3LKcMrcLeb9DtEz1Fj9svqjGmM81A1ah8S+Z7tIt/dTzhkFnrZ/2rC+wcpYxhLMLK0L8XZF3KuuT/nsE5hzO/DyzVyDbassYSDe3kf/PzfJ8/96W+TyVOHiOMttdmDMlDuYb974AHt59Zh2bHliCjpRtWukXthbfYiTB1dgBu7yDmD876kg0t60SGMBIMRh4d0VJtmfjYPEWVbWSOxQ/8WEWdbWrBdDqOvXq2AxZaUuSB3//TfIy9+4/dIdWYsCQze65ljk52BC8/uuV6TeFEIKliqi/r5u2PuFiIwru1qqGWLYUYKap7jXMwxyP6xArAcCqwRyD2sT5C4IZlICdUGTm1sDKvFajcEf4+lhPNnoIMzS7Fs6BhNG925y3XgPPaGOx4k+b5hcvDpv+J+oa+TpnK/2uDer9YDuTmATDLW58YvVuI8bZMNMxGtTD8XzU38iQnr34X1GOWcm5UI6lYuDNFoVmVN1sr7TRTOhuWZgzzT+ZH82h0POV2DGxl3LVK+Jsvrqqy80mRGroYlTKN7Q83+aVqZv+kL9prL6BPwlqfhMXu1BQxxpLFklxD0Xl6zcEQDDLbPnPROmsrvUdxNt9qQYAedsaPNgAOr1f8H1erwTQ985tJCCNH1sZe+T8rTY5dG7UmcY13HjWNRaeonnvA7RbYLqclYW40TlmlFgYNkP1NwxXPwmxPkKpXBLdE01eS2T/w8eeOJr5FZyKqxY5XeoIzol9MSBDeIG3XSu2EH2Xbvo+Slv/x9W6YCgbt6ASPoQ/eGmzKZ/o0fN50DfzOEtddtwsBiHONxoh0Z/MgE6n/oOGpYdphLNcrg9S4FhDuZVJ+R1dIBWZk9Q/O96xlzWauM8tYmSd2bVvSTguqnGdigy7ULYNPQ7PhJ8vq3/wjuzdXJ7G1PA6yN5TC1FQVC43q1r7Bmw0f3fPbXPxIRfmdEnfWhpIVYJZhEK+W0MTYVlJE0qCFvzD0xcejlf1kZP7kPZLUBwYJeqfuxsvk5pkqQSigVnwCPUIQLKdbHj0dObe4DXs/QdifbWZCGEWlxOVfgz8MjlEbESnWVqe4Cx7inw2MPdrjkt33h/CdyVfceTZN545eWyLxh7PgEFU7GOP7NWnjDmrQBpGzmSxDkZVmee7JenKyzy5D2YtlGXZZsmSYoblRGJgqONqZGnojDwMuuv/mjLN1ZQCdD2phtRA62aqQeSAn6Dz3G/i2YtoOeQHhYvmJdo3idOPzfqFftPd/2gY8Rci8jo4f2kuOv/pA4kGG/Z8Y54FobczNk4+0PkqEdtxFELcI9uNse/TLZ9+TXLWKTZSC5Ch262BPt5bp3+/1rfyEQmS1St58V4edSTJdqp4/8y4aMXhd+Sg3tvPuis35YwQnqFRsAXXa2MfFIRQjuXxFTZ2/1RKqT5roLrQRM88P+kDX6gTK7PKaH4FdvX26YjcKHlNR2fKqtztpWbSYE7tmuPnLLx79I3nryT21gnO7s2aD97K9XjPuFuvD6Q6ldKROEKrNispF00XtIjScbp8LTx/4dk9ETcWX2mArroVmAsVwZl3wVCte2pRJy7XAGMsRXAq2mosrs21G1+FBmaOv9bs/aPqbBMKEP1WZFbrBlnNdY41cuRG07wPj+r1nXDIO/eBPu+zg8T8ENPkOuZPB2iZFYoX+Q+JmcLY1c9sQpxLRcFCB12Sap6FSmPZ4hz3VJPD3y/dmDrx2tl2fNZYGMQdiQGYRebkA22WtUOqxPRWb6OSmjTr9rcJuTyhVw7FK32Fo4321ckyorAvozPSl21KHkYJLJrFwhCb8bH/PMTumObsIchwxia3zvEM52kP0//qZ1kMl4y42bQWLJdMOe+8jam++21xmFgc2WO3rXkJs+/Cly4vUfk+rslMXlXVFdoIwapjIsnX9UefkPRYqydgDxEydHCQRS0o1rXxs9dfC1oFJsCC91ybXC9bbUlnQpnTSI+qQbqlF9uzEz+gzxc9vT+e5b2wFsxmbBQJrBDDfbDKU/wr6Wi9YkkjlxcFYNwtgKm2o8EaxoQfDOuch0rdm4bvsDn+mTTGzn+Z5Hqyz90TAy+UirBeLmldBIC0QC3+wITlIOJ7Q8+dLk/mf/SVwp7qNaluKgrlacdPzqOMb5K1bYuzunavEBFTUmVdiYhIuLwHp+iOc6Bx0n7SJ9lS1PLLPdofMJDkm6H2OtN1Yi9b+7CDbLSAmU6kiKqD8TjP4XRumKNunISCYO4zIL2+SuBhdGO6nrr9PIAt9mKcJhhriuewSuTddmJ5ISyeWEswXhQwQkEzdGTMBeiecm73ByhWGRLhTaZVyBWwQRiu7JOfrTnsP+PZxHwxi6Ylt+847R/gH4O1jyRlg6RCvqHFiHhUcLv3Vs71M2k0YYPXKDzjwieHr32q3gFLtICBkyBmt21hiut2/jTWTs8OukMjUGQrOyjlG4nkjnBnbSXNeDYIp9qWWba2chDmWWxM87Rv1xVC9XkaCaNaqXjdex+WxJSDhWLiywxaysV96W9fIoI+ZWRlqH27K0a0oLTdhuh1JGE9Dyi9otaiBYkytb2MJu+bBSIrmeQdIxsH4o1ObnlDQ/k9qwZ0tdm54GKGQcS6LM8o5evDMPIJZ9BHliXdWYpZXSt4KJU/8hmh1/JapXFI6VUmuXVr4x7iq2OjWZW3GkIw7GIVp6Jpg6XZb1uSN+z/D96d51e0Sm0IWCivtTeqUcJEnm5nDolMBiu4wWfEHvyjpmcwxC4HD6x2DPJ7BhEd6PwNZqma1wwlnbHIx9NwNrmjirTqbDZ5nCRuan+2Wb2KgC530YrYLvmomCWoIwcpnIHP9MYjBaaA3XKoR1PRLMjv2AOV6/18/uFZnObNxmFoB7F+VI7Yag5dNcq7/CCiD2dCWzaMsfLV/owGmzRT2slew4x7YPPmbLrWffeoWAklrnyJp7MNdryVQ35QwzJybcZC1ts1FgZZBeAG+GZVQrGysZjaMjFg7N9w4PZIa2foFkOm+JMFBs4z7iJxyUbxMejKfO/t+V0tQ+uF7TDmj05f8Y9hMq7E6dNDKawvomsyTtrZmphJTdjm/cmuKkAzRs8tKfXxks3/l9RLgu0bPhprSf70rlhzZvyQ5t/WJZ878VapJG8vLYIniRBfaLlZIMLJtiF7qL2z5x7XAwevQP5s4c+jMdBWezHT26FNax5+KqNcSJa6GwaJ1NWJ9WKn4BLnxEBY1TELLOeD1rdjM/38PdVJ5CPq/1ytidxRQnuPAqtpBNXVVpfgOE9TdSgk1AvvYC5/T3BCVP02Vk8sByXbaz1w6TY1nr3bK3BAmkwDqHt66hmcKDzE33GkLaGoNAbFSX8zdLczNT2GrdvXbLkjKoWmkG0f6WHp3h+IaMimFp6ln4sZelskN+pnOnpG010VoDUolV3o/ov4P/VwVT31VSqoXy1zILxMW/M5lDDcEZ3vLRnyESjMnMyHEbxYfV4oIBvuZD1xbmTqHxXpAhL9tJXMh6ZVAnQWX22o+gmCTghaAi3TG87ZOsd93nGtRtCUnmwkDXF1y7jcaTEyfe+uvJEwciDChbWoulylJy74zRsmLiYJREQZV5mSzGkK2GfjoBFt+eIuQ+CFe+hwG4eRcdTPRdLfMSJIwXDgS+qY7erDLmseG7HvlyTPgH61FcqEYRQcJgpc9NkrIV9kU4SibATbOwcobL6EhcnvzD4ol93yuNnizCLW5iN1/dntxrNBzTzB6VrMHaH9VkrlodOzremB2HrLFjd3pw091u58B6SYWQxKzolg5diOIMiSJFavAf0LX+tMM/U3DNYMZlX4Ff/QlJ9h+v+EyisEa2feDjtvvv7ecff5eSZZOpXTi+SGd38ULfByV1sqaN/UVOkHbHSFmdeXbtTbfP7bz3EZv1XO4Au0We/pN/SyZPHjyf3fzyWSOkKNGYalT3yvrc/VSFOzh1mGpjk96uCWT1pUD1eYL/UpaY5+CXRcZWIG6lS9vDxKaVdXc/Qtb7WTL+k2fJ8ee+TYQduzHJuIMx12bEA9sGwdBBQGn3Q23AV6+Rod33kbVwvpMHXyUHHv8qEa2s5QoFxZBlCXAo62mu+4sBdQdj3b5WIXsGBLJjLG480yhPRy03p+Ba8RZKxpYmndQgYjytg8o4c911mjo+Na1mjQbLqfmUoj/rCHaEU3bAXFCVxSawMG6QeWqs5SpYIlEvBA8s0zvcs/4Dj/7DgHufK1bqGyFDZLGdKb16LoiSJjUYVVVaL+2dO77vD+PK7NM6bpyN6uXQ8Xxb4arg+BS9uuNT1xZz2yKoWIaHMQjFSzpoHFZB5RCjtAGPh5yOviEhHIERlrTl1ZVfKNNkmK+Ck5Ra31GO9faUoP8TpPin4KXD8HgRHkfg8WZ74RwlQX2ODO+8g1DByb4f/oUt1b0zYGQFw5w9xE0NS8pEO9cOGS/hsvGiCSuPK9+vrDyii2U6DnQcnorLs/vi8sztoqN3EDcOpG5HjRPYv7pUD6cYvwd0CNlU5LlXr9hOtKxslqe7WiKdG3aQ24a32OwEs7MD3/4KCcozZKHjF78XS5grdM9tKV4nJUjcI+pct53s+PjP25/PlSwFZLWld7CnXO57jdYrcr5+rkBz/Rt6nELfZ7Wf2RkbI9qc6rGd1iluiE/ib9br5edrxWlyuW7ri9qgVv6wUg3ZqBwNixP7PTddoD6HFJWzVr4HHWkISxJy/cEUp1sYp2+bRfjaGDQHsG5Iqu2m01dkX7GfAdYTazBb46B2+8BNd9/WtfX2W0ND11WpWBdr6ktlFrLeq+F6khEMarkTXaIC2ij/oD516nfKI0df02G9htV+0wQ3mc+er/ZxnZBRaLA2UdWoqKFVNBdMnS7FtbkTHLJHN9+91e8e3CRSHVkFdwr3H81VWEDMcuqxEQ2pC5WIFhxGbvE4fSAj2Md9Tk4QGn4FTOITkJXVzLyCGb2khZwH6h7YfLOFWPrJk39C/FQ2Yd4wTc0QTj/10nu0cPOWSaMNA4JM1vHE+L+ZPPr6S0ercwqBmpdSjkWBLI2fsVkQ7k/Nc0ou7cYpjD0nw+Lkjwk/OJSW8cOiZ3iovX7ahG6sGum8z+jfy3Ja5Nx5FbyN5NxdBgWltjSKW0emRYNjGQRwL6u59Nse/kIT0ajJVIJMM5UiOfjE1xbxcWI4zjFiSX6+3D2lzezY7sEl02Lz37Xj418iXq7TNtOgI+MWDoudywpti29rexHIkrD1no+Roy8+SSZPHSSpXGHZRmRQa510Pp0b3PgwyXX/XEScQrv+F08JZdsJi/914uBP/p+pY/sn6VLppHDvNY5h3Zuybe/XUvfR7eZ7qMLa0er0mWdYKrtReOAcmXBbAcmer1AFig6CB9jBtX4C5Fxi44njZ0hYnrXzzq3SStkmsua91nB9rp+i63ffm4dg5KOxyHwhjM3tIRGDIXWzMdgqHAMxKw9JfF4YixUfZD5xotpsY/zM48WJE9+I52Ze1WFtQoeN+Jy8XVtwjeuGpak5SSqNxM4v87IM68dYZWZjXJ6+S9bmPpJbv/N+N92Z1YJZ26u0WvG+h3nwATTOcYJ1mA2l2elwswPCrG0pwT7mUPITTtkU9/wRh/hHtdbTYRgYbGKgl0GWwQaOfnCOt9KfI0deftJG+7gPhAUeyp1B0JKt0mC22B71TsoV5PShV1+aO3ME6eubRvXin8DMBxt00CHufPAzpA+ykFNvvmDBz11w3F46uzQV0LoGgv5GODvWQx2/v6NzoJeDF1GmDQePGzBw8+cYeYT74miKksOwILPUXQ78e+T31m1KqwXOX1D4TPfAuc3RZnCBEFrbHvqbFxBV03PA+2YJi7jQdGUW/i5+V2Fos3WGptkZgWuHxvBKDAp+N67zxjsfBCeWJRPH9i+RxPpyFUjL1YdQuht4rutLkd+xI4IspV31xUaNjOeQ6skT/3X80BsnZVQ33FlaGRVniXGfvQ8y/srMBDm+90cEgywMGi/viOzcl9QynlK1uX3h3PQJ0TW0lXK35SgNR9OwfBlK3Z3yHFhKj9QrJcugsXb77ZAp5pbgsqi9t8i8gc1yYa1CYyk7uZ/aKvI9G9J+flgxd2fE3Qciw9ZLCPSxGU6Zc3J7VTJEdDSI0yyEba5JETk9fWT/bxZPHXxCBtVJyBIb4DINXsP1glN8HTnGBSOgIVxC61wHRZ/UKj6ro3AMRGCCpzq2i0zHWpHt7GVexleULmwS0xVa0MU/KNtqDZGeVqwmyVaHMXgQWxJIC34YHt9kSn4DYtL91Jg6LLKhi/w+PW8vC7tTI7tHNXzTneTY3h8TE9STeI9Shwq3n7qpNaoNOkv8Cw6jWhg5tmbbniAGhZubOmuHdS/mmLApyANl3Hz3w/a81u26lxT6hu38FA784pjCsVd/aEEJLmlAaAIJCNn/LDjH1+Nq8VYT1u7mOB9AmjOlbWTv5Uj7LjefcR3yp1zpl5KbcmWRUbIey1RheBdINfz+PuS7vGj83LIkLhwQOJ4rm17ifa0eEchgrneIFAanyeih15fFMVqcTyZ85ufu1H7u/hB8pDZtziwipZQAx8jpK7PlmTeDaqkJEr7U2pQkmY5u0rdxJ8n2rLEOBbP/0/tfSprhLjWKs8AkJAMSxyNxo4q0EnUO0YQhrY1uJPR54NQga+Sce67rVWoyJqMH95LBDTclzXnvMsJiKxXN5iLQMcwKydqddzHmiIzX0XNTRMVnlBE/HXFvR+znSITz21KRC4PSlXY/5zJEhvimhMt6XRVnX60UJ5+uxvVn5s4cei4oz9a5cMy1aK65wRzj/JKZJKQyBrtBT0HGVK6ePngAQruNTrbr9szgpo+m+jfcjs7Rjnc0gZDNVdiDnK+oYKCOIwXJ7A1kNdxsywj1D32HfQyiom9yQ16AX48JQ4qgUEUqRAiKJ7VZjOCSRHw4TG9ZucE5pfJ5Sr103sl0bASvmW+HZSBh0iCSy3jfxj33wSJTMn5s3yWbL7Bvxs91gWN8JAFlB6Nbnhoj+b4hMrh1Dwnrc7Yzc+bMkWarP7tM1ggXo+S4CetvRnNThz0udjI3nWfwuVYzYHs+uNcYq41Zzj+V4vx1A1YBv6t9faLW2Su7/7YySonrjJx1N9JBm+NEmIXoZZifw8qJn+/kXr53q9+39lMShEBG7XdaYgdjhqoJR0f/ETRpli2lA9Wix0TJyMr8GE61bJFktiDKEZYekSTx4GsWN9c28Vw0gjTJTKOWJSOD06Aoc4yYPhsstlIbpkklShG6E/RhSEk5fTEGDWOS5i60cTiH7GfyYF5ISjNRcPI9vWvueGgN/HwPaOWnqpruRrjZcD4zXFQlupquB/eAOawNJg2ODM7ExbH/Xjz8+n9vzI4dVHFQ4hAbiQVg9OsPk1hcvxrKFkI8E5tp+KkIoefxuDR5pE7JNHiUmtPRu4U6fk5AyGhA6hUlK96gs7jCtdhRBlJjaUTwWN8qGL0VHBPxwJinuHrN4/zrgrMfRlFwhEhWt/Aqi1IVNEa57gFSHD1JUrkuke4b3gRh++2a8racvXWMlNTBBb1Zmx2P1mzZRYZ33H5+acYs3quldkbIMo3Xysm8EkILwAMVsl6aIk4qTe76G3+L/OA//TPIKhqWs3EJZZ46ZI1vBpOnn0Bj5PVt2A12Ma1U65yU+H5sI68q+iVHOCeojL/OXbfWbsqHkWwU1SDwjwh83ypJ8YXVg0yOZLv7LRLKlZS3cNcr3TXQU9i46+d0rvdTddV+GyrKdYrDsk2d+jclo78FsgoJkriMT9T2HHK9wwQH/3E2bz77s2M4taTZfNsHP2F/ffatl5v0SuJS2g/iousmDkdN1JiB6Goj5UyQFjbSz3XD021hLO+nND5KOW+8I/G0M80OMuxQeGa1SjHtlGe3urnuR5Sb/0wEDhGzQow1kJVEmnNQbZRc/SZplBWBGSKEIrQ+N0Ki2oG4Ufmr2vjJ79QmT49xx9HCccz1Dh4lrn81tXsyGPJhaF822hyJSxO1cm3uKHXTO5if3pFfu+Met9C3AZxkFtEWlbnqZ2jX2c4AE2PBA+oxjktoknLYbVmHrXeZ+bwnxAG44d8Hh/UqvL9kK4tahxD1qlsf+YJ69VtfNWFQS+dT2Vt4R++tEW1vqB8RbgTVo6C4L2nixqGqX7BfYRKw6GbniMEsjrNLOKsks0WkFIymLaTcJUcTaPNmyFgH9ZON6dHvB/Wq353tHGJeOk3buS6azJxWIw33Uv3PeZePQqT9XYay0VYmkwC5r3Ivknct0/ZvvoV46Tx547v/5YowOnkq46W6Bh+juZ4vhtQVUrWfLTqMyRRVB46+8cxX6zNjM9x1IEDzLpkp4iNV6CW7furL5M3H/5DU596d0KJRLpKt937cOsQTe39ku43pJeWbYAfPhGxUTvE42MEge2u1wQzfD04t3VDmMaHiF6OgvtdupSSzWdhiy6WMnVS+29/9yM/lNee3aSo+EWtyT42wdYEi2SCStmP/wryLXn0rbeFAHGq0S2TZ1IqvTb390n+ujp96Fn49Ab+OLI1cE13qeodVFDeUxtrhZRVqLc9AKDtJ43CfjoNbGuPHS9Soj0AGuVU4kJFwIYxJnFQ7e3TLVnIlFoIO54O6OCUFxugeQelnPU4rLuMzDiXHhdZ7HUL3eV7qBSLEbHnsNE0NlHKFNdsHtWlNfkziFAmnJuAqfC1u1F7WjapcvK9pGyGMIj3DWywlTyOoWcxIfpmNWoy8sWy155O/Qt54/KukNHq8ud94MaRH6/yw4glpGT9MIr5P1ubO+LnuIYe7dmaqlWub7/4MLKGxWgeZw8M6Kj/huL6yRgycNVsiEwbejyCo22yRs/cJ72KLEmwRkpS8om8xFFaFiT5IP++LmTtk0aaugFIq45BZV8dfA10vJ40a/BLnL20jWeeaTWT3Y79oAyFzmesJamWy7tYPE+YIcuiZb9l9vkvog9RxOBaVpvY7ua7bqJsqUCqsniy91J5gp2rubi5Nns6//q2v2Kih0ah3eZrca7j3AUXpdino9kiTDsguO2JlkLIPG9ksmbM2164QOZ+RYtkUZ0qFlpLJ8AQNqz+uT57+iqzMvkVUXAMhUDeaBogbVHPt5pBRtQYIeyWYluNxtbSP+dkd1HE3OLnuben+DduFn83iiNE8xNzVGPN4hy83Fn4Oq0CQkhlkvParhBbgtNZ6jN7iC/ohj+uzGRq/tG7PfX9UWDvVSzv6H5FULIymtOIZKdb0qZlQlbmvndn7o3EZNmy3F7Z/Y9kIG2lu/6lftDNflLY+LI8OaNt9n7IdZiMHXrT0VG6m4+JAAGApjI7nSBTuq0+cfIo5bq/oGt7MOdL2tN4Ris079Vhlqw77TEE43wWle94kPJutGe3V0unloge7TYzOpdWMEUuU3PVo76bdfU6+52dpof8RMOysnfnIedo0yBRLolr+42p56g/BYccXy+ZwbzwCOd9010Nk6Oa77TXY/fClNPtY+DNJBrbdbseojr7wPduwZiEcmzRMSQObbcBREJRP1ovje1m6404/1bGBpjpcvMYla1RzZroSRBs7sp1f2P3wF87Ua5WU2z34xTpzIDOkw6Em2UjTZkd3c7jCXLt861yJltreCh8sG4vrpdqZ409URo4+QbU8rKPwqA6rM3Df5I0Kun9jOsYFo4a9ymFJaX1ABfUTlM88DdK7VtXm7gYP9KjfPXSHSGULgrsE9+uUHb1Qy9HQ2JZALZw2DmUb21AiQk37BTP9lVjvcbvW3prKD6YCRbaHqr39Um5BlekkN/pAozwra8VJa9yGdtxJtn3gkWTRIVM0593HVpJ2STKFXuL4Hlmz826S6xkmUaNCDj//OGSQ2XfvWMUyOA1PRKXJHzS89HAmle/lHf0FqdujG4vByBZDtVEw8a+yWv8Dh9IXKHb/U/Leo068RoeKIgsqffODnyUnX3+6iVFLl6CayVA5p9zzC/338961P98QqbVxm/sbdpgfokiPyLfiucmvjL39yiwCul8I+2ab2EDOt93zCeKmsyTbOwRB4ICdzZTzuMRLku/YynG2e6DZ0GdI77rtpHNoI5k8/pZtYsMGGcdLa7jOKqSZx2S9fMLIqM4obWlsA88I3XUtgpzQdT6fGti6TYQNXiP89liStDRJRriY2/RaFv7xb2NDjbDBN24VSeLI8M2wNPHHwfjx70LgexYC1YaRcWwLpjhbumiEadUxXhU3M79Utkc0hIQsNHFQIpJNxIaMVrU+HZVn7uCpzDoq/CEn17le5LsHuZt25XzTa5vO4UpLrPM/YPyM5aUoMRrCEfyDFE0A1c09sBa/nxErsB6nx6nnT2Fn4fAtHyB+tpP0DG8ma7bvsftHYaNB+BVgP9kIuhaRVEc36egbtqDaaIBO/eQ5IhtVOxPGFze0WM7qqApXdCCcHXvaLfTvSnf03oolmFapxuZPuQHecZbJO0BHf1UI/jboX3GpSri6r7i0AAgRmQa27rGOkSyl3oKNIpBR+RCLilznJprr/MWQp26BjKelEuP5gR4laVcQVp5+cuTQ3oPVmfEmwwJdAEq3HJJuimy6/UGy5qY77dhRFAW2i7p1KDFqO2kXj98g93bP2q3EA4eY6x0Eea+SkYOvEi9TUPD9sxCUnzVxWAE3UGgv0DNkLlSFSmweINSxc9rnNdBcw8wwaTJkBLcHsdzFZRDIuZl91eL4a2BvD9EoeC2qzO4LKrNlxoW2txvfPH/WN2hlRtz4KtwUHbupaKv2DRPWToVRYyaam3yFMN5JubPeLfTekxva+lG/Z3gXTkYb7Pi0tEjUfkxfgwW8ACGVRLFaeIG2ZUQI8Tmrm7D80uTRN8OeDTvI5rseJnlwXrJRI7XS9LJBlNGmUQpiy99Gttz9iDUm6CBL46dJFemtIDPlTVYHrKiCtS3KRnlfXJ7abxpDOx0/48am/U7iWqRJmusv+Yz9NWTIfw4WJVpQxItlj5aHT62WUpdSSgUHETdqlpIqaUa5jDNF8HvHpbmBdQM+ZIok0/VQZLCE2v69RpSULCevBbXit2fPHtULM4u4juAQU7lO0gtyLhyfbL7zIYtoE9TmbJS4XAEQBoKNSokUBtbapiTkq8R5z+LIcZTpKq3MHlH1yojbpdaifrViS+bP0Faz5nET6bVziIsDEmb3Dxm4RQh4jIocFY/o2uxfV04f+PPSyJFDKgxnsTuXGp1wJAr3OshrVx3jBVq5aOZKS0kNKRHGyqAdZ+H/J+LSxJk6Y1MmCkaYnxmgTqqLOiLHvWyOOV5WWYGm18xg0iuUpyQBpERwXtTVoDQ7epzd9Zm/g112pl6ctN12nLOV4CpJ9qJUjWy/75Mklc2Tg89+2w4qo3HCLsCEQcSSGseg/afjuanngqkzW73e4V3czaTbtZt4zZVIuS4j/wiW76xD9TMJGHOzS+8C42jLfFh9lyH25a5mjku4wVgO6+gdhqBq6tLl1GYFAmLOjNc58BGvd92v1An32w048VMuZB6+jk7FMxP/tjo1sm/xPjaOlDhemgxuv41svuNBAomMLaXaja/lMMzzbCVkHghifnRpmjjpDEWmlTe//3VsnhFGuBJsTAWRLZltwDHtQThca3FsQspBygDZodZMy6quls/quDEBdvOoioOX4lrpmcbM6AncY+VIVGrvNz9ng5nznhD9945jPC9FaJZPKNMWhYXEcyCtb9enzk43ZsefpcLpo9wdhOf1ueGtH0p1D99MIRSFsMfVi7L/GymnmAflCGPZ7Xf2/9KdP/PreYgPzkAGhyXGMryEzK0QStvnMAlSl/cKsXSrojpZt/NusunWByw7x09+8PVzhRkEfVVsJq7MPlMdOdKnicmkhrbvZHah2jsa0oBzNLd5gnxJCPqWNnqKNsG1hZ+y2ew8jBoyi2Dn4TWnX7qByqm4X3fbJ79MXvnmH5BaceqiJNfYgc+Ex9Jdgzel+tb+esD8vlhdAegGTrC7kKUWZ//96P7nvjF9+lDoeOcAtWNkqbn3MbJu973WaaNDIsvYYUwXcFSbwOpGo/X3QHhyMo4KjInUro9/KRs06htq9foDAXN3KNp+yfia19yaJpND+ufgaIVsnFZz0y9MH3z1G1GteBKiohmj4lm4GQFNCGObs+bmIjWwVcd4A2g4xK06akCUc9ZwMW7iQFDGsoR7w9H0yBQzuiRy3beIVLYbIp40hKJCwxt0k9HjRhF17FyrxcoPlf6QCPUdYFcCh5GaQ9msMGbUMWq/w9jTnLGXwVFM15CIFEc1ljVzSkpwCBTQNbSR3P3pXyMv/sXv2b2nxHnrSMfxSdUoPy+rxV1URps44uK1W1LFLlWpST2Wt6YZHQALObXq0pY3a1SW0NZc4i2a2BIn5RnjeLdrkbodsYXbrQTYIT5BSZqTsozrz+korPN3DNwncqaVWnaDjETO2d41ZPdjyezjxIm3iNfR1SUy+Q8Z5tynCL8Jkud+0LdCzFIdQcrLxtq4SlHS4oTVdeEQsesXEYWYDKo0DsZAJ98ijcoTqlZ6WofVk2AvIwqmkCZtxYa8Dyot4v2k4sQ2gRnQJhNiFxnhuhzMjM5EleI+6vqbqeOt4W5qrZPp2Ob3rdsp0h0FzR2mSHMP0pCFdunr9QJlMhslIGvK1mOa5Yz0gOCvB8Hf5TLyAV+Qh+F5v6Mb+8CyjMLvp0AnSojVDZrSQKo4DMiRnBkeyDOMw1/6PNzXJdnTBKYv3ztI7vr0r5LXv/NHttORez62PDZ02DgclWdfi8tTtzkd/UNgcHxDaVtkzDHoay2mu7KO+WVwjv8CtHf2ht31v04PhLazwPeIeHTBrUV76Wc7vdyaTfeLnnV/OyCOK6+AusqChEO06pn4P86On94/Nz1qsxM8B2SfWEa/gNtoaAMxDcYNMhfBdeA5DZKYznR05Xd94hf6QKfWUz+7u868XbFmA7EhBWWIkEj6iz0KTcd83Qtcs16LeR6yXOB9dtDPRdWJ6uixx+vTIy8hIAfR8pRF9ZFhDadSbKe50u8reRfvq6udnxJP6HggFI4C1YjPqqA6AZnkXkp5lglnKE7n9nBqPkY7B24Dheh3hJu2hKbIUEETZJ0EyjUhUbse4yfdnEnBqmKcBHkCFKGnKlWPIPoOkHUJulEGkS+CcyyD86zA61VOyQxntAgZ5ml47RQn+jAz6riSslqPosswdJB3GEw8OgfXkx0P/yw58tQ3LZO8m+nQRskZVZ97KZwZ3UEZf5B19K3V1GHt7PHifmEtNn4xUr8IGfJx+JLfxTk0Sulqk80VJ4yJnO944KfJ8Vd/SKrTY4lzXFhjhSNQFFa6VxT6Pg2R0B1hpK7ISViePln/JtX6azKoVxtzs6SwZiNZe+sD5MRL322rY3veuUe1MpFhAHGjKsBJbpTcbAXLP2gIW6cN7ZGGdoF+dyhtsvBXMqRjqBP+X4ilFFLqpILU3EM084HydWoDFsPCYRMNt+AfyGMB6yMjyVR0Rhh5yDQq3wnGj3+/Nnl2HLLCEALa2KKANDk90e6930ahxPtQ0xd4ExOtxx1zJqmKIVuKSlqGU0bFIzVjjoelyW3M9Yeo8PpxMJ15mT4n17WBp3KdXHiuRizRpnIYc31lkvRdHKVu0mc1GyVw7bvgfV0YEFqlQYHgSVnFoaQEj1FwNAdcI18WWr8BxuE0/C6Cz4TwdmwoxWxS0WbFmSYPrG0tAGKCczQI1N2zcaftYj3+4hOkXpoE51ho6KB2IJg6+20ZRW7ey/yUyHTm4zYaoCzIODJwhLILsuFfLTj0ScH5YUqZXuBHpKvNNldy4NjG2KHXSHnizIJjxPvpZvIk7Wdy6d7hTygvh0PppBVuwgtX0hWU5Bw2O31w77+eblQOzI4c1bm+YbL5g4+RjoEN5MTL30sCPpAlk1C7LYYunu8ESQA1mj+DdjogUXzdrg+5vRtuzmb6122IhX+Xouw2ZfhOyIm64Zu6bLXFJGhZ8yA9xsxzdb77LOF1KVG2iYY2UbCIxS5lOopMvToSlibejKul40SpScgK4Tk8bKLwRFCcqCA4utUTC6HFFtnL919wKd73Gp806SSCbxCfyQTGBKNBcXyGlCYhi6QpiJhykNV0s1R2U7Zv3X1uoX+3yBQ2MDfVwbjwDTZ4NFkjTHMo9zqtorxDmxNScvRwiTGjcAtsmzZFdB5aAKXaKZj+fLIPQWcZMZPw+gQ8ZuAxC1ZnDl6qw0eKcBcr3JhRuAkjcCdm4euQHQVfq0XVOTKw406rZCdeeoLUipMago5pcIrPsHrVEelsX3rN1nuFn01L3RaUqp0HnYvUzpQQvwWO/DfBIR8iibO2x5XgdK6WUhv2gft6TWox7LYhfr7Lya/ZfI/Tv+HXQje3NkYshzblEwOylA6PhGMj/3zi4Cuv1WcnVMfAOrL5nkfJ4PY7SHHkmB0Hwu5Q5Lr0UllfK9kFoiKUMZ0gwgMgxUPw6AD56YCv7IDXsuDoeuH1fMdNH+zNMT4cxmGhHEV22wFFAgPGhQBXJ1Hd4hiK3jCmrDligSYNwdPh5nAjy1zLURJWXo9KU09XTh18rTYzNgH2LIDoApHDQkzBMTNk893jdLXKsuoYzzuaNEYGa0MG2T8TKH4lIYxiyNJ9NJw5e1zVKzfzdG47c9NruZfq46lMH3UzXY6f6VIgYRit6UWlqOu9unzh3KRqlosidW4msPl6Fygf4r7usJEoSzbubXmG0gAxWuHiT3NiDoBjPcY1mdRKnQA9ewY+12jMTZuhnXfaqdMTL3+fOKkM3teGEe7JaHbsGZHK9fr9G24xVDBp2hv8j6QRpVB9ghF6ytPqt6gxMwnSkLK8dGwVG7XNQouyaDCV6TGbrSXsK5w7qfxGp9D/ZeVld8nz4J1aK/lhxSIlTNWrV/9yZvToX+S7Bojnp9mmD3yMrtlxB23MTWGHMUWWDBk2WM+Gndl039o7G5G8RxqeAn3bBOZ9KzjFdeCa0yC6vm42dMVN9BjVpABbPE5Bm/XGxQPtN5KEzFdBWDOwEEYFulY6qWpzpxHLVcbhSbhhhyCq2R8H9dM6qFVxepvN438JZ1W4Vx1jq5kkNc3oGNGwAxCwqUZxskzLxUNgFDrg0Um46IPMcYvX0XtbbmjrveAw+5jj+ZB3udrSOSXeVi+qxlzv8RhddAveaSCbcHbWg6JDNPOb+b7FF4BMEzLL3fAswUFKrqR0GZ1wKDkIXrBaLc1EHcNbKnes3zELd2fWaFlrVKupqZHjBr5zxsRhRD2kY2/vLiGKSDnUaYeqv+2k3B+7nD0usYNAqtVS6hUcSD+14/5PW9CGk6/9iICMUyb8fKZ/3adJtusjkeG+bJfWxiTbWILoMdd1TgzdfPeGVK5zK+WiF7L+bHVupssY1s28VGbno1/OKKOysdRbA0UGJTG+YQI1lEFmyLQiC4Ad8/X8dwN5uhCF6kaQjMXnPF83prb9x0hBjXSMqpBG5cWZI6//6dzo8TchbglAv+YgK6zBTUDCV1sqtZnhJdlxVo9Vx3g556gX1fXAwMJvcOwjAGWcNZSeIojhpqKDWvBTjYkTEyKV3c68zBoQvg5wmDnuIcK26xoIsRU85kutN3qPF11wlMmmomoaRYxEw6ZsYfW1qcRpcIrraTM+YFQThynpMAJZJompk5LZoW31WKt8SDjTRi/MZbZjapGGpyJVNqPkw0TTJ5XRDcziVwtEV3Ygosz6PffZLOvwi9+jItfVR1L5hyMquuMrEGjskGQ2DuXdxsv+miTkF0qx6VdRnAPZElJT7HIVGrfKjOWUsLEYqCY7V+ohFx2VeC+Yfzp/n2x2jUg0WhIVB5ABzuigfsaY6AwEgK9RGT2l63OHddSoU+HgZqyh87dm3hGiTVutnKw6xuWuKiVCRhKWeq1irU0Q6OliVJ17mzluF4RknYyJXiLcQZ7ObPI7ere7+d7NIp3tNAKBRDk4k+aeJNL7XMcjIK0e+p13qmm4zHmaGFLlwi/S2CBAbeu4A95QLOz1XElmjZ+rx4g/qb/U6fJZyFifgPMatU1DSUv+wltpMprSsAFP0kz0buGRvTR6I/pWPGkQU+zIFOeQY+YTjovdZp4EM/YhFnxLk72+d+NNabfQu1sK77M623MPsj9c0ZZBM1hsKFoINM2Ccrm29Gn37MmiDtAbod6yTEaGzlPIYdDAbGWGI/WbCgPSqJ0JS1Mv1aZHXgorMyfh5hTBSc4YGU9C0F5W2HEqVk37qmO85t5AShOqIhj1MqSUJyyOFuM40Z7jtfQQjcObdVC9xUnltlEvvZY6fjfhToY5nouM9tjIpxD95X2U0sxnzTTBuEX7zRbH9le6NYvfXwpVFxjX38gI+gnHmAPw/XPG0MIibmPFcESF6JMQphwwRp02yDtEqYPT6iTZi+KQrWjOxEQtVtNosG+kDERFIcn0DpEtD3yWnHzhOySOAgzIEHB0i3U7lNSM9fkUB5DQF7mG0mF44RbINTaAd0ojMBxFuBODy6Ui7ee63MHCLpD6baEyTF2h4Nr5W+wEJUiRgvOEhixu8n6/FfySoXtL+kuobEjICkeokrNGRqeUig7rsPaGrs4dUHOTI43ZiRpi8eMmsEnIVo3FtbXINKumedUxXkspttpt6Tpk0knA0Fk2wM5UdENNh0adjCuzL7IEiq4fMskuJtw11EttdTt6b/b7N+7Q5P2FU0bfmTTYTJEu4/cj1dFcqPxA0g+4lN4FBiQC++vPv27HS6iOBCNFQc0JZthJOANkasH3COtAwUvQSBuXq6NSm29zQmo4ynrD2GujiJ/JkqFb7gHPEztRLNO8MPBQRZG7NBG4T1BN4gTwedSJteC+onSD0nwjmNkCOqrz3R7FJk5LNB1psmzg++aC7QVK3s92nZK055D6mbe/UTl75IecsbLNBrWchGccJyvCz4GMI4XlVdqc6zyPimt1D3HVMV43pn5x10qyN6kNhOhxQk8wA68cs6UpRPTGcqufuQt+l04NbNy5ugG2/IYQlwFLs4inGibbMxc29SC/CjYMDTJGBhnlH3xnypVAnnGmicvoPxU3Ir1cFNgu0sKeh5L7ETRIFQk/kTv7vKtJqqZ2fKE5wnAupzt3z+ymlTbLGsi8HzPDS2XQDnJQGvmd4uzYn1drcxLWz84MYwONXSA7ZeYQiiXTVRCLVcd4IzpLmkDQoGDDw4Q4LGW0rnHe0e/nOn1Etb4S7OFz3ZZmVUcuYmzVJW4MjoYkBO/mkt9zY99aELBaeen37BJeippVR3bpeze/Jdsmswh2fsuYrNl2qxRxUHv7mb9SbiqbRCW2fbeZGa6C4a86xhtfYxZN15sEtpUyKqhwUtr2cpq2vpI3Y3yrUJRYGvvF42SrfnJpRnwpVadVR7B6XFQmmvOPyXxgEuZqDHhJG2DqCd4xYa6fTuXyxPWzxE0lGLESCZSNXpXGVcf4Hi2XGMOYcArCz/TrNppSExJRShwtI10vTcgwktxPd7B0vss6WqzmNjNIbVYd5Oqxeiz3wZpUTckIBXaPQoAaNspxrTwD/3GddEe3Fl5aNjvQWzlw5KhRq27qXbvDf+AXf6MmkJ2GMfL8n/0OqRQniOOmVxdgBQ+e3vaB6z/TwpLBpWqNWF54x+tNqV0skJQuytgWv3URLuB538uav3sXoW7zNdybEb5H/FxXLt279kGvZ+0nFXf8VqNK3HT3mQ54o/iDmUOvfKUydvxl5MtxhEhzznzEDIaDws9wezgRQlgg4XneNYumON/hQN/vzQ6rx+rxLlUBes752ZEidk6XHHh2OHaOIkOF0q6KZlh97sXG+Ik/LZ3Y992wMjPtuKlOkcoWNBe8pYoQTbZHfE4badd5ARLHKcfzLRfm4NY9pDh6ksyOHrdvRYcLen4Ru0nf3W5e7LVW7CNl7/K+pdhqdkPsia5mjCtxWKLci2WKCqK9FMt0DQx4nX13UdfPt5POsQRmpigE/8uMn/pBODth6hPHD5iovpf7mfWgvd2UOznKRIdhIg8C62NG6eW6+olwGOSrCwOZiNBzIa3We3VQevVYPS4q200qimR7gjazQWMfFptCSyIrpZGwMnsCflc3WlWpUbNExmNMq6MmDt4K5qbPRHNTzKN9MyqobHRUvIFx19WktaqNThCm9kit7qFx45gM6xY3A/cat979EFmzdbf9uTw9Rg49/12SyneuLuyqY7zeNe8SKgARFTgsz8l07HByXXfETDDdMpSWbbGULtUHwTH+qKN7YKQ2NWKqc9MzOmwcpIxnITJLwTM8WJrg/6no4X5qgyz07kh1Dmxlrt9JHTdHhQvvdV0DUac1AZaqyULZJZ2HRp9rIrAwW6t12dXjBs4Im0Db1vVZxhVmB+nPVVJAC3CQHruxZFw3MqpQOx6hxhozo89Vxk+9KYMq4u8ionoAzrEOr1VAWeCBzjLGrlFBZHQorhQPup2126mbzraataLKRVr3hIo+yAl9Cr4fU0QTVEuka3AD6Vm71Ta3d5ZnLVzfqX3PQ0bp2t+tKuiqY7zxDoaATjRPHO9m6mU2qTb9DKekylX01MzJt88GlaKUYQPn1GqqUa0nOt+sayRGAAEH/LgquiGaHYznpjcJ1++jXmqAOV4fc3xE6cmTxJGmDJJPcu4z4aa466cpahx+F9JsWfxXeh4X3eVigdVj9bjaGSEliwHy6cJeILUUTJi/wT8IohuHZR0HFSPjGkHoQK2rRMdleMyYKJowcTgDr4/A6ydr0yNHG+XZMhcC0Q5s7Gh0k5fJnNsMgYAUXGplwtCJfX73mhGe6VybcCHrlq4BQfwDpe/wGNvBKTs+fz22ASeOrP45Xors+NCjRKmYjB99E5LaiDDhrgrBqmO8wSJW7HZnrBMc0WbDHd+0WGOxVGnU8ibOMalePnvg5ThqVInw/Ga02KyQ4hcbMs+zFONAMNiCilZyrDp2fD84QI9yngGfmcMH/B9+ZmmbYVKGqDydbjrX7+a7hp1Uto86qW6RAKTnDXMs9qum54b6NCXnT7WZdwK7rTrP1WOZdOi8dtDFIxLzb2AmAbcnC1mgkdxAdhdHFdWonIHHaBxUx6NKaTSsFkchsCyBd6mBp6vZDFCrKnwSskEZgs40tFYRfIfGhjfkqlpwuvP7cnTxPh81CI4fN6onYvg7TEpNHZe1Kv+IBhQpMqyE2cQSMuh3fEMEl4RNObs++jOITkmmThwkCpwjIt+s9g2sOsYb6YDsDRwjd4c04xZutSV9Mcn+tctoTXAxCg7RWEV4x0wTfRe2YqkgaK2DoWgg8hZEwSxhNcWuHDvtzQx+EWUOOL5UvTKTrU+eyXPXG/A6erb7hd49PJVbz/1MDzjIHANPbOxuO3U4/sw4a16LoNiqjqDptmWdngfyfOHc+Kq/XD0u6gAvEGdG5kueVnK0RbUzOrJQfguZopIUHBlmcfD/iILDoyoumSg4roLaoaA0/np1avRoVC8X4ctC0Ic42TNoknKYJnMAxH4EKbYgzeTztVayFG+DcamK7f5jHM3Cs6SMuhir0qWruZ2vjYzJQy46BKfELsY9gKfbgEvZ9dHPk30//O9k4th+m0naURGsJK0i4Kw6xqt2KNne5xioCBMFcIr5BEhctWwtEOHZYazGjFBayiRCtB2nfIluZn5EG/64zSzf6ZzB3JRs6ys4SSmDozpu7A9mx56mwukjzOkEH5iG73Eh+01BeJqh9hkxRgkHffbcXGFNpntos5Pt7CPc4sYKC9NhnScTNlGmTXLYZjlZr3rI1WOR42N0IR9MZgSxDGrA4aHAJ84rULW5M7XpkbfrxclxcGAafo1QjDWKz8Sgw8SsrwS+acoga72MSuC0GgZJJZXSFy1kLGSCbToVZYmw6sYg5J6OGDEubU3NrT5g1hhrUhBaX1azg+oc2XT7g2TjrfcT4XqkNH6a/OT7XyeOvzraseoYr+sDwbIpUypypJIOb44DtxJFWqZzdI5GlcDF1m556HNWCQ6/8ASZOvGW7U5bHnJkjJ1xB1SFRNEI7EgFHOWYlRnw7ASpMGwlCbwxOkQLyWFPDxGMc7o6O6irxW2Z7sEdzE31wO+y3E+vgUc/416Gc25rv7bghe3muG9J2SLs2eaTrVxpG9Cff3aGzFN4rR7Xt5M7L9si89sB1I4Z0AuQwqlJICqoXW9koZfY5Y3bAHWi4iJkfWMyqJyBjLAIgnECnOLe8sTp0xZZCjcQtYYoz8RIoNpE4JXwZFGnwDFKdKiUXhWKekwbIyPDOaSpg7+YpbS17YT5GWSpjKtUaHHgLq3bxgbHGCTjpWa7+8jNH/ksOfDjv7Rg8tgDhCMfqyqz6hivN7+IexGUi1SOcSffKtqN9TpIckhNxI0+BWpTtQmZ45Ctdz9sjc348f0kne9aJue4SEWtoaEKNDVcoD1fCO+b3ThoCzCTNoarkB0NwuBNVS11wAVnwZfmINscYI7bA0lojnCWhcQxDXFCChxkDhyrBxrt2uQg2btk1uHC66nugfVOpqMb2xosg0BCH880c5hCksekorZsS7Rs5b9rJGLXy/kzWCZklecqJtZSw+ItcHjFQak2cfqAiqMGS/YBsAc6BseG2WAV/geZn8SOzxr8rgpyNQvCNallVLRBmlJVdJRxo1rVcSiZ4yVnbysgZhE2YtIbg+mnxYS6imVFOI0YzncGnSO4qh5Gk7GolsY2sL5LWdpxPGTf0S5Sh/GlzQJirJot9JJUBtRNeOTt5x4nU6cOEuFn7H4MBBfEsw2zq6XWVcfYkmRrspw7YGjTXS/tp7sG1jnpfL/SqmWRxP1Fh5IpiKT3w+frSoIjahiS7uwlG25/wDqJ6dOHQeBzyx37k3NIAPRCx2jODQfjvBdG76yqo3o9DGsTNu/DLDNxfO5Chmmog7B48DkP92CaHQysabwoOExwnKJXlye3Z3qGNnPPT2EFDN7WSYQ3xLOdw8xPZxV8DJFCtLlyUGssUzNblqZJNmouzwI43/xhmg2K8yMtV8Xc0HPZBW1y+NFmU5S5/MeSLeb5+QCTgIdficTPh0wIgu3DzWQynJbVmQOyUZvCfTe4twp81FR9evS16sSpk+AYZVOq/n/23gNMsqs6F93phEpd1d3VefJMT9YooYiEEAIFENFgX99rjG38TPiMszH2e5dr44yv7euEecaGZ/PZ5JwkIQmBhFDOGo0mx57pXPmkHd5e+1SPRkISU9VdPd3VtUVRPd3Vp0/Ye/3rX3utfwGicZDdBz1h/Q4eVoSgIa+SwABDA5qxqm29jgi610Pswj5DNxS//PxdVL6kQhVFp1Dkj+v1up4Qm8gG/r65KTCvEepndqJHP6gJ202a+Xk21xE/C4xWb78UMdvWx4pQ/7ot+uuE6YzH/Sra9+CdhkUSZnXsfQcYz9Zdkwt6OD35sNvVPaAZ0Pkoke6KGjy+qodRLSX2yMi7X/8znPtZtTCFXE2q1mtw1MYGladOmgm/+Bvvz4XNsBLG4Y1PXtMGAs2AVWwHZWyIsazHtTB6LrMBkznbR/VNS9XGvftFZbabOa4thLarlPVh5oxamZ6LSCq7zcoNbGCJrq5onn4M/FWHIC4qMyc0QWbMSXXrZ+YqZSo65Us1CDTdqWCyaAutMIWEo8WTEjrjnOLsS+0iCBGaxMwXPvvni0DFRE1/lgferAYtxpJdvYowJuYz7U1EQ99HXhv3xw5/VfnVJ4Py7LPCr5WlCWOSgBA1U5san9T/5njOmXouE0ud7oqMTzNAmB7Ph3pTjLika/ZgAgNjHJeBd4Ly0Md24zpusEyEQqs4xhfblN1ieGgD4RFwcyK/hiBzfdXWi9HanVeYewotqqKghngYouN7HjaNrDEApPZfCSZopafEdYBxQQJQZzesRMq2M92jxE1vApbTaEcNYwpAlkpET0bV8h7mOM/L3PGLU8BI0ehlr0N77vk2CiqF2Gs8Z1lpL8iMjVmlOi0dFYe21HM/OwMY4eZEgVBUhIjjkh/WjpsIGdhzSmxMrIfJ1In7lJ18ZXbdzrcmRjZfwphN+DysOjZJTZjLWmFvVC2eIpaTorabxcZFf+mnBcApgAw56SGayOQ1aKcNykokWz5v1RzK6b8leFEFlbGwWpqGvWxt/KyXei6xgIOoiNAviDC09OQcpU4ype9r+oUY1MgqsvStShJZQMXpT5967K6/VVFQ1H8vwnEcE6k4aUaY5BrACfOsz2ByZ4hJoDO6xjx/jiyPgZVmwCKc5rXSIepVZ4mdTqpGSGv9crlEA9rducYi8gcC6i2bHF658PzD62d1wfU/Y0CzOHkCWW4KhRpE/fLsXOlXBxg7zLDlywQrQhPa2K7XjKenOTOINQvUhiQM9nrFqWK6p//H65q8stmAh6LfPT/8NvKrRbRs9xBwnVnG4TMRkzBo9Q4hNVRTEZ/V70FYnFxtZ/NrWLZ/QGqMaDYhB34vQtjNrtq4Ts6eemLy4FN3FQuThUSmW4MjZIr8mB8l67iIOY9SLJHZZKdzo9rA5I2QA9TioBaCo1JxsiaUFWBUlGFwIKoV9gWlwqTJ8oKNpRePn5pyAr80M6kpgt27cdfbrN4114bMSc5JAzYDirD/nSAyTPDadzyv+K/6WZ1CpsnEGTMYr5zqOnACVBhMB6WZPTjdc9zNDYw0fgyY7srmUm7UfHtIg9tBJTRULpCTUJ4eR5suuc48F+YkjEjA0/d809SBruQyjw4wLqoDqRLaSx5GzM7KBpmqmmM0ll3xZyfHjj11n4KM1Ll9rRdzN7e/6k3o2R/dEodVrXZSw8AxjvGohhTZF86euq1mWf1Jpb3q7oH+UDYnJgC/4keAMXhj3+Cam3ht9luFY8/eH5SmbEIYfpGPK8N4laQanGxErAcwpVntijvodNZHqz0Hg3Khvhug1lLQWBxAIZ/R9UMvikJwzhBuhcoZJ7tq9LLUwIa3VbHVFwlF5oPijnbarKDwndrE4T+uTJ7cZ/JGVrBxhTL/wCuXIiEP0K6+k64Splz4bHdx58hlpJQbCrnJIXiXvp2H4fktJGjJeukZ5EflV42inde8BT15+xcgwtUBxs5o8aCUEGpliOUOaQOalj8x9frFFwpFalx7+eMQFtlzz7de/vOEmtqm9ttYV7FQu9lC4SXhlx7yJ491EzvRn8725SmmhDfbJBZCTlySciA2963bcWnSdn60/5EfVIvjRzH0xMMv0RxW/15N/2ZJo80J04ohdmVaDIz1/VrQJZM8rm+APbqfYDQlj5STydHc6tHR1MiWXwmovVYb3nmBoqUvOW1TGUxMfOnUnoefjXxP1p/RCnaFodaIByIKpiQPpkAxB6LyjUojQxCfK9QnpBxl1Cax+4Jbsq4gJy6/ahO68IafQ4/f8TnEo0AbHYag7RXT72qFyFetLGB8qTZRi8FwoLAdkwy2nT5FqN3wBFNxqymK8XHt2U0F1bKRffqJE51aqC299tN7UUKqKJjkqvxQVJo6T1Znd7B0T4+C9Mcmw4JC4005iJhru+/Orhmd2JHOfpl71eJjt38e1UrTJuMXakdf8AxVHJMn6AX6Pq11EOZIYFwd+JPtJSSyUIazQ+vXZzec91uRk7vZA6Y4D1SE+ZXQhDqBxZdrldnvVabHJWRBYkI7DjHE2ZWqKB4VFA9C7Ogb0+DcACcvECojGNlETRIxbpmdgmRfAMee4XVoxzVvRhBZAIfw6NMPopMHn0SpBS8F6wDj0jGm5wYaofI2h6jVLTXrUA1uhBmzB3ZPRIV075C39sJXobE9D8XJnC8DfKCMAxMZah2Z5bTfpDbgJyLEw+O8WronmD5xnkvoK1gy2wOCAbKJ6wVoi/Tzma74ozhl/2n/qo1VRq3Pb66WjITfyX2PmZIYaPsD+zLPzaszGlye/vcizKwGUmCh/l3fE5ume27Cmf53+YFAYh6oCFee0FYkIcNHScA/LgL/lCnMb1tQbECSg8xJO8lAQWKUNNnCDe9pSNNpQ0HrqlUmqarFjm6cSI7R8ObzjX0BJxCcQShlHj/4tLYljumBa+nv4zbNYG1vYFwyIGDOgxFmQTp8BmrXJWo8zASNoTQAVFPdfXzTZdcb0WB8plrMS61PzSyrsxOoMn2qDbPN6nIikGHplR71Jo5+BfZKUsOjlxI3k1MYN+0M+FyhmVo0ZKHyOxKMfmvDxdfW3GRKOaku5Ka7TZhp6vAeRBgzTsdyyClJ9Qw6xE1diDO9b/QENh0c5nPalqYwSSROVk88+5Fiaebe6uw4b9vuDnhOrfVsPSwSV2fGwgUVHANjU4NLxPR0HNTrlxK8OFAkoGYYnEQ9z3vXbEJbGY1Dqk7S1EFOHNxt1oBpvtNm4NjGwKiWVjsHoxUKai80IXHjoA2F5wxktDCaivxaCKnWO697R/0wL38sJ9mF9j9wG5o5dgC5mWybGiwlZFg7GRQn7tQL2bUSXb12v3Meoq7N5zEPDDgG4vUDlPyfoFr+y7BaOjC46Xy1ZtdVaPrYXhTVyoY1lrXTARKexKJLMpnPVEkQTPLrd+5MjGz8nx5Lv64WRfMyaCDAkqbId3n4b8f3P3574fgBDxI2TKJX24XbVKw/gRsAxnqtrp4QmqbzsmaNVe2m9TQsDYdMLSMA4yoQYICt68W+u7XiDEpm8+iiN7zLOJoQbn2MfwaNH9ptkncgabsDjJ3RuOHGmEolHT2vbdMIGDVGMGB/0SbQ3UlOgAeqpECBNspnzZy1YWSu+4L6sDYbUkYqio6jwL8/LIxvYcl0nmT6VhNoBt1EDQeuR8KqkUhOefjn+xx00mL4T1HkB+Gsh1K5PvSaX/iQCa/e/bm/16x8yiQqSCmX1i2GOkfLItBKjKS73xWw1Kt9mINwnk3GP6A0w8WyYgeV22RQ/Yw+Tu1067O23IPC9YSvBiM9pvxVY5oUJcTDIlFyBPQMRYP3W8aqRLkwqklqRP/P0QSrFE9/ue1VbzT7yyf3PYFUXS2qA4yd0cjMhuwbZqezw4hZiWZCe4YxInGCSH4ENBgbOQIA6PCWC03IY/cPvtoCubilcp/BeoS+jLy9tamj346i0Mmsxa+3u4cGQoWa2m80ISVt20oBt22KfrObsgc0c79dH8mHRAVQDoH3y970bn1fU+ix27+E9j/yfeSmu9BL1tcvpq+gvXk3ncU963f0s3TPf0PZ/rf4Eieb3VecEwB3mAZG7j0yvffh3509vu8I96vS7D11xo8DKkQzBC/IKJgmPAiJ9lCVaqzA1ZRtCMWcRCpnUVxbCuL5AIS7XvsOZLkJtO/+2xFsMSDImAWRK7a8k/7aAxglX8Jeap0bajtip3PDhFBXNFqmAaAIIshKjWk/H16Nua2mwThHfWtH0Y5XvxXtvuuryE5l29MOgXxb6BU0CD4cqclu0Tu7ze7KD1ANUqZZSJPTBH51NpBpisXf52z2AUbxLRgy7+vPEvrfwUMeveQ1aONFr0ITx/aiR275rGaV+RazGFlnJfjFboVJvtLOWDLZM/Qm1T38az6yRqJ5WFVIxrC1l5ZmaNwKwi+EldljPKgJSCYzVSqd8WJzEkKp0GVjEjp94BgTSeOHQcDMVjPbOWn09NW5t20gO7npFa8xcnMm4UozR6rf7//qv6LS5Anzcwitm/6QyyiSwNpk4i1ltgjbEpo8JLrspGaMZqe6sUDInEYqleIJbaKPapSUjRp4EBuHSZpfPYq2Xf1GtO+h7xmwNHqqbZepqiFQRJMyrD7kTY19nzrpIat7cLVkFhGi+WsNuEQzvlqvGeMfZB1yVJuBp2DDxwj0QLanZmfJrhxitmsYI/SFfvL7Xzd20UnUW/6oBep/IfkZc1+9yC2Qxhil88Nuemj9Nbir/9c94qwPxfwyUAEUEyg6KafG/3zqxN5PV2cmIgOXhKD2G3jhrIAQFRUFE0h7EdhyXZM1pxo4C1DAMYeRFylEHtHgEy0FoJF6PiUy3SjV3feccp+eC+e/9qdR4JVN945T+58yQiOWkzRbDbbjxvNlCdsdtkwM3fJeX5QxO9WVp26yW5leho0PYlShxTPayE5LgZuaUhD2g03zgY3nIS4EGtvzMAqqxfbMVJUiUpF/NCpO3OrbTh9h7A1W99CAqrf+aXZ4XKFiyK+0KftA2iYfkZIfh/3eOcF2cECgK5KlwXHjhVfFiQn6Z4cev9foUYKhgJ81btTqOihzwYKXWRMmxBsF0H6M5lZtPt8d3PA7oZ3aHnI1L1sU1ysS5ITBN8sTRz87cfDpooiiNgVFhBoNzLzMY9N+U1ThfuU48StTxO3qqW9gNwZCsIal3CZE5OpJHKklkglqlHOCM70AhfrWbTEMErK1nVTWZLHOdfU4/OgPUK04HZc7aTa5FJnk0reISi1rRmMSFZjjJLv7R4md6OYIN3w9oJ/CCOaaJewToV/RzKdpCwdLHVT1V225EE0d3o1qhcn6Xlgb1jfyqCa98hP+zNi3MLN704n0dcxJpeEZNBNNnOMP1UizMSLfQbE84dDwHyXn0+BczO2pwDsAE2jW7rjq9dogWOZ3CxoYIbtvZuywMQpnd8/nuk/Ium4A/4lsBoyR7SZJun/1Rie/6j3czVwbCDUvAwSXBm2kklg8Fc6c/PeZsQNTUeDVU/XbERRV/V4vCGtU0EMyrBT2Syd5ONU1sAHRxh1kGSvgjAouRhRRz6olbBi9aql+0gq5mRzaee1P1bNZCRJ6bfjlgpGqLIwfM/N1qUlW0uTmy1BntBIWFWHJTL5n3Y6fw6ncRZywRKNGGZZm1qaTqDrzf7TXOU60gZKmTV3zLx4GxmsL/SpEHs9ioxzHdVlzVhI9BwLozA7tUqCXLILGZ/z+GSBy5vtzbavUc+HC5o0bdEcMNXBVpJRYL8BhZttJYtnOfPJGIRrLpXL1qe50CJ6hGD+iGeMLdEHja+BRiEKvhvrWbEabLroMtvvQ5PEDsdSWQmfHtkwz+jPv68ufeiqXJ90jm0Yya7Z9QGX73+cpYgQL5mPibc0Uk9I/4HLvL2aOPHP7+L4nIstNzuvxGOUm/OPtJs7sFfm8n70UDuh59ZwKlHppZG+KpS9EAINAyAdmI1OYrE30Du2QxHYbPhto50VxzqHkkCZjT+nL4UveBNa3GaLQ1zbHR+BM9a3bhtae/0rEeWRsEDBK6PChlpDIfCcrtdW4qJcsZs4ATqS2C2IlY/GuRpNvMDDGQ7XyzAz0VqPQdFTMM8yjDfaanZeb40AtUpw80mYjtquQ+DAuvdLdtcljeS4imRwa3UWYmxZNsmQ4LABNOZT5BCNvzFj0Vv2tA+ilcvn18wODAC19hjbuRK+wLHT/Vz+JrETSOCgvW0JzOrEMn+WEw9hKZnNO98CbZKLrLZ7Sf5vLeZkayIhOURTyiWMfrUTeN2QY+J0M1LOfLRhaeUZhxHFtkoT+uOKRhy2Vi1tunf0cBIc6kCofSXkpEvhz+lf95XhHeK2CatUy6tt4HhrZcRkqnDyMHv3G/2dYI9QCG2p8jjNalwYwmtbjbSghFRs0S1OVQY1mfZpSMNnk7bFs+1Rp4oQ3tucRZCfTC7ZogXlajtu2RsmEIYUKRVA7HM6e+q4QUcbp6h1iuQGQ7yBCNi827guJCoF4pSZTH6U8+nOC8YPidGNm9KKhyyiaRYlMHr3qv/8WsiyG7v7Cx1ClAH004/2X08k0gjd3vZTZ6YE119HeVe/2mbsW9hXnFVLStjvFsHS5/8UjB5/6evnUoRkIG4NMWGc0sICBL0pekzycgo5fqilzokzpkJ6z/Uz7ynKZ737AfryvAdJJd6NL3vGrZi/+sW98ElUmjyOiQRK2IuL8h8W/0EUGRvWCsBo+w7Nvw6Jg04RcAyPBOQWF/fMgPtBZ2ywMzfQMy1iwNYvbv+8a3Dge1QT29qpK8QfexNFVrlSMZPtGFHU1OIqGGdXclK2GIqm/voERMkkweYiYDvb4JZeyAUs99yEMadsMXfqGdxrH5Mm7v4mOPfUASmVzTbbMUpAhCFKaWZrKvSliifMCiYlUzRfxQyd3B8vQqsz+exTV/lH4lUkZhTELwp3SjIaNAXihUnpzwnKyCZOPY6HvGhSAtIPFnGukPudobb3mzcbGWYk0mtj/BNp7zzdhv9zMb8hqjTV4W3/lbHEufc6btZ5vWn688Wu7LQajeKMvPAVScMYiNlXcD+nwuCaiQIZedcGBDCYd1Z4ZGOu2Vc6HQrsoLClUedCfOMqiWjXIrKOvt3pHBkzrQtVcjh8QsnIoXEbw27td9lCC0c/poxXUT7jjkMknBUYamxF0othx9c3I0uvj2DMPxGntjVyaPpaVzODu1ZtXW7mB94pM3/WhxEzK5kOoYIBdi6JEUHlo7PG7/kyF/vGwWhKxJ9/OoNgqR1GhOcV7kzYcZ1SRRo9gVOYQ7tdeC2sXu2nujDQd01Cyd8jML2CKA1DakckZ2wR7yAc0SMbJgswwylbWRrKWopJhhWcmXJCXdr/bFhgJxAOSiDEX1CqbeY5Gizj0pvrXbxewUU0WOIMLMgvLU2Po5J6HkZPOorYdSggV+VO8pu7lUeA6ud51VibXZ7EEieZR32iK/32R0wv649qJITYhn9AGjJ/NtIYkHEhMyA+vQYU1m9GhJ36IGtm+g8QpiCC42XxXbt2OX5bZwd+rRFJfT/PKNgYUGUZpHO1WlemPlE4eOqJEpKgBRdK+82PORrUCGE2kwKQWh6aZdBN2F34jENB+wNomMU7KNnwEnMdbCCoMEdO2bmjH5XHkTZvRyPeRX5nV6yOFSuNH0PiehxBtUUifGWHcVoECeYHo7gppcnnG9ZquLdrlSStMbdmE8Aqp03oZBrP5ddtk/6bzF9xLgjBGcfwYCmtlVDh1xLSVaVtWEPdvnNET8yF/6sR6aid7nb5VW6mVsvk82i9x/XBnvAg6oLw/51hPa4D8kb6H0dnZY6zBMTIA2ch9B+IBXnOyZ7ArNbThLdzNvqcaSjKf64BhM4ocXtkTnDz8+6UTB75HKVXtpoX5oqDY8jwHLJGUAZIcwqnSlCY3aFJ5HKXo186YI9vanGKj2jQHlIAdAzsui2sjbRfNHN1joi6sRUmDDLdUz1H9+ORbUQPXu2rgpGpCAur0ejWHwZGAdOdw4RPRQq+EktketOO6d6Anb/0MqhYnDfi2JzswXdUFwtGJYHb8Fv2NDGYs4QxsGJUkTohr9jlFCor/xU4NJP+RtegH9be/ol/RXKXAcxUDjUrIvwRTjSKUHVyb6tt2+U+TnpF/qAjkcj4/UISwfcoiHBVn//XUvse+Uzh52JRldEBxQcyhijNJVYAVks22MoSDLPPy7ibtVNW8+5UiSuT60bY3/FLLxF9YG2/wLZVFh+N9RiWbTYKISwhxSDBu2cOColtgjhe98V3o4W98CtUKU7GyQDvGuU2avPCxCA7wyuxdwcypjW5XfsByU+kIE9KsJ645FapqYFJetBYj9ZtZm+3Vh3uMxkmJxsGBfT8hJKJs/k6HZvbM6R64Bmd6f7cisRtwMc+paor4ZRJFD/mRdzuI1a+I7FOyaDmIgGgBFBLj+dvdFWu4waSaPfqz7S7UDDB2YLH1yw5qGRWmrBk2Ah68jVFNSVkSrU6NqddGXvD6n0ePf+c/UXHiqInnt+UalOZuVkXoPR0VJ+6sTR5d7fat2c6cTJpDWY1qtsYRI1+DYzHkFzkUfyhByIf1t/cu9OlzIciqXVe9KrP+vA97xN0URPMERQQ6qAS5MjiCPe9vKhPH9pQnjrdsD2fpMMVFAkU8B4wyUkL4MTiihpMFpKq/QDq5Y1tbB4ydtOsWrwZtZDVrSIMYksKNbTKa1CWMOEFyWi+kcWVSKxfjrAna/pq3ov33fxdNHnrm3BT/t3xe1ulbFEzxSuGe2vjhrIginl699RXUTjDg9824IXNn7UXSLhBxk3ZsZi3L+m394GsLwzmUBkWOe9ZsWZsY2vDLgZW6xI8kmeedMN1bUprahhNH/7A6c+I75amxALVaA/Vc2x61AOpKjfwtTGAJhzIKZrHkPmF2kjSo3avUXG9GZMkOq2kdMKJ2zjI75wOSb7CtCWNSNVObUt9f1K+ifqvWY5uLQKY4yvQOmTTpyKvFdUSLtQhxXJSvQAFjMf6W5KEIqodUCd2u3Y6M2903wrqH1ivMCJ/HRcNWXykUXXp1/TeC8GGXkX/Xk+HU/J6LgIxkvGrLxduSIxvfz5Pdb/SEItDGrFmIiTu3YJRkoG6jPjdzfO+thbGDFeOYsdayKQV6sqC12pRc2wIC1iL9HRVX+dc0KBawlBFWjW9VmJINZCSWSIcxthIYRdS5C60cRiwYN21hDDBqAqLfAoLwIi1jjKJaBQ1uOh95xVk0e/IQctK5xTVWoPyyWF0bhPBl6O8X1cId1eP7epMKv4F1D65V2jHgovlaQCgBKYZC3zj1Jz2uNZK06P/Sx5ptChQ1uQVQ7BpeP5LbeP4HQ7frZwKBXTHPNlLAWFyKuB1WvzS59+n/VTx1ZAKcoUWpV4RnTK2VkZQ3F0pFZo+xMkdVm8070KwRCzmnMdyhjgsOjIp3gLFlxp1SZFJvIDMVqaYmMIEMbaU001CFxVTT54GH+tdt1ZdA0d4f3YLKMxPIWjApurNkc4tlsSATQvCqDGtPehNHHW10EhnLfqOVG8yb0NU8yh9CDY6zgWAagN5DCX5Qw8BnATPPfhrFTaahW1k6P5zvWbfz3YGd+pmaBkVer71s9k4BKCYthhKy9sDsvkc/Mr734b2Sc0VBInAxptoK28bBsfpNKKOwoO1uDTlNyhHqwzjU0n4bntfc7IyXY4ydPcaWgiOmoCGeSDXrZDKMa1iED0skp9QiP6rK7DjKDqxCm6+8CT1919dQxAMjE9aWToziUkWyoP/1mD99IscS6XyaWlezZKYrIpTMZ3c30rZLM0fbpuSDGUaOUozvRgidlUWjJpxpoWQ2n8mt3noT7R761ZqiLpdyXjwBmIZLVGiH5Qe88YMfPbn7/mcIIcr8PdVhIC2baVL42uk8JbzKJHG71hp1jQbvN+wxpl1bZbRT4wd+e4sunDNg7IzWrQIQSnVSGSfTM3A6BtJAuAR8FkaUh4LwcaFxCmO86BarViqYDt07rn0reup7X4EtuTb19M0+l1QimsY8vK86diAhw0AkV2+5CphjKMV8jox8ze4KgdhJMfqDtEX/UH/rQRRHA54D5xdMEJDJSubyKN03kkr2rbmRdA/9Xo3Y+VDML3YAvwpyb45fuq+4/6HfO7XnoQcY6ySot3x+xS2LAxF5p7hfGbNE5GPqNJyZGkcxVBL2lqWKAx6d0QHGZTFAL9hN593MwOoNdjo7KFQzgVQM4a6QUla2KObnzjPEKKnB8aIbfhY9cttnUKS9VNOxvh2HENre+GP6aX0vmDnpUDfVk0l3X2URi4C6TbMmCIxZLRKwZ/wasJFphv4EBfJeAZpukJZh1G+C53n/0MeOukk32bf6tbR3+A88ktgaCjlvQgdlGV0WDavHjnx8ev8TDzLSzpn/9T04sRRaF0LujYCkm2kkRQm0XZrxMaXCKAzDGzmWe7SzPIs6m4wdYFwmXNEUkVM30WWnctuIk+zmTc9dTDQwattlup2eu+vRBsZOZtCFGhyfuPPLqDo7pf+datHfO8eMVEZcBnIME3ZPWDi1unyMpVLDozuo5bpcNZdBCVckYsFxoGavJgkcJAn+M6zkg/p49V4J6nn3PNM3YmdXjV5Lu4d+x6eJXR5XZL5MkRECoIzKBx/7FeSVvjKy9WJx5Ml7z6Gjg1s/dZfIPpyKu5IIQklIjDMC2WWNXT8AKbRKC6W8LpLiDg2yP0RoGTQs7gBjZ9SbahBEaFZh0m96Rs3HdBgacS7Bop5SpyRKZfNo+9U3o2d/dKvRV01kcgvnrpryCWG6RZzrcC2WgqvQOxSWpr8pEU64me4e1jO8Fso4hJqf4HglFLZ+oDfgBAtShPwiprhi0o/r9xja7oA0jpPuWstyg78Y2KkrvUgROY+yDDQHihZFSeV9sjBx5NuliWO+EaU/V71QoT2XCI2csMGIhdzbrJf9QDOLpUeoTndUaAqxBTaNsocE5wN0sWq4OsDYGQuEJdBiypFSOrKNkhkiv4Z6BteizZdeh/Y/9D1UOHUMOZkF7MgBxgwy2c9pQkEcflM89JVX3q1d/FtrE0f7k4Qx1pUfQdQiQqimj2yYYyBtisWb7KT1BgeTr+rLDWBP0bJd1D2ygShM+1ODG/9H5Ha9LhBYg7GcR60iRiBLlyQ8xIVT/2+pOP73XnF6GmT/QHcS8j/OHTufK8tZwOdtHCxpnKxYS3MJ7Ykrc0p4vvNTzxUjT0E6qVIdYFxerFHVlVMgfXBeSregwM/qHYWXhLPrVUsov3rUKN3vve+7qDw7jix3IcOqS+M6487QvCr9ymP+5PG0/ifOMPY6K5MfAIYn5DzAEZkaR9ui+O+6HZaiUn1OM8UqZhbKjWzsY5n8u1Ru8H01ZOW4EPNkinGtYpIHt5468PhfVadOHI/8qjJ9H895IhVe+Ocm687VkgNFEy6H8i0a6yc32VigThz18XinqqA1o5Pn21LfsMnixecfBLSp6VJKBQWMrpULqHtoHdr6yptMOFVK0X5PMPZFpBLhrPBK9/vTJ77hTxz7kazOzjB9xZTM75FAMs+0Fw3MhuLf/DC6gbopN5Hr71ZW4mbSO/JhDYr9fB59Ik0BP4AikWFS1L7Pi1N/Uzp55IRmitqk8vbMLgaHFGqzlxoonoFqsDVitkcglIyad646o8MYV+SAZUOQqikhZ6COAC8xP8YvzaBUVzfade3b0GN3fNFIlrWjodXUkCscTcpa+b7y2D5bCE5TI6NXs1RPTuL5lU6E2n5DH0f9nP80t2bLZXbfahLQxC+UBU6C6s68ahX1ywFglP4jfPrER2eP771Hg7wEqb/2ZBqqLiW4NLvC1EVqlOBhpF8+1Qu7A3AdYOyMBo2adis5Q+KoXynsT7iJgDGr1f01Gh6w58iYjc6HOse7v4n8oIZI26126BAbRUrhU9Ir/zCcPdltp7qGHSd9vn4mDFidmsdzBum4aZ9vtrH1fmFlUCQBFNW8U0YYJcjBcoaFlS8VZ8d/OHv8AFcQliWk/RYLIE4YoKVduQAniiX3aiVVnD5Be4aryO3qOadasZ3RAcblNgghIRbhk4cfunNKO5ixp79E1ztEhqJayciMte0w6aJyLCpP312bOLqWOKm8nV+9Vs5jv7EOuyjkSj9slI6Fw+ZvJI3cG9PAGJY+Xz627z/G9z5WBUbfft104j1FECRfDuV8SkQyqBZnsVKHE4E/SxVa3bF0HWDsjMaWPGeEFLzSTBRUNejQpf24TC1c04YXUvdF3BNyyRrvOA6mAu9gWJy8M0hk1lqJTK+VyqZxHRybFgBA6DQgzvfqiSnLwCiFo/tkrfQprzQ9GXhVtCSbDuP6c4caP1M20uQdXC6MS0mpeFhFoTel32ud2vwOMHZGE0YDU0ohUUIasfelvYjgHJnj6nNuUm/T1J3Jpb3/pYwQdEUGtUe86RNZyL538iOX2t1DUMbBRKxj06wjNF9HyjDCJNPzpjj+5Znxg39Vmzr5qF+aUdSyl/A9rT93NJ96ymUFMByaZOtrDpbqfmgHGDtjKRthAgls+U27EA9qdY966Q5CKZo+8qzpzGE6vzcCjtCwFQr79YuYurolaujiDArt9UdTUXnmeyL0q5FXKWeZfR3N9q1WhBFxjjrImhZS0FdR+vfMnNz/J5N7H33crxQlsxzzbJbaEFEQs2QQxKDC9KRX9SI/wqzGwr6YLp9lrae6vmZef3VGBxg7o1FyAnt3o1e/qV7wvrRXEbNctOd7X0AT+x9HPynJw5R2agCZ+wyo3bjQ81G/B175tGYoFL3HJZxLqR5NwnlCodyEDLz7eWmKeeOH3QSm19JMz5AGx0VvBwT3yKKIJ6Lqff7U0Q/XJo8/pZ+BBMGAc5lsY8p45hryvqBXdyY/bMLvsPepNHBTahm2DV1HKzMTSBh9U9Oyvv574sVVeuD6yHLS7jW6gpCR2slK7QBjZzQ7IPNzWZynV0VbrnmbMWYnnrgHWYnMS34WDCJoWYnQO/27my5+tcabCO2999vIcpPxBNXME5jk0srGrQtTS+hiHE0Lr/JA5eRB0EBNpZh1DU135+S8K1gbGzbBMinD3dH0iT8+8tg9d/NaicOe9LnOQLWcRN3JUXP/O/0sL3z9O1E624tqvme00RwAR0aNz/HA1z+FKoUp0w8U13EVnCeT/3Q6/Ahyo6wOisuKeinU2VzsAGNnLMxKWg4JBuDlKxkXV8M7MIa5HuOEKsMU3XQWDW25CGV6B9GT3/1snU1g81lVFwqAzwE72HrNW9DRx+9BsyeP1IWu1XNs0jDqc+hzK1PGwRVF4xrZH4xKk8PBbNewS63zbDfthnAfFuGR2RSjJA4PkcrU30VB7T6iEWTR70s9FK7qyVOq3kbr0re9B2W6B1EYVM0eNMwJUEe1CEa2dn5CDYrgDMGMAdk70FMXUYQ2X/t2qO00YMkYQ8xKoGppBv3o83+nj1OXkYOwK8P6yyUcen/ZNT23G407ONkBxs5oYOlIyNmTmn6kkknEtJFY6svHSaaNWDXsh/Zt2IGGNp2PlDaCxHbRgR9+CxXGDiFNEwzInU2WJHwGWA8YXQBSYJKFU0cMaMK/vUoBcW1czykz0pZdRXgsLM3crtmOow27TI6MXmg7GTuCcKBaeLM3Z0odi6EkisaD4/v//NQz930GC+EDq2rV/QDA5fr4UeA9r0VWqBk/qCCtPf8qFNQqJpQMgJbpGUSQ+GMThWQYme/LOjDGNPDFQ86wR8308S2qX5alnSpo1tyLtr/hlwxgWuAMJDPo2O6H0TP33YrS3X3LCFtU3cHDBLKZkeiAYgcYO6ORATak6tqWsrSRIcugMBuMIY7TI5GTSEPrpBgYNaBRyzkdRgNGqM5iH858xiRoqBhMncRp5gxJJS/FjGR9j3NxmJMymSTSr+7XAP4twmxLn2fCyg1uYIl0Es6kFWTf0eDgRtV9NCh/LCpNfc2bGffgHsVlPY1fN9wrKOsAZhfft+cky+buI4T1h7dcgDZf+joDhtB31Hw/CED8HGXygygRBgYALWabKIBhhPp5wNfwfRA1h4lNX24PGgAUq/glCJprx5vuW6V/L752x3LR+guuNok6Bx++89yKoTcyW7Ch1NigffNNNjqjA4wrdWBAmW6bMQp93JZbYrcxipB5qIFRaYY3Py31OHR6Jpi+3PGSuV6zb2n2pF4CHOfCtqa8RB8XDHjTtZhGOi7y9Vf7eWn661WkuONXb0yt2nKxYm5aYbKg+6SggZpieKZ2fN9fTB/f9wWuaRrTzOzHMpfrIU7D8F5y9qg68Q3R+vOvRl39I4gHvrm/ICqhYlJ8uiXWwPrtaM2OizVIBogbCTZQzZOIhyHyq2VzLwAAMbwWUn4ONN2hkB8KfDUwKv330rk8Ghndhfbfd4vZj1zqRBEwkTlJQhKZbmI5qU6pRgcYO6PxdeRGCp8vhMxjIib1qlrarqWKGzQvBcmxZLYHVbTR5pq9vBhrBCMPjZdhhLWyCfelewdQtTA9j36QkJDDfV4rPhv5VY0VMpMe3nReSwJlUK/oOsH05LHbx555oGxrdh6XuUTPc5+A0SXSOTQ8eoEBSHxauHouGIvjSIT+0vcqaPPl16O+NeuQV/XN5x3N0AHQDZPUjgS1LJNUWZmdMb8vTH2tBqq5In0I9y/SXjhcC/z9EJLT6gx3qQeANEtEiWw+yTK964mT6FH1aEhndICxM87OxCKhFAu42uSiaFQb8pJe/N6S5rfaOM2MHUa1UsEYyHNqgqAE4GUMDiSJZHoGjFGaKE4jO9WFhjdfgA4+ejeKNKDipuriNOhwjpjrRnamJ6TpnE1s11UARgtc2yiFZmXEHkr1DA7nV4+esBIpcVpObk4kQX8ZhR7Kr9qMLrzhZ1GgWaPFCIJekqquaI01yFmOa+6D72lWqTiqzMxqJhiHP5VhisqADwAjhGkhhE0XEQDPxiFbDgL2xg3RXoiVynZbmZ4NhFlZPr972KGbHWBchgOQArJEmmyLoUwJl0oIKXoIVtZSB0ZmJ9Bjt34KzRzfrxlbfsk/ntM1dnURZxN2naexh3Bkz8CWvpGLXvOrNWz/SlUStxVbSABKM6USyu+48ssbX/Hqv3cZ/RdCrZkoDE0JDAGlG319HP62noLVwpSpKpeUIEjmOhMYpYjMdQcaGG3HNltfy8mFBCfMrpf3LG17YOotqX52WUxoVp84UU1dsan2hGkL7as64NgBxpU5BOecmIrxpb0GoHEkKKzEbHGFhYc0k4IyApZI21ZX/prQSv9KNRRu1CoVHD0VfK7ZbiUYCCP+mwMpe3fCRl8HYDb7gaZhrzD6rVgDXbs2XjVJPwNr0BU//Wvo/i9/zDyDJds9xHi6guj1bOvlbDKycIf0dYBxhbFFoCRScR6A9JNeEk2kzJm0btBV5ErCIZbuIoIz83EKSdhjXIFbJrCXObLtFQOZ4Q3v5Inu95e4bB0onnHTAy5JEal+RtAf9SKU0i7Jbfon0yvnzivjjIGQACRbxYmeS9Mxm+N2Sml3xcTWVVOFrtj8p7iUUCe09B3mDjB2xmmDBVNXRGHIA79mz2/eQtUzf8mCr3NqkupLEmrbtEECUFxpRNFkamqWog2znexf9Q7at/7/1kwxF3CxaOYqgH6OHr9Av/113mUf1U/h77ARVlsZA5KEIHS86bqfQYfu/poJJdMzynqWznqB8Cd0tpaRXtI+ns+axlgqIUoi9CXCBHVGBxiXC2PUZDH0wlp50g2DGkkmkriBvgu47hnqxWRjSrsgy3upeYZG6AtS56EuDSpLVtgjBmed2g7u27BrwM72Xi8z/R8ohTLnc7mI0yx+9zUqzvp8iCD1G1mLPO1ifL+ea6WV4ZwowxTzoxcard2jD34XBZUCgkzdpdbYGx4XZY7F7ERKn7Td7DOnGB+QYXjslvdc0Elp7QDj8qISikeVsFo47hcnx+xkruFsFJjxUqEEYmw9IRiyCyp4CXCyM+spjcyzXFmSVnNSd8AAEulcdmDH5b8dudlfLXPp+hE/bQAX2+CGwBx9sVYqdlsPVX9pIfRH+vveCnkoJpQ6dP5VZm/12CN3Ir9SijV3l1D2LKQ7W4l0r5XMrpLUTjZ8avrzRgErKN9RGDt4HKFdHVvbIqe/M1phphQ03eU17lWOaWA8hRuf/8bb5Uq5+nib9SsLbYXwEniZ86iDolBzmiQrBxSZbSPt55Ds0Lq+9NCGN3jEfm8xFG7AJTrX1XQBV2jKi9CMF/2mBsorMMEWXkGbUH5hCq2+8NVo7cXXIctJIhmFS8swEOoQy16NbXcAYcIaZbSxDKCNqlMnHz+++8GoY2s7jHH5gSNSXIPjLOKi8ty3zv63UcwYmQaf1RqQ0sRsUJx7FAJwDHkUZzwSsqK2FUEtJze8ng1uu+RSmun7y4rEV1U1GHGxNLaAcV16c9bntobwb2UJucPB6KP6Rz8EP6b9lx1GXnESjZx3pZGIe+bOLyAyV5JzruMsUFuhgVFh0q8wTckmXUrKGCpOj3nlybGOme0A43K0ogqyz0LtFUbN/bpmZVJpYMSDXMkutTRQUXvhHOorl3zj5IUeIEfWPbLRyg5tuIrb6f9ZEfjyaiSRXIKeQSgNcwQWe0M+QaMUI0X98J5EK0KYE6OgWkL9G3ciokHkyW//+2mVo3N+Yhg7et1k9LvdfFMNU3crVF2ntjNaAIzYsjt3oXXAiOZalDfjr5pWPNrt5wiv0l/2oTj0fQ4M21yjWYy46Q0Ju/90BT1GaTIfV++6siczvOkdMtn93iq2dwaRYgsBijA3GCV1NRmIEkgkQHR7nscG5ljhghEf3Sgd7KYs/An97W8BbqyEtQdyeD2rNqILXv8u9Pit/2kYZCywfs48GVhEFmasSyO2AzrijYZSjRZFUEV9Wy8R2TVbOza2ZYwR085daNESQLHgNXTZDU3vuCZCJ0IvnEihbo2JeYzPxZ4wnHFcFyZBEBy6VlC2Yh6i5KExXr1rtuS6RkZ/UXb1/3pN0tWwnygXIKkj3jOiiNQKBW/m1CEhJHW6B9awdHcO6iDlPKpXSX0KlkLh6tO9USC6JqsviWH8LW2To3aPgQMwMmrpZ7cZ7br+Z9Huu76CeFAzNY9qsS8+7h2KMSEJTO1uRagrm4Bo2N8nSqBEOhu5Xb0dO9syYOw0yGwdnsSUEWoQoWaJm24ZTRxGs0ZbIpUGG7n4T6veM09Esbj2CmKJIBHnpLOkb8POTanh0Z8Nkz3v8QQeCkUMivPetdJGztWg2GXRWuHw4f9dOPDEo8RO7BJ+5abMup2XW3bC5gCO86SOhjlGkEWrtksp/zhtsQENxl/T5z+O2toA4Lj9GCZoaMsFJhR+4IE7kF8rI9tNLS44qnprDUyS+pWVmjKqJmKp0L6REiyhGAx0eTujVcCoOr3AWrcYTC9B6M5a1V9zYhZDY0th7vOatdj6ZdprxB0SFof0GiiGzuzQXmiFFBIDQ7RsB1lummRXbdrSf97Vf1OR5EbYT4xELFaCF+DmOvp2ukH5Ce/kiX8uHX7q82Fhomqlsof9SRIxJ0HsnqGtLJnt4ZiS+bDTOfNb0+evgXanJ9DHexC6KUnJr1OMjqwEJyesVdDaXa80WcUHH7sH+dWSyVpdFL9AoTmXFvYYbYVxAs/jWULpMI5LiDujdcDYuQktXRAg56aEp11XCSFIjBorqzJt/mC/BGEL9qBMWqqSaHHa72qfVsbQrFYQKILeaG5onZVbvWUnzfX/aokjDYoCSmcW5L7DPhF0oE8jcax85On/Z/zZB2/ltXLIbBep0D8gaoXv6O9X3Wrx9ek1215JUz09cdOM+YMj6KuGkoPP9mbs0t1Ji/0NVmoWkjna/dl6xWm07vxXmq/3P3SXEU/HizGvT3f4MvVOFqLMhTbFjdZX4udeUM8sO8DYQmCc/Opfde5Ci0b+Tb8Vb3Roxogl146/0xS2akcfZFe7nGSKYG3RfL/a8gUNa5jzeuumFSTgTyhBmNokPbzxNZmN5/9TKZIbPa4WJnRaR0WbIJmU4QFcnfnE1P7HbxeBF1INimZIHii/uh+2lr2pE8hOZbtd5lzE7ESS4/nXqtcbicC+I7g7v59D+PqkCv5Qf/ubCqn2LnjUF1/T4Lh62yVmZT1955cWJ1sVRM3jfpF6crEENCiWmDSVuBXXMqMpaNN868+t6xjZljHGzmjhQiRgabgSvKJ4WCYsAfsLDbN0LjSLQXSTwtjRv1vr3NiWUEXzxLqHN9iD2f6r7cENv1+I1HovXLitBpNowwhK8Nre2tFnfn98zwO3yDDwyQuTmaQIZVA7SjC6u3xsTyIKqlFqaPRiK9PTFQq5INE/iEIUAgFlHRf2J9lvpRmDkOpu1Pa1jtioFpn+jYvl8MVJeEhRTAmzs4Q53ZExDo2CIkQaFKJK7sMC+Z1F2wHG5Wpt4RVKHk1JvzpJ7EyvZiQN7zOCZ6mX8QVhFG6iSjysV7RspczVXNSn/R0XbBKKeOgjHvg4iqJs9/pdvyCSuV/0sL09iCQ5U/5ufua4nmhj01owfepjp57+0Xc0OQxekvlLHkq/ppmj5N64VNROpNPJzCU2tVFkmjAvzHP29TVOefyVwkEfTzHyZankv8jQLwNwkDatU4W5Da25It+LGWOLJeOgY5yTSOJE73AX6x7ciSwnc4Yz1tB529pPJko+pH+54yB3gHGZDsjiVDRQPDgWlKaedRO5YUJTrjBdKM5+UUCISzv3IwEXNyQZOWw77pRqoToyLMAg8M2CxqT9ABKA0Gz76OtL9w4iN9PDqJvaYPet/u8ik39vTbGBQEgTRl6o8CmUZDhh9anS4Wf/bPrA41/nQS2gzHr5xw5h1cA7qB2j27xThxPaQxJu36rtVrqny4TX53l+pqJIv6qRtCMRXZlz6K4cQrZD0Kf0xZuM1XZ0kCL9/PvXbkHh5a9DBx+6Sz//XIsZo0DUcq10fniU5AavUPofja5eeArgQjElDqnI/z6XcmVo4HaAsR0Jo8mY4Cr0TwTF6cet7MCF2EnkoXN3o96iNtQkEOq1LsV3EIRn4pycBcZGjE7XWgIoqnZspKoN/cCGHWh27JB5JbK9iaEdl98QYOtdPrVu9gRmEK5cqP022BNKOBZKMzxVPLz3T089de9XwmoxYNAW6aycKxGp0DsQFSe+qklkRb9+KrMueYVtJ+ulHHLekVWISMA+qkI8rY/54axDtyUZ/aQ2xPcFYeSTepFQu8wEYIvJrm609oKrNEgG6OSzjyFwUlrX4FivImZlaCJ9IU12bQ4QaSrpkWgnlSLxoAhqz/Iw6pQTdIBxuRrheB3KKJwOK4U9UaVwwk73rtOLxG50XYTaAIaCbIuE2KyP+IgiWFCywJ2oQLQcSjNQexnC2IGIg6LAgPrWbgVDSIrTExmU6Lo5dDJ/VeV4yONS31q5MNeOQVZKM0WsHaPxg1+veMUvzB584huBBkXrbEFx7kSEZo6htx9k6b1JDK2uOEt3b2JdfSPYcpjpcjXPcg4ghoGARC/hBlK9syeBL9dg/ntIhd9hBAVKtU97R5gDEEZlloM2XnqdJuYRmjrybNzXkVpoYUs4FHhHBDG7V1Fnp2JOt35cpJm/oJ8DokrdXhw7Ml0rTunvXNWxsR1gXKbICBZF8hr3vRMaHI9bgvvYwnaje1dcG61Q4X6h0CaquIUUCexkekGZFKjacK/WXkmo2p5Ty46NYeCZ6wxqFSe/8bxNfed1vy+0k++ejZTpjLGQWZlMs48EVTUnrN1z5Kl7PlSZPH6QEiKaaoMED0RbbxX5h0V19tulQ0+cwk76ip5NF9xs5VeNAgERYv7l6gaDQQwg1A6CCke5zf45Y9NPEIU/jaHeUbWRlJzZZwxNEs7mK27Uc1+imZOHjEj8gmZ8xxv2FBOW107MesHspOCq4VpmmAIGGAV6eOros+HU0b36u+/vmNgOMC5bywxGjWPFCyKoTcEKbGbfBsJd0Kldg2O3JQWTItRHzi5o4oBqw57vkIGYSueQk+pChZOHMLZdS1J2oUz1fCSgyddB0T5k/S4kQ7YIRq6KClat9F1Rnv4HEXiHKGWCEDKP54VNtqoGxyMaBYv666I/fSJHLNtl6Z4BTB07WgCV+TlI8CITPRjwhPxQ1qY3pCz8PkzIo3rutlUID/aZw8BH2179VrT7e19CE4efQQ0x+rNxasBzIbRXEjrQjD7q3Ny0MPE1mk/o81NuOtsxrR1gbAPeIkWNB7VJxLmnJ3kON6GsH2kDziXeigjp1wuksKCJEbj9uipCaAwMn+ABSuV6yeCmXYMBjy5j3cO/UUXulV4kTdnCQhJkW7v1SSxrwdiBfz7y6F1/QySflYgIU5KxECpT0KIz9Gb0V4/Uxo9Qrzg1mRrccG1qZPP5mNnxvuMCPUjQai35gun38zVX+acUwx/UwPmo/lEVtVmXDjNXFlgFDOaem8kihanNEqlh4qRW+apxZg/zk8aMcVw715WRrReh4S0XdaxqBxiXdcwmNmdK+VjIMkYyxEjVk1xUQ4cRpnGx3EosZw0l1t7y1KkFY7WEWYjYiTPPeXkbOh6iTZe+Dp3c+xgaP/g0SvYM9vduu+wvQq4uryC2PhRxZ4yFulJwUlzNFBMMSTv0Ph1UC//Ga4VpSm0Vt+daiPoKZTIcTQAh8makkveiyJ8NLBc56Vze7h5YT4hlBCHEArF/+Gu1SNoTEl2Wscknsja+PcXURzTrGQ/CUBvrNom7g6BF4Bl9XNtNLlz0BBMNi06KJtJrQWOwGew1nFMzdYZROZHpFqQrt2LkGTvA2N58EdzHSP9vVnG/DOr4kK0oEGqocTFE/HyhBgKJ3pBk7FGG3Nn5eu6mpksIbUwlYtrokjZJuQHv30mkyartl+QyQ+svoLmBny4p6501cC6kWtDSNchmTGh33gpKe0sHd/+1ZnJf47XyJKWWijMd1cLOpfoFqigo6Xn1FC9O4NJhGdqFiasT/WvOs9I9PdA1ZyEyVmMU1uDIJYgBbNbscZMiJEwy+Ums1GHt4FVQGwQbRBigDZe8zris00efRYmunnmDI+xX2om0lexbvZ3lV10jCSOKN75cgS06FPva53pST6f4oXY0rjvA2B6xGgBGMc4rhaM03buZ2klbNpowAcDIEatE4q02wY9ZlvNZ6K2n5vaWzhrT4g+Csy9ACQRrQFz2nTOwMUTQQQEGjyIcBP6O5OD6X+oaGP2pGlerKxE3oLgQ0D93uy1KkAsvFewR1ZmPVk7s+9Ls8YMly3E1C7dR60Sq48QufaFVUSs+odlOkddKRzQM/1SC0EutZLZHUIri0OrCXLNm2agYSsJV8BsZi74mbdEvaEP9mUjIAybJiSxfFgOh1NzQWrTxsuvNrZ05ug85UN84H3AkBBM70ZvoHXqtyvZf5DW1BYwNMCaIGqdKfk3PcQEhWow7SqkdYGwHBiN4hAU/7k2O3U8SXZus3lWbMaYN7WvAUoB9n0ok17pE3Jxi8jv6ABMExMXxWTIT0whXmGMFkHhQr2RYrhMBatIAEOGCIOOze3g90e5G2sn1j4pk7kMFQd5eA0Yc1zQsaOjU1kDgiNp4cOLgf4VB9faoPHNP5NdKlptYnIa48Ua1UiKq6rf90q943sSRQPJwnGV6LrS7BzewRDYdzbOc47Sdx7E8YVHPG4+rXYFQW7sd1K8P/pe20e8002l5skd9L/1KEeYP2nTZjWivvsbazMT8ahsJY9h2tikndTWnjiu4aLjRFIn3FmtEz6/xo3vuyK9eL6AriOwwxg4wtgcySi4j/6Q3c/KHLJM7j2Xy67Cbsed0FM8WGcH716wReQztSjG8QWE8Ydluvfv7T15y8JkoDE30yxcxm7CX6y3V557K5ZFXmEG1yizK5IfZxstv2hpp1hQy931VgQdqoVw4AfAzQNHS9jJJxDgqTH5y7NE7/lpGUQFrhAYnhSxqI2c853mFMvSPh8WJ26Jq8aCyEldl129/S3J4yysQtRiE7RciKScmKhiFXKFZyW0h1QcyNr2ZUvwJfUu+jDVAq2XaqQOeq1cuoMzAarTpipvQY1/9BNJ41uzsBLmMBE2kL1J2aitXjWd9z5VpOAydUOXC5/c/ePu05FerRK7X1F4itLNjVzvA2Aak0a9VsJM4zL3yQRHUSpo55jlqPAEEDH0gZEoivI5Sdr+B3bME2DMXJ0bLO80G6tBGL7sBjR94Eh196j6K7cT6mlR/HFD35lqoWCRjSdmFvkabYulG1f24OvMpDUSfJZjOEAqwcw61RVVMn/XbJJK1sp4RtWB2PMvsZJJl+9awRDoXSbxge6sYx3veRe14VLla32WRP+t28XbNbj4kpDxh0+WpswrgCKAzV/Pa/IEIJpbbRezkRolZTtazURs5olKxcpKF1GEi5eN2IqUOP37vGTKNb+pY1Q4wtgVrBFn/QlQpHBJ+ecbBg/lGyzYwOl3TOOAp9CtphB7U3zqI0MrrrAkg79dKiaGtF2/t3XT+jQG1bq4S9yI/UowvvFpe3FyYUZRE/GTpyFN/PP7M/V+hmNTiLrR4qTwCqXjk6TPaF06f+GJULc24+VXXZ9Zsu8J202ku4/mjFuyPKVNfOwtlMUi9PeuQngQhX9F342H9Y6hCr66wSYkgC9nJ9ViZwY2XJPrWXBkyi0CCW6MwO9e3k6lon1cpTIMjCGqS7Sru3gHGlTqwwUYPCTGORFTGSiAKHmoTtU2hlKzoi0usJP49GkW/oRdkjTCGmH69WMjG9FfUizPU3jBdrjwRxwk2kV9FlNkoke1LYitxQ2in3udZ7JIaVzkOsm4twCdILHG0PbKC0qOUe/8oa4Vv81q1ihwHLVg5xkLQRslj8ywgKaeyG0dRNWJMBMlMyurq22yluyEph0QLiI5zGdOlQLheJK9PWuQVGYs+nnHQx4lCX5cKTkoZ9tP2uGhemGim3p8cWPt2mchuFU3ea2q6aShuE3LUGVitLrj+Z9HTd30FVQuTZv53RgcY2wcZpYw0azwpvepB6ZV3MDvtRk00oIW2fJVQpLVH+U5m428wjG4hSkUvv2iVqW+jy9RAidBHXf0jZNs1b+kVCm+0egZfHyWyb65wsssHxrLA+QjwSEwoC5RsQN2yPPW12QOP/21Ymnwo8io1Zttx0tNSUgw6fS76Cxn5ekYc5qWZb1XksyWWmrgmNbT+cqt7cCNiDhGGPcoFA0hg6VwoFkrRH0r1Os0gexJUbtb37xbtWEBUo9zOkQ1IpNOAhZP5ke6u1aNvV6me6yJEbCFlU7bC1VPLQdEDRIp7rETKdAHZfPkNKApqdWesMzrA2D5DqCg4ERQmfkgSmVGnb+1OTC3WjHGNhLY0gXSTVP5OhpGj2oY/8ZzhwWeY95gxmtcyZIk8DFDoVWEjlaR6Bjfn1u34jRqXr6wJtTOIpCkjWOgEG2VYojZOFCNHRhOoMvtFUZ35dHXiyCOVmVMhCFCDKAJasjJ6eI5BBsKvHBJRUOK18jEN9AXtnF3Hcv2bqJ2yuQZ2vkAeBT49wU0rKygVuViznYvTNnlnxsGfdzD6R31Lp9sVGkF31XItOzu84Wqnf90v+9QeiGRz9xaSYW0iK8Qvf9GP/MdJJqc4j1DPyHpkstlX3s5JBxjbPNgiRehNBYXxH2HL3cpSuVWkK5+XzbjSpiOCRKVQvMrC6N2UqT/TrPEUhFJPl4HgeAcMunNEy6xWEcKmike4Z3iDRZ1kJt2/eifuGvjlaS/6OU9fXsjr/ZoxakHWKXTG0DesNP398qmD/8mrxTv1yYxJEUWQBWw89iWvLVu/K3FNy4TC6MFwZqwqguqYVZq+ys2PXEAz+SHtmJFY9EAt2F81rawihWpIIE+o7frLD+dsUtSuxH/qWxvA1F3W5R0vwhatRJqmB9dttntH3hOyxGYok2nmlsLvQH2spaLv1abGvlU8eaiSyuZf5Pls6JjTDjC2DS6Csfe5VzkYlacfiiozV7ldPRoY60o4jXqpkBkYSAiPfoBRcUibpY/pBRScFsTRjACAsRZFKNJ/O2FZS9zAKFNsDdaBJVJESDE6fP7VN/ZT66drkbiyEnLkRzFDrBPKBR2Q8AelGC7mJeqXbyuN7f3Hk7sfvE/fzxBaWBDTt2+ZhbEwjpVyeFgMyzOPolppzC9M7IlqxddnVm19LevqHYEWJEbsYQH3HeccFnBgZj1JIk7/NmWR/2UT9DCi6Baq1C3657vRMtddhTkrOEfpgf6B/OiF7+GZ/I0BV03L8sE9czQwOhLdVipMHR57Rt8ucMZ+7JP/o2NPO8DYLsNk4CisREUD5EEVesdRFG4gzEkaKcwm1hJ4++VQQNjvLdqw36a/9TR7QWFyHEbFS93CmBpAZiewk8pa3eu2rRFu5oPFULytKmUO6i6FVC27CrhjDsHSjqqHVGnyS7Xi5H9Jv7Inmx8IKjMT+gPLfF/H1PTIGlLiKMakIsozoXdyv2/71SutXN9a5ma6OKa2XGAmDLgM2bCFQKBSKHMOxdd12eTCtEQXJhj5oP7E2DKg3y89b2CtOQmHJrteId2ut0M0Q8jmQZFRjFwUzbi2tc9OJDm0TbOarqfsjA4wLis3E0Uy8k9o1vioXZ7ZQrN9IwozWzZpeAA0CqG8klH5d2mL/qn+9t2AmcspFBX5FWto68Xrc2tGr+OIvCZQdLuH2JowUmkjbYZaU3cJ949qZu0QhRIoOjZz8NEPFo/v/37kVQq27QhIemirIYWQUTATVWZ/JEJ/0i/OHLCy+Vd1rd1+lZ3u7pf6XuhPtCS7NxaoMGyqJ5DqLSmJtycoedLC5F79GO7SHzmgX9FSd+BgvkLkAEoo+tdvd7vX7Xiz7Br4iEecvojLec3FJFWIRt4XeKSeEDyS4M9IKVBndICxzUmjSYyQkgcTYWnmR5gdXp22E9fjZLYfJKhUk95mJZJMqegalFBBxmaToVRPwV7FUs1CNWAISTX6PZMfJlam99KQOL/jEXpljat8KGU9c7I1ZMIk2OA4wYZGtYlo4vh/+orfQZX8IVayKEJPQfIE51G7TUBIyhEq5AURBU8pERYIRiXv5IGIpnLn2bn+NSyZTcMNElK15L6Hhv2LZDXEF1hU7kpZ5PqsTe9IIvUP+lzuW7o+BUeJrm7Us2oTOvbEvTA3sHYmLiXdI79dI+7mgM/PF4UsaAdFu/3pk5/0o2DCTedMlxhMOtqoHWBcEYxRDx6WebX4mEJkmGW6Rx03mSPMtQVuLiUBAKQaKUYwf63Gkz9xKflnbfMf1z86tXQuWxplEc1UsJNI922/7h3rNIFYRdz0FpzquXkmRFcGUKson8u7a4lJgBoxSlGCYYSrMw+Xj+z+68rJQz/UJzahTzLQ56cgrAtnodnVwnZ1X0JzECnuKb92WDPyai2sHSBO6pKwPHNtcnD9ZXZuMM9NGFS2pIk1MFKIBGgHjmigHIiEenvaIiPaUfmiBogTDONT+v0QxnjinDZINi2pfKObiuv/JXO9ZNMVN23ihF7Belb9UhXblwRczEtpybBFRhAJvI/NHtnzZGX6lLATKUSM3GPHZHaAcWUgI2QLaofcm0TUeiyqzO5xA28js9y8qhf9N8EDTLhRM0ebS/7mLodcp1fbZ5KM/hEYmnOa/2eMSw1h0Dft7rfcbP/FnLnvSm+86AZPoPXgaQdhZBI1TOkFbg0gxmUYEDbV70HxmCoUb4lKU58JZ04+4M2cqiloeQL7sYSeBkPctr3v4jushIhEUD2l2eMM8iqHReSPYSlLiEdX0nT3kG0nbA7tyVrAHk1eEIqbcJektD0ur7EJvoZRaOWFx1NKfT2J8cc0MD5BzxE4Sj03+9ZvQ35pFk0f24ecVBdjicwV6bVrf9fD9hsroUBBxI3z0DwoQuQCoRQWT1mMfT+slf3K1JhJuumMDjCuoDFXZyZCzVKO8Erh/qgwPmpbdprZKTdskjXOqZBUoL5PynQk0P+Vc1Sk7cy/aHA8rn9e0R8JWsxEwNiacgsczzEbCWHlVo/abvdQV3b15itJ76oPFCJ0iR9WUSDQ87JMWxX5BeMDtYkJEPquTPygeuzZf/OmT9ypRHRKny+HcBUm1gqdirCRJXzNIE/IGr7Tnzg8xauF/XZ++FWJ/OodLJXLY33fjEqTXNgqurkMVj1jEEQiPePeSWQzPNBl4XeHQg67TP0bpfR+/YgieOlHGUK5B1qEfXRgiz3D6xEaXs+om8i5PSOXykzfh2dDdZknAtNxZL5zloEoPRLHsFf6J0TIMUKZIpYNycIdU9kBxpVokTCk0Rei4tS9VUIGsOX0WPlVW6k20KLJwmtcBxiooyoGHPlCvj9pEXgdYkT9k/a8P6F/XGoJJpoWUBhZyTS2Eple/a/XaDt6jQjDbf0XXnd+KEmPHwWoFHLDEuZS2lu9hQKGh+qzs0Q4Rb3Kg7Xjz/7l7OHdDwXlGV8DogJWuLLVRHDc/FYpIcPapOTRvVFQOxH6lSMqCm9086suJKncELEcVxJs9n5VK1YDfo7JRlyhokLEF+INNhFvMPvBjNQsgp7Wn3gEE/U9rNQd+pynFnz6QNkQNO7WLyedwTwMsvlNu16bHb3ovZVIXVOJOIOSjLnoxnwiGAycNaIqLKh+vXTq8JdlGJQ0YzQh1M7oAOMKHbDNEwUSVQ8FhYm7WLJrA03lBmm6JyfmqUsNvw4yXZFGyEoooTZqfU9C/Wa3YwUWRv+BYokuhBbGxhnzAHV+iVye9G++aHP3uu2/VhbohhCREX2BduTV9Pm0eO/wRU6KxcX6PvFLT4ZTY1+eObHvv7TxH0Mi4rCPiAnpTMPnASSCjeAqitB+5ZUq3sSRmaA4ucftGb7MzY/s1OyxjxCLRbK1+iumg4f+G1V41WcpIzJpU3xJguKLU5a6NsHkTkfJ/8CE7X8RzGn+b+s5wZwEppZFhrdfOpAc3vDzVUnf63nRWk8vKl4PK+MFmJ8WwdJF/DFRnv709NG9U5WpU0DLNTBanel4rlaB6uzqtmzkb/71s/8woQRb9iBLdb8+vWbHu5Mjo5fy04okCwcSNsMyyWjJpWTMpmpcg8ZxKtVugtQhzZxmNW+a0AZpjEdhSQkhcNyWHcs4244Kzi1MWTemdFif82ptvQb1+aUlwkMSk66QBwOcy74I0T6uaHeoFPTsY2BHFnODCIwqsFBIsHFBwaZauK16Yv8/T+x79B4VBWXYWevM/bOZl4RhZqcxc0awnbjA7R2+ITW86dV2tm9E6PkpZcz65SLeSoLqGrYUS4ehmkPpNMN4ghJV0s98iiqk5zE6iQma0fN5Wn8NcokTSsop/QqU/r9YnljhKAqVjEKsETD1/7N3rb9xXNf9Puaxu1y+RZESKcWUbUWIVQRpmyZtE8TfWuRb/5P+B/3SIkW/BEVRFA0SIEBat/1QBCkSuC3S2i0SKbb1iCWnMsWXSC7J5XLfO7PzuK+cM7NLUaqMJDZJk9I9wGhH0uzu7O7vnt85556H47jzgOl5WChTUuuLqVKvKUMvp4QvpIbOJpqWwVNmH6fp/0d5i0DyZNwhNR7U/6y2dOvbra1lia3lfh03tP7Dv7b4tB7jcy4a6EOIuox67wQ7y3PaaH9k/rOfN6B8xBH1Ac3S5KVhQsmJHqUToDA+h8qlwGnT46TJFek4zFRhrT6ghj4EszmBFYqbHMywbBByWXFnzBB2RRm2CLQ5B0t4VBniC61LSmvPUJepQZp/3pruZLs6Doe7ug4jBfhOg417/9iubX2fiORe3K1XVNJPM5+InpTPetZxqSUYEh2jZEilaMRK7qkoWOXliS/wYnlxZPbKVVooFYShRB9j84Unbonke9IKsJwoUqbUlOF9P8PRGALvy6VUws8fOJQkYG72XEq24XyTGb1MiekARuJs5jd2JOUu8Dp1FWVXUsI+B5S5APgtS+OMJcSblGDYZTW02hxp2RB+BheMtrJLZX/zF39evf/T7xqZSK3V8W2yW7HEeDaVkExNGq/Ibv3fY8cdd0tjU97Mpc9QWPFHNSbIkLy7zjDDME+Vp+c4I+cwGR0Uioa3+yqcd8BB1LCCMwMdB5LDMzzQIi56iECKXkaAJPdo9YHXoA76l5409YBSJA4oG8/hpEhkHFc3/7JfWfqXYH9nEz5WjJXSzIZNPwZoMhYSRquaUuKmFtEK7dZvOKWxPwTv7I+KF17+7UJpFPBACc4dxIL0kzCGhlgmg5BulrgFFltCqQdQmMKIASf0AvzkV4EYY8B1QAkVcKEccBPg2tGEcgfIbxQwXQZaYhnxYv0q5iM9FXE5qvvG+uLxgke8pPP3nXrln/vNauwWSjasb4nRyjOXjBIRLPMHstf4YbD9sFQU8evFmcuvaKxvNMNl9cnkaWcJk2CEzl8blAmsTDoBSmbi6ecMZs1lJ8bkW1HP2i88SYN3uNODTb89qgjtd9aTxu6bUdR6K6pt/XfcrrfB4MBWtMSS4if9snG2lwiNlpER6b7UajfYXd1XSbThjE6+5oxOXXRHxqcUd/M6VHM0+3C/DpYPv0fmTQ7qCTNzTpHBFCf6/xqO0sGf+gDT5ImZ0/QY8Iph4BGwKKJH73+jsbv2N0CKdbdQtKRoidHKRy5zk9U39nUU/DzR20TFYcAd70/ccwuvUu5lw4aPR7vkckC++ldfS8mnG4zE8gv0EDFbsci0NN3mj1ur97/T2137WdrvVLFNCWb22YnnRwwUrbDiP9Rp+FBL0ZZB6y7zStcLU7NfGbn4ylfcqQuLlDnARywPpZ+QB/ksmJohx2WQ/ihcmycjHMd4s7hlP+JyUhS9f6gt3/lmc+vhvlcYIViaYav4LTFa+Whtn8euZNqF07tgfbv9vUdTI6DcnYnZRcM9Rx9jNiA96rjRMREip4ZwoyRNwiZL+xvgxPwsrG680Vq7dxsHlXDKNLCmxdOx/AADz0aIlDC1A9/2vlJyrV+L141WjbJWr1O/NM3c4ij1/DFNHaYJPbbWfr+B3fep4hqzo8G07bJ29UdBu/oXOk0aGSme6rmelhitnC7LHMhR9EgU3E3qOzzttdtji9e/XphdvAZuEJP6xVxImGDBGdEe0X3a73zQfnT/X3u762/LOFymWvUoxWI8ahMYTsqIw3FWSiTwWAPX8Fa0v9WK2/u3uV+84oyMXytfePn33Inzl5TjeRjSNIS8kCN2HYxqcNLnvcYP1v73+3+qkrDFGc/GmFmxxGjlNxHspyrilqb6PWKkSpq7U26xPOmMnZvF4bIKkwNeAC2TT79A5cLg0NpRyS5Lw3ei5va3otrWbdkPOoxhBxRtbKbpp2TI6cxU6xCt7wFmV00azegkuh5zpwMe/uvu2NRLDsfmADwL1ytjXggnaThGqki19EX/B2m3/k2qRZsBKVrjzRKjlY/PjtqIpE0NvRPXK1RGva5/7tLXRuZfeY26pTyV/DnTMIcTejAhAVMMPS10Unv0VmN39Uey37tHVbKkomBPRn1JKbNxqNMhGuCaklQKo2RPG9mKaht7abf5ASuUrlK/tOiPn3u1MHP5CnMLHnbPUSfc8OEkMZyVDXFOSkyl0eaH39heeu/vqBJYS6mpJUVLjFY+seeYkaPqd97RIgar3LQ9v+j6M5euca+YFc+LbGbb2eeH4WxEbCKdJdYYTVwjuiTq/FNvb/17va0PPwTlGxKlEvxi2KDh94sZoDu9gMXEJ5PGDSnFHTBkHhLuTAIZvmr63dddx/26Ozl7lbtFx3A3zzfTKm8P+Jx4ktl+ooOkaCSPw7/tNHe/He5X9hyvkA3jtmKJ0cpRBGQwtU8mXeDID2SvIYLKUpgGrS+xYvllf/z8olOenFCw4DC8elY0y6Fyx2yCBXAhcZAYVSplp70etKo/pzLdoCK+pfvtn4b1apVIIbN9GRy0kCWBWEI8jXDNJG/2G+FoK6LShlZpNSW61iN6x23tXWd+aYE47rQ7Mjnnlidnues5OCT5cbcn8wRGTj+eKbYMyPYTPcAn69V+0tvf/F7SrP5bv7m35wIpUkuKlhitHLErhdpCikiZ3gMl40bSrr1DXP+18oWX/3hk/urX3NHJCSxyxwWqT3mIFZUdent4vwxJkWjMMk0dmW7psHUjqCy/2dx48L5RomGkaMFjimUXOSna5Jozg1k0XozKSzyI6ak4uB8l0Xa0v/Of1HFmwH1aKEzN/Q5g+KvexMyr4FWWKXWYwYHdg0xWc8q9yCzKgdjMGgoo4hvVdER0s7H+/l81Hj14V/R7MQdCtCUZlhitHJ8pDownYyJJhVBVM1ptJY1KAKQR+8nsb1GvOM68wjhziwXJmDOITp0uJULyPqZYbkHStG2SEDzBZF+m0YpMwndFr3Ujrm+vUyBDTOsA9jSE+fbnP9PQZbkDKEVMmN4lROwBX65Q5o6mrepy3+g11e9+mRVHLjOvNEW5P8r9wigHotSMgydJM4LUpwrLNMMxjrNmIqiZONg2SbQhZHJXiPA/WpWVOyqNhesXyEGNshVLjFaOlSBxXFUMlvi26DX/S8bherCz8grzi4v+xPnfHV347Bfd4tiEYszTef+Pg6ijOcm7PPyY7R8a7RKTMi26oEhWor3Nt1tbSzdV0q8AT9bgMzWB+LFHq6GOl98ttUrl+fIicdgoVUQJBYZdqvoqDJO40m/s/oRy5wLl7ixlzlzx3MUvFGcvf94tT80Z7hWAHB0FDGuegWNz0ngeYNnD0iGZrLc3f/FGa3PpbZ1EO4DhXfhcIdyo5jZ0aonRyglJ3h0nP9dKGJGC9S2bhEYPdBpfpEbtxIWS9ibOX3f98jTx/IJhwDKMYaq81sawQQe4Ix84O5zIjrt/PLOoscecxvEcKRwxlbJDRLQGxy3d7/5P0ty+reKgA/8tqFYyG/cyzDJVAl7EQvS5FPxtcwwaOAcDT1aNlvuG0ofgiWGGynTSMP8HHtkmTaMvssLIPHOLk3yYvYKTfCnPGwcM+vUacqit21GSIX0c6cgwjR4iAJbJtMFk8iEV/TdEq/qm6Nb3OTq3WqnHjeqtWGK08mk5kBqIMgHKS3EKgjSqG4gHj1j10SLz/HkgxTmvPPlScfriNT46OcPR+s6mZQwaMR+Q5KGOOod7aQ0t/adN5yEZkjykxAbhJZ4rDk1l0hVBa6mzu3ZDxCGSd4NKsW+U2IJjGwi9rdIoNegd2j3DF9rUI1lHU4Md6FMjZR+IryuDVj1Mo9Vov/IWcbw58CSnmOOMUcanqFecK05fuOZPnH+JOT6QpcMARGTYa18fSt4xz3QrDzEopU9hmg6w/HgvnFNNuExjFbRXwv3Kzai+cxfIvGJE8tCIeEtGQcTQoLM4tsRo5RS6klomGM7RIq0T2r5FOS8ZyqZ10LxKRfwHRXHxy6xQvgTcOA7eWJYmZxjNlAEuakMGmZ5o8h4ye/OUnsG6N0+a1NhshipwYY2O4TGkRrSoTFdBYdwynca74dbSBwr3RbVK4blwgLsA16OdT4flFlnJxSeczGzlTFt3+ZgWPZjmoYTWUVuLpGdob51goicwI+DFA6yMEe7OUxn/PtfiS9QfWeBecQagXGTMKeUeJWN51jId0CBabuaAD82w87hB4tNPtkLEoIXONiA0YBsjHR0w9MBzjd8Dz/DHSXX9Xr+524RLEyDxBPCsMKvaZpxaYrRySnVLJhpIKhutQ/tGiBas2D0RqoqWYjnttW5wz79IHW8CFvIoKJEiLGoPrnezmglkKUoLoGjOF6dmr3rlifPwerEMO2txp76qRNyHlxeDlFd4DwOKQUfgDQZwXQ8URZNo0QAPFr1CnH/Y0kkokH8fz6PK3UtK+AGfW0K0krOWPnyONTkaCEpg03KwwOCfMEpJdg13tuJ6ZUOFnRvU8eeY605jIg91MkyPAIx9wLKPIYyc/yhnnPvM8SYB0wv+6NQ897ySSeNaf3/nThp2m1orQbO5aVpkmNY6oFoFRssqkemWkWINPMNqEnYSeFWT7ZRmE7GtGrXEaOUMECR9fOR1GzhLrynSpCeC9ipBqxuIEBtz5Bhg3GD0CIkRFAhlbNQpji6qYP66X56cICqtpN3mg36rVpFpFIOzh0P3VB6r0uApouIiAt4M3geUCh6gzAxqMVB0eYnF4ZrDgTtqxcqvsvQOSnMGjwArwBt4aDSQQWdN9NpbmVHHmIsMBZcg2FxDqZOBLo+K4vMdcCSLTqF4wR87d9Ufm15wXC/WSbAcVLfuR2G7B8YdYBkLZDWGdHETHzBsUox0AJTRAJQUw/7ojLo+OUgMs0adJUYrZ9GNzGo2cNRwivuQhDs0s8yH1jla1XTQPQa7VYGSUVqudoL2TZOFPWU3KxGhXGccejDT58DCN8OwFc3iUANytvCyclxkmbV5MhK8NoyMRAT3A3CbUusBotmT++KAa6A6LmWyJMLu7d72igO4BjIUPbhWYhg08/6w5vJgkCTLtxjw7+wQnu0+oiVGK8+lBT4wcYfGNM2JbUCWRmUWcwr/06J5kbbKn2PyAsQnpt0d8lLtVAsrJ45n8ixM53imh3CaYdsorDgkFPfBs310DUagfhxlGUY1jMX0Cy6/FGAA83Da/btuAFYAAAAASUVORK5CYII=;fontColor=#0066CC;fontStyle=1;fontSize=16;" parent="aJSuJoHOSdvCvk8-8lIr-7" vertex="1">
          <mxGeometry x="171" y="122.00000000000006" width="55.28" height="49.43" as="geometry" />
        </mxCell>
        <mxCell id="afPDVhEbnItVDCZ8cqZr-16" value="Socket.io" style="shape=image;verticalLabelPosition=bottom;labelBackgroundColor=default;verticalAlign=top;aspect=fixed;imageAspect=0;image=https://socket.io/images/logo.svg;fontSize=16;fontStyle=1" parent="aJSuJoHOSdvCvk8-8lIr-7" vertex="1">
          <mxGeometry x="247" y="120.42999999999999" width="48.86" height="48.86" as="geometry" />
        </mxCell>
        <mxCell id="aJSuJoHOSdvCvk8-8lIr-20" value="" style="shape=image;verticalLabelPosition=bottom;labelBackgroundColor=default;verticalAlign=top;aspect=fixed;imageAspect=0;image=https://img1.daumcdn.net/thumb/R750x0/?scode=mtistory2&amp;fname=https%3A%2F%2Fblog.kakaocdn.net%2Fdn%2FbOeCRz%2FbtrvvD0VlRf%2F2DNqS6OAcVHXNuxcEd2qi0%2Fimg.jpg;clipPath=inset(14% 3% 10% 2% round 5%);" parent="aJSuJoHOSdvCvk8-8lIr-7" vertex="1">
          <mxGeometry x="314" y="119.43" width="100.71" height="80.57" as="geometry" />
        </mxCell>
        <mxCell id="aJSuJoHOSdvCvk8-8lIr-30" style="edgeStyle=orthogonalEdgeStyle;rounded=0;orthogonalLoop=1;jettySize=auto;html=1;startArrow=classic;startFill=1;strokeWidth=3;strokeColor=#545B64;" parent="1" source="cxao4V9BfdAUneyTuSwW-8" target="aJSuJoHOSdvCvk8-8lIr-7" edge="1">
          <mxGeometry relative="1" as="geometry" />
        </mxCell>
      </root>
    </mxGraphModel>
  </diagram>
</mxfile>
